<svg width="45" height="41" viewBox="0 0 45 41" fill="none" xmlns="http://www.w3.org/2000/svg">
<path d="M13.9165 1.07886L16.7693 3.21223L26.0409 3.92336L28.8938 1.78998L31.0334 1.07886L35.3126 3.21223L41.7314 3.92336L43.1578 6.76785L41.7314 12.4568L39.5918 16.7236L37.4522 18.1458L35.3126 16.0125L33.173 13.168V20.9903L31.0334 24.546V28.1016L28.8938 31.6572L26.0409 32.3683L21.7617 31.6572L16.7693 32.3683L13.9165 30.235L12.4901 25.9682L11.0637 21.7015V12.4568L6.78448 17.4347H5.35807L3.21846 16.0125L1.79206 10.3235L1.07886 6.05673L3.21846 3.92336L8.92408 2.50111L13.9165 1.07886Z" fill="#FFF5E7"/>
<path d="M19.6011 38.4824L18.3423 32.728L22.1186 31.2894L25.8949 32.728L25.2655 37.7631L22.1186 39.921L19.6011 38.4824Z" fill="#FABF9E"/>
<path fill-rule="evenodd" clip-rule="evenodd" d="M26.3775 37.3333C25.7786 39.128 24.5124 41 22.1185 41C21.0114 41 20.0926 40.6361 19.3672 40.0095C18.6563 39.3954 18.1835 38.5754 17.8718 37.7377C17.2562 36.0833 17.1951 34.1637 17.3111 32.9042L19.2438 33.1094C19.1464 34.1667 19.2134 35.7225 19.6754 36.9641C19.9025 37.5745 20.2059 38.0577 20.5846 38.3849C20.9489 38.6995 21.4331 38.9148 22.1185 38.9148C23.3095 38.9148 24.0705 38.0644 24.5492 36.63C25.0287 35.193 25.0879 33.4898 24.9945 32.6026L26.9244 32.3684C27.0444 33.5084 26.9756 35.5411 26.3775 37.3333Z" fill="black"/>
<path fill-rule="evenodd" clip-rule="evenodd" d="M32.5258 25.3577C33.2268 23.8382 34.034 21.4066 34.3684 18.6553C34.6844 16.0552 34.5872 13.0925 33.508 10.3257C33.2955 9.78091 32.6554 9.5617 32.1266 9.81616C31.5978 10.0706 31.3812 10.7023 31.5855 11.2502C32.4417 13.5468 32.5404 16.0672 32.2567 18.4013C31.9326 21.0678 31.1205 23.3949 30.4915 24.6888L30.3695 24.9396L30.3876 25.2176C30.5148 27.1806 30.2113 28.4873 29.7388 29.3459C29.2785 30.1823 28.6144 30.6743 27.83 30.9455C26.1745 31.5178 23.9639 31.1011 22.3676 30.4444L21.9468 30.2713L21.5304 30.4548C19.7509 31.2391 18.4088 31.4213 17.412 31.294C16.4363 31.1695 15.712 30.7392 15.1564 30.1338C13.9909 28.8638 13.5369 26.7734 13.5369 25.1495L13.5369 24.907L13.4308 24.6888C12.1725 22.1005 11.7881 19.1452 11.8425 16.4587C11.8847 14.3744 12.1901 12.4998 12.521 11.1592C12.6611 10.5917 12.3547 9.99551 11.7957 9.81616C11.2367 9.63681 10.6364 9.94175 10.4921 10.5082C10.1082 12.0153 9.76267 14.104 9.71584 16.4161C9.65872 19.2356 10.0442 22.4629 11.4126 25.3934C11.4545 27.2419 11.9768 29.8076 13.5856 31.5607C14.4532 32.506 15.6265 33.1996 17.1413 33.3931C18.532 33.5706 20.1374 33.3179 21.9789 32.5652C23.7694 33.2243 26.3314 33.7039 28.5281 32.9445C29.7598 32.5187 30.8662 31.7038 31.6045 30.3622C32.3003 29.0981 32.6263 27.4455 32.5258 25.3577Z" fill="black"/>
<path d="M18.3419 16.1843C18.3419 17.376 17.3758 18.3422 16.184 18.3422C14.9922 18.3422 14.0261 17.376 14.0261 16.1843C14.0261 14.9925 14.9922 14.0264 16.184 14.0264C17.3758 14.0264 18.3419 14.9925 18.3419 16.1843Z" fill="black"/>
<path d="M30.2108 16.1843C30.2108 17.376 29.2447 18.3422 28.0529 18.3422C26.8611 18.3422 25.895 17.376 25.895 16.1843C25.895 14.9925 26.8611 14.0264 28.0529 14.0264C29.2447 14.0264 30.2108 14.9925 30.2108 16.1843Z" fill="black"/>
<path d="M18.3423 25.8948C18.3423 27.6211 20.8598 29.4913 22.1186 30.2106C23.3774 29.4913 25.8949 27.6211 25.8949 25.8948C25.8949 24.1685 23.3774 23.7369 22.1186 23.7369C20.8598 23.7369 18.3423 24.1685 18.3423 25.8948Z" fill="black"/>
<path fill-rule="evenodd" clip-rule="evenodd" d="M28.9418 2.82445C29.2903 3.10141 29.622 3.43855 29.9366 3.8053C30.7316 4.73194 31.5393 5.99283 32.3404 7.37255C33.0758 8.63929 33.8323 10.0536 34.5899 11.4698C34.6622 11.6049 34.7345 11.7401 34.8068 11.8752C35.6415 13.4347 36.4774 14.9839 37.3097 16.3776C37.6837 17.0038 37.96 17.1977 38.0728 17.247C38.075 17.2479 38.0773 17.249 38.0796 17.25C38.1128 17.2652 38.1504 17.2824 38.287 17.2018C38.482 17.0868 38.7573 16.8234 39.0818 16.342C39.3966 15.8752 39.7106 15.2744 40.0123 14.5769C40.6152 13.1827 41.127 11.4992 41.4879 9.95754C41.8533 8.39686 42.0422 7.07392 42.0422 6.38784C42.0422 6.13569 41.9087 5.81572 41.2209 5.41878C40.5304 5.02025 39.5223 4.69523 38.3169 4.39434C37.7255 4.2467 37.1111 4.11049 36.4902 3.97422C36.4363 3.96239 36.3823 3.95056 36.3283 3.93871C35.7654 3.8153 35.1972 3.69073 34.6588 3.56047C33.5213 3.28522 32.3423 2.94743 31.5314 2.43018C30.9369 2.05095 30.3085 2.08875 29.62 2.41561C29.3826 2.5283 29.154 2.66962 28.9418 2.82445ZM28.6659 0.472381C29.7984 -0.0652566 31.2875 -0.297611 32.7258 0.619908C33.1854 0.913128 34.018 1.18318 35.1832 1.46513C35.6969 1.58942 36.2415 1.70883 36.8093 1.83335C36.8621 1.84491 36.915 1.85652 36.9681 1.86818C37.5879 2.00417 38.2308 2.14655 38.8569 2.30283C40.0866 2.60979 41.3548 2.99393 42.3318 3.55782C43.3116 4.12332 44.2367 5.01905 44.2367 6.38784C44.2367 7.32269 44.0022 8.83638 43.6265 10.4416C43.2462 12.0658 42.6993 13.8775 42.0317 15.4213C41.6981 16.1927 41.324 16.9216 40.9109 17.5343C40.5076 18.1325 40.0152 18.6986 39.4162 19.0521C38.7682 19.4345 37.9806 19.5678 37.1821 19.2191C36.461 18.9042 35.8904 18.2623 35.4174 17.4702C34.5557 16.0273 33.6976 14.436 32.8649 12.8802C32.7932 12.7464 32.7218 12.6129 32.6506 12.4798C31.8888 11.0558 31.1501 9.67485 30.4346 8.44239C29.6475 7.08678 28.9201 5.96693 28.2593 5.19666C27.9293 4.81205 27.6464 4.55102 27.4138 4.39291C27.1786 4.23309 27.064 4.2249 27.0466 4.2249H24.8157L26.1776 2.48735C26.6747 1.85304 27.5623 0.996274 28.6659 0.472381Z" fill="black"/>
<path fill-rule="evenodd" clip-rule="evenodd" d="M15.2951 2.82445C14.9465 3.10141 14.6148 3.43855 14.3002 3.8053C13.5052 4.73194 12.6975 5.99283 11.8965 7.37255C11.161 8.63929 10.4045 10.0536 9.64694 11.4698C9.57465 11.6049 9.50235 11.7401 9.43005 11.8752C8.5953 13.4347 7.7594 14.9839 6.92709 16.3776C6.55313 17.0038 6.27678 17.1977 6.16407 17.247C6.16178 17.2479 6.15951 17.249 6.15722 17.25C6.12406 17.2652 6.08641 17.2824 5.94982 17.2018C5.7548 17.0868 5.47955 16.8234 5.15498 16.342C4.84025 15.8752 4.52618 15.2744 4.22455 14.5769C3.62164 13.1827 3.10982 11.4992 2.74891 9.95754C2.38357 8.39686 2.19457 7.07392 2.19457 6.38784C2.19457 6.13569 2.32815 5.81572 3.01588 5.41878C3.70639 5.02025 4.71449 4.69523 5.91989 4.39434C6.51136 4.2467 7.12567 4.11049 7.74666 3.97422C7.80055 3.96239 7.85453 3.95056 7.90855 3.93871C8.47146 3.8153 9.03964 3.69073 9.57798 3.56047C10.7155 3.28522 11.8946 2.94743 12.7054 2.43018C13.2999 2.05095 13.9283 2.08875 14.6168 2.41561C14.8542 2.5283 15.0828 2.66962 15.2951 2.82445ZM15.5709 0.472381C14.4384 -0.0652566 12.9494 -0.297611 11.5111 0.619908C11.0514 0.913128 10.2188 1.18318 9.05362 1.46513C8.53995 1.58942 7.99534 1.70883 7.42747 1.83335C7.37474 1.84491 7.32181 1.85652 7.26868 1.86818C6.64895 2.00417 6.00602 2.14655 5.37993 2.30283C4.15023 2.60979 2.88204 2.99393 1.90503 3.55782C0.925251 4.12332 8.96454e-05 5.01905 8.96454e-05 6.38784C8.96454e-05 7.32269 0.234589 8.83638 0.610361 10.4416C0.990572 12.0658 1.53749 13.8775 2.20507 15.4213C2.53868 16.1927 2.91279 16.9216 3.32595 17.5343C3.72926 18.1325 4.2216 18.6986 4.82064 19.0521C5.46865 19.4345 6.25623 19.5678 7.05472 19.2191C7.77577 18.9042 8.34641 18.2623 8.81944 17.4702C9.68111 16.0273 10.5392 14.436 11.372 12.8802C11.4436 12.7464 11.515 12.6129 11.5862 12.4798C12.348 11.0558 13.0867 9.67485 13.8022 8.44239C14.5893 7.08678 15.3167 5.96693 15.9776 5.19666C16.3075 4.81205 16.5904 4.55102 16.8231 4.39291C17.0582 4.23309 17.1728 4.2249 17.1902 4.2249H19.4211L18.0593 2.48735C17.5621 1.85304 16.6745 0.996274 15.5709 0.472381Z" fill="black"/>
<path fill-rule="evenodd" clip-rule="evenodd" d="M29.3662 5.38515C24.6916 3.48841 19.281 4.11446 15.9008 5.39468L15.105 3.51097C18.8675 2.08594 24.8851 1.35965 30.2102 3.52034L29.3662 5.38515Z" fill="black"/>
</svg>
