<svg width="50" height="30" viewBox="0 0 50 30" fill="none" xmlns="http://www.w3.org/2000/svg">
<path d="M46.6396 1.75H2.45455H1.09082V26.5L3.54554 28.75H44.4576L47.7305 27.5L46.6396 1.75Z" fill="#BDE1D3"/>
<path fill-rule="evenodd" clip-rule="evenodd" d="M46.5768 10.3846H0V8.0769H46.5768V10.3846Z" fill="black"/>
<path fill-rule="evenodd" clip-rule="evenodd" d="M21.4 14.4232C21.4 15.379 20.7131 16.1539 19.8658 16.1539H6.56936C5.72204 16.1539 5.03516 15.379 5.03516 14.4232C5.03516 13.4673 5.72204 12.6924 6.56936 12.6924H19.8658C20.7131 12.6924 21.4 13.4673 21.4 14.4232Z" fill="black"/>
<path fill-rule="evenodd" clip-rule="evenodd" d="M42.8 14.4232C42.8 15.379 42.0955 16.1539 41.2265 16.1539H38.0794C37.2104 16.1539 36.5059 15.379 36.5059 14.4232C36.5059 13.4673 37.2104 12.6924 38.0794 12.6924H41.2265C42.0955 12.6924 42.8 13.4673 42.8 14.4232Z" fill="black"/>
<path fill-rule="evenodd" clip-rule="evenodd" d="M11.3293 20.1927C11.3293 21.1486 10.6248 21.9235 9.75578 21.9235H6.6087C5.73965 21.9235 5.03516 21.1486 5.03516 20.1927C5.03516 19.2368 5.73965 18.4619 6.6087 18.4619H9.75578C10.6248 18.4619 11.3293 19.2368 11.3293 20.1927Z" fill="black"/>
<path fill-rule="evenodd" clip-rule="evenodd" d="M45.0037 2.8125H4.09169C3.52681 2.8125 3.06889 3.23223 3.06889 3.75V26.25C3.06889 26.7678 3.52681 27.1875 4.09169 27.1875H45.0037C45.5686 27.1875 46.0265 26.7678 46.0265 26.25V3.75C46.0265 3.23223 45.5686 2.8125 45.0037 2.8125ZM4.09169 0C1.83218 0 0.000488281 1.67893 0.000488281 3.75V26.25C0.000488281 28.3211 1.83218 30 4.09169 30H45.0037C47.2632 30 49.0949 28.3211 49.0949 26.25V3.75C49.0949 1.67893 47.2632 0 45.0037 0H4.09169Z" fill="black"/>
</svg>
