<svg xmlns="http://www.w3.org/2000/svg" xmlns:xlink="http://www.w3.org/1999/xlink" width="25px" height="18px" viewBox="0 0 25 18" version="1.1">
    <g id="Homepage" stroke="none" stroke-width="1" fill="none" fill-rule="evenodd">
        <g id="Account" transform="translate(-20.000000, -1970.000000)">
            <g id="Group-4" transform="translate(19.000000, 1964.000000)">
                <g id="billing-icon" transform="translate(0.504000, 3.000000)">
                    <path d="M3,4 L22,4 C23.3333323,4 23.9999983,4.66666646 24,6 L24,18 C23.9999983,19.333333 23.3333323,19.999999 22,20 L3,20 C1.66666652,19.999999 1,19.333333 1,18 L1,6 C1,4.66666646 1.66666652,4 3,4 Z" id="Stroke-2" stroke="#2A3C49" stroke-linecap="round" stroke-linejoin="round"/>
                    <path d="M1,7.99999976 L24,7.99999976" id="Stroke-3" stroke="#2A3C49" stroke-linecap="round" stroke-linejoin="round"/>
                    <path d="M20.9999987,11.9999995 L17.9999987,11.9999995" id="Stroke-4" stroke="#2A3C49" stroke-linecap="round" stroke-linejoin="round"/>
                    <path d="M11.9999998,11.9999995 L3.99999975,11.9999995" id="Stroke-5" stroke="#2A3C49" stroke-linecap="round" stroke-linejoin="round"/>
                    <path d="M6.99999975,14.9999993 L3.99999975,14.9999993" id="Stroke-6" stroke="#2A3C49" stroke-linecap="round" stroke-linejoin="round"/>
                    <polygon id="Stroke-1" stroke-opacity="0.00784313771" stroke="#000000" stroke-width="1.33333335e-11" points="0.496000022 2.39999281e-07 24.4959985 2.39999281e-07 24.4959985 23.9999987 0.496000022 23.9999987"/>
                </g>
            </g>
        </g>
    </g>
</svg>