<svg width="34" height="35" viewBox="0 0 34 35" fill="none" xmlns="http://www.w3.org/2000/svg">
    <path d="M10.8732 22.6428H10.8716C10.3277 22.6441 9.88565 23.0842 9.88565 23.6252C9.88565 24.1669 10.3292 24.6078 10.8742 24.6078H28.8002C29.3462 24.6078 29.7888 25.0477 29.7888 25.5905C29.7888 26.1333 29.3462 26.5732 28.8002 26.5732H10.8742C9.23896 26.5732 7.90852 25.2507 7.90852 23.6252C7.90852 22.4155 8.64557 21.3743 9.69617 20.9203C9.50876 20.0822 6.25216 5.5147 6.12704 4.95453H0.988565C0.442537 4.95453 0 4.51463 0 3.97186C0 3.42909 0.442537 2.9892 0.988565 2.9892H6.91995C7.38334 2.9892 7.78443 3.30907 7.88509 3.7587L8.59176 6.91986H22.4907C23.0334 6.91986 23.4734 7.35982 23.4734 7.90253C23.4734 8.44524 23.0334 8.88519 22.4907 8.88519H9.03095L11.6671 20.6772H28.0544L29.5129 15.6029C29.6485 15.1311 30.1099 14.8304 30.5962 14.8968C31.1929 14.9782 31.5787 15.57 31.4123 16.1488L29.7507 21.9298C29.6294 22.3516 29.2414 22.6425 28.8002 22.6425H10.877L10.8732 22.6428Z" fill="#071F16"/>
    <path d="M9.88672 29.5212C9.88672 31.1467 11.2172 32.4692 12.8524 32.4692C14.4877 32.4692 15.8181 31.1467 15.8181 29.5212C15.8181 27.8957 14.4877 26.5732 12.8524 26.5732C11.2172 26.5732 9.88672 27.8957 9.88672 29.5212ZM12.8524 28.5385C13.3974 28.5385 13.841 28.9794 13.841 29.5212C13.841 30.0629 13.3974 30.5038 12.8524 30.5038C12.3074 30.5038 11.8638 30.0629 11.8638 29.5212C11.8638 28.9794 12.3074 28.5385 12.8524 28.5385Z" fill="#071F16"/>
    <path d="M23.8555 29.5212C23.8555 31.1467 25.1859 32.4692 26.8212 32.4692C28.4564 32.4692 29.7869 31.1467 29.7869 29.5212C29.7869 27.8957 28.4564 26.5732 26.8212 26.5732C25.1859 26.5732 23.8555 27.8957 23.8555 29.5212ZM26.8212 28.5385C27.3662 28.5385 27.8097 28.9794 27.8097 29.5212C27.8097 30.0629 27.3662 30.5038 26.8212 30.5038C26.2762 30.5038 25.8326 30.0629 25.8326 29.5212C25.8326 28.9794 26.2762 28.5385 26.8212 28.5385Z" fill="#071F16"/>
</svg>