<?xml version="1.0" encoding="UTF-8"?>
<svg width="171px" height="137px" viewBox="0 0 171 137" version="1.1" xmlns="http://www.w3.org/2000/svg" xmlns:xlink="http://www.w3.org/1999/xlink">
    <!-- Generator: sketchtool 53.2 (72643) - https://sketchapp.com -->
    <title>D575C6D9-5DCD-4734-A173-BEFBDF1F066A</title>
    <desc>Created with sketchtool.</desc>
    <g id="Homepage" stroke="none" stroke-width="1" fill="none" fill-rule="evenodd">
        <g id="Post-Purchase--1" transform="translate(-102.000000, -149.000000)">
            <g id="all-set-dog" transform="translate(103.000000, 150.000000)">
                <g id="Group-57">
                    <path d="M9,126 C14.4049226,117.100978 9.77972655,111.994001 10.9102078,108.918586 C12.7556421,103.899151 18.1581205,104.085101 17.8574736,100.858752 C17.3392854,95.2929389 20.7851145,85.7298103 24.8383482,81.6135596 C28.892193,77.4979126 39.0255827,75.1620702 44.9926907,75.7181081 C50.9604097,76.2747498 62.8952366,74.8282059 82.3743456,65.2614549 C101.853455,55.6947038 111.424048,36.5605981 113,32 C111.424048,36.5605981 101.853455,55.6947038 82.3743456,65.2614549 C62.8952366,74.8282059 50.9604097,76.2747498 44.9926907,75.7181081 C39.0255827,75.1620702 28.892193,77.4979126 24.8383482,81.6135596 C20.7851145,85.7298103 17.3392854,95.2929389 17.8574736,100.858752 C18.1581205,104.085101 12.7556421,103.899151 10.9102078,108.918586 C9.77972655,111.994001 14.4049226,117.100978 9,126 Z" id="Stroke-1" stroke="#2A3C49" stroke-width="2" stroke-linecap="round" stroke-linejoin="round"></path>
                    <path d="M5.80353845,131 C-0.0271805728,130.29085 4.32560462,122.09835 9,126.092015 C4.32560462,122.09835 -0.0271805728,130.29085 5.80353845,131 Z" id="Stroke-3" stroke="#2A3C49" stroke-width="2" stroke-linecap="round" stroke-linejoin="round"></path>
                    <path d="M153.21639,78 C157.871936,79.5179514 156.008984,84.5191955 152.57749,84.2909229 C150.255825,84.1365032 148.861971,83.1721433 148.607266,81.5949875 C142.49923,80.781385 115.907893,78.6188994 115.401537,81.3734288 C113.373669,92.4061951 94.9738201,97.7370306 84.1699253,97.6247254 C77.5659164,97.5563657 65.0939169,96.1629265 61.6599788,97.6247254 C58.2278732,99.0865242 55.3015129,103.978515 49.7303729,108.53359 C44.159233,113.088054 37.9693489,114.06279 35.1559873,114.06279 C32.342015,114.06279 30.5352578,111.670811 27.8721539,111.146517 C25.2084393,110.621612 21.8148142,113.02824 21.8148142,113.02824 C17.8445906,115.876764 18.9519776,119.653026 17.8958981,123.658782 C15.3971004,133.133924 7.56293294,135.862208 4.03737434,134.775778 C-3.34724166,132.499766 1.15926759,126.020854 3.7625127,127.583361 C1.15926759,126.020854 -3.34724166,132.499766 4.03737434,134.775778 C7.56293294,135.862208 15.3971004,133.133924 17.8958981,123.658782 C18.9519776,119.653026 17.8445906,115.876764 21.8148142,113.02824 C21.8148142,113.02824 25.2084393,110.621612 27.8721539,111.146517 C30.5352578,111.670811 32.342015,114.06279 35.1559873,114.06279 C37.9693489,114.06279 44.159233,113.088054 49.7303729,108.53359 C55.3015129,103.978515 58.2278732,99.0865242 61.6599788,97.6247254 C65.0939169,96.1629265 77.5659164,97.5563657 84.1699253,97.6247254 C94.9738201,97.7370306 113.373669,92.4061951 115.401537,81.3734288 C115.907893,78.6188994 142.49923,80.781385 148.607266,81.5949875 C148.861971,83.1721433 150.255825,84.1365032 152.57749,84.2909229 C156.008984,84.5191955 157.871936,79.5179514 153.21639,78 Z" id="Stroke-5" stroke="#2A3C49" stroke-width="2" stroke-linecap="round" stroke-linejoin="round"></path>
                    <path d="M121,21.8389499 C124.892581,20.8396595 167.826044,18.0629823 167.977415,22.2096155 C168.128787,26.355646 167.826044,28.2806963 157.016531,33.4621797 C146.207634,38.6442658 133.932403,33.085487 133.547206,33.4621797 C137.813909,38.0927877 145.12096,39.4488814 145.792286,40.7549504 C146.463611,42.0610193 145.166494,43.4496593 143.146979,43.6419232 C140.633969,43.8818011 136.267583,41.8657418 132.18671,43.2350951 C128.104607,44.6038457 121.226442,60.2634132 121.793776,65.2237026 C122.360496,70.1833893 147.002026,76.9590362 147.002026,76.9590362 C148.83448,77.3188531 150.450338,75.2364959 151.537012,73.5266124 C155.695416,66.2820584 161.250006,71.6280812 158.900058,74.4113882 C161.250006,71.6280812 155.695416,66.2820584 151.537012,73.5266124 C150.450338,75.2364959 148.83448,77.3188531 147.002026,76.9590362 C147.002026,76.9590362 122.360496,70.1833893 121.793776,65.2237026 C121.226442,60.2634132 128.104607,44.6038457 132.18671,43.2350951 C136.267583,41.8657418 140.633969,43.8818011 143.146979,43.6419232 C145.166494,43.4496593 146.463611,42.0610193 145.792286,40.7549504 C145.12096,39.4488814 137.813909,38.0927877 133.547206,33.4621797 C133.932403,33.085487 146.207634,38.6442658 157.016531,33.4621797 C167.826044,28.2806963 168.128787,26.355646 167.977415,22.2096155 C167.826044,18.0629823 124.892581,20.8396595 121,21.8389499 Z" id="Stroke-7" stroke="#2A3C49" stroke-width="2" stroke-linecap="round" stroke-linejoin="round"></path>
                    <path d="M148,65 C140.662312,68.1019341 128.860272,68.0985667 123,67.9520849 C128.860272,68.0985667 140.662312,68.1019341 148,65 Z" id="Stroke-9" stroke="#2A3C49" stroke-width="2" stroke-linecap="round" stroke-linejoin="round"></path>
                    <path d="M133,73 C138.662361,71.8267709 148.467564,68.9334686 150.933797,69.5095557 C156.891223,72.0642241 155.95526,61.9391283 150.383688,65.9530222 C155.95526,61.9391283 156.891223,72.0642241 150.933797,69.5095557 C148.467564,68.9334686 138.662361,71.8267709 133,73 Z" id="Stroke-11" stroke="#2A3C49" stroke-width="2" stroke-linecap="round" stroke-linejoin="round"></path>
                    <path d="M154,74.2418456 C160.861888,72.5155321 159.788646,80.582678 155.988986,81 C159.788646,80.582678 160.861888,72.5155321 154,74.2418456 Z" id="Stroke-13" stroke="#2A3C49" stroke-width="2" stroke-linecap="round" stroke-linejoin="round"></path>
                    <path d="M153.654493,65 C156.341399,64.9576293 154.772174,58.8768324 151,61.7895136 C154.772174,58.8768324 156.341399,64.9576293 153.654493,65 Z" id="Stroke-15" stroke="#2A3C49" stroke-width="2" stroke-linecap="round" stroke-linejoin="round"></path>
                    <path d="M148.332795,65 C146.526563,58.9616477 152.644795,57.2779359 153,60.8785555 C152.644795,57.2779359 146.526563,58.9616477 148.332795,65 Z" id="Stroke-17" stroke="#2A3C49" stroke-width="2" stroke-linecap="round" stroke-linejoin="round"></path>
                    <path d="M133,35 C133.436252,34.1265639 134.306708,33.1693337 135,33 C134.306708,33.1693337 133.436252,34.1265639 133,35 Z" id="Stroke-19" stroke="#2A3C49" stroke-width="2" stroke-linecap="round" stroke-linejoin="round"></path>
                    <path d="M147.44647,20.7867853 C148.4179,19.0162022 148.088058,16.3807481 146.634999,15.5507122 C145.183108,14.7206763 141.901028,14.5837384 139.723484,16.9002713 C137.545939,19.2180054 140.978053,21 140.978053,21 L147.44647,20.7867853 Z" id="Fill-21" fill="#FEFEFE"></path>
                    <path d="M147.44647,20.7867853 C148.4179,19.0162022 148.088058,16.3807481 146.634999,15.5507122 C145.183108,14.7206763 141.901028,14.5837384 139.723484,16.9002713 C137.545939,19.2180054 140.978053,21 140.978053,21 L147.44647,20.7867853 Z" id="Stroke-23" stroke="#2A3C49" stroke-width="2" stroke-linecap="round" stroke-linejoin="round"></path>
                    <path d="M140.034421,18.1736697 C142.119333,21.4702554 142.846288,23.8395458 140.720079,25.4899286 C138.791247,26.9862597 131.711778,25.0498663 130.382973,21.515635 C129.219965,18.4238543 130.872469,15.7339215 133.1001,15.183993 C135.482596,14.595253 138.264098,15.3744677 140.034421,18.1736697" id="Fill-25" fill="#FEFEFE"></path>
                    <path d="M140.034421,18.1736697 C142.119333,21.4702554 142.846288,23.8395458 140.720079,25.4899286 C138.791247,26.9862597 131.711778,25.0498663 130.382973,21.515635 C129.219965,18.4238543 130.872469,15.7339215 133.1001,15.183993 C135.482596,14.595253 138.264098,15.3744677 140.034421,18.1736697 Z" id="Stroke-27" stroke="#2A3C49" stroke-width="2" stroke-linecap="round" stroke-linejoin="round"></path>
                    <path d="M133.148671,33.6499635 C131.330288,33.7293266 132.420942,37.4029542 129.377997,35.4129991 C125.286948,32.7381702 124.220697,32.6241225 122.643847,33.4594922 C116.962182,36.4676459 127.597784,39.9702021 130.54374,39.9995958 C133.489696,40.0289895 138.008748,38.4517223 137.999987,36.4229674 C137.995607,35.343042 134.48211,33.5917639 133.148671,33.6499635" id="Fill-29" fill="#FEFEFE"></path>
                    <path d="M133.148671,33.6499635 C131.330288,33.7293266 132.420942,37.4029542 129.377997,35.4129991 C125.286948,32.7381702 124.220697,32.6241225 122.643847,33.4594922 C116.962182,36.4676459 127.597784,39.9702021 130.54374,39.9995958 C133.489696,40.0289895 138.008748,38.4517223 137.999987,36.4229674 C137.995607,35.343042 134.48211,33.5917639 133.148671,33.6499635 Z" id="Stroke-31" stroke="#2A3C49" stroke-width="2" stroke-linecap="round" stroke-linejoin="round"></path>
                    <path d="M138,19.5003535 C138,20.3290125 137.328858,21 136.5,21 C135.671825,21 135,20.3290125 135,19.5003535 C135,18.6716946 135.671825,18 136.5,18 C137.328858,18 138,18.6716946 138,19.5003535" id="Fill-33" fill="#326699"></path>
                    <path d="M138,19.5003535 C138,20.3290125 137.328858,21 136.5,21 C135.671825,21 135,20.3290125 135,19.5003535 C135,18.6716946 135.671825,18 136.5,18 C137.328858,18 138,18.6716946 138,19.5003535 Z" id="Stroke-35" stroke="#2A3C49" stroke-width="2" fill="#2A3C49" stroke-linecap="round" stroke-linejoin="round"></path>
                    <path d="M144,19.9430409 L142,20 C142,19.0813045 142.158689,19 142.789802,19 C143.421436,19 144,19.0243454 144,19.9430409" id="Fill-37" fill="#326699"></path>
                    <path d="M144,19.9430409 L142,20 C142,19.0813045 142.158689,19 142.789802,19 C143.421436,19 144,19.0243454 144,19.9430409 Z" id="Stroke-39" stroke="#2A3C49" stroke-width="2" stroke-linecap="round" stroke-linejoin="round"></path>
                    <path d="M127,21.9757598 C123.791098,19.179446 118.207657,17.7611784 114.992634,14.8788528 C111.778222,11.9965271 108.845401,4.8136082 109.352875,1.33600619 C109.627119,-0.538928709 106.420666,-0.773450268 103.487844,2.81800918 C100.5287,6.44164573 99.6753599,9.97308251 100.103866,13.1938865 C100.611953,17.0130608 105.286347,19.9578843 108.902331,21.3947156 C113.639165,23.2758384 125.445745,23.5481062 127,21.9757598" id="Fill-41" fill="#2A3C49"></path>
                    <path d="M127,21.9757598 C123.791098,19.179446 118.207657,17.7611784 114.992634,14.8788528 C111.778222,11.9965271 108.845401,4.8136082 109.352875,1.33600619 C109.627119,-0.538928709 106.420666,-0.773450268 103.487844,2.81800918 C100.5287,6.44164573 99.6753599,9.97308251 100.103866,13.1938865 C100.611953,17.0130608 105.286347,19.9578843 108.902331,21.3947156 C113.639165,23.2758384 125.445745,23.5481062 127,21.9757598 Z" id="Stroke-43" stroke="#2A3C49" stroke-width="2" stroke-linecap="round" stroke-linejoin="round"></path>
                    <path d="M127,21.0756334 C124.787876,20.2517247 113.526923,25.8169144 108.213939,25.2402392 C102.900348,24.663564 90.204915,15.0141498 89.4218084,7.66473789 C88.6393088,0.315326025 81.7042621,5.47678223 80.0821994,10.4695594 C78.4601366,15.4629456 78.2361317,23.6533167 82.4309122,27.9738136 C86.6250857,32.2930926 92.9451812,35.715389 103.851004,35.9955058 C114.756826,36.2762315 126.547741,23.3202213 127,21.0756334" id="Fill-45" fill="#2A3C49"></path>
                    <path d="M127,21.0756334 C124.787876,20.2517247 113.526923,25.8169144 108.213939,25.2402392 C102.900348,24.663564 90.204915,15.0141498 89.4218084,7.66473789 C88.6393088,0.315326025 81.7042621,5.47678223 80.0821994,10.4695594 C78.4601366,15.4629456 78.2361317,23.6533167 82.4309122,27.9738136 C86.6250857,32.2930926 92.9451812,35.715389 103.851004,35.9955058 C114.756826,36.2762315 126.547741,23.3202213 127,21.0756334 Z" id="Stroke-47" stroke="#2A3C49" stroke-width="2" stroke-linecap="round" stroke-linejoin="round"></path>
                    <path d="M30,78.9127992 C11.2517771,70.1557769 3,50 3,50 C3,50 9.65479656,67.077717 25.3041094,82 C28.0666847,78.9127992 30,78.9127992 30,78.9127992" id="Fill-49" fill="#2A3C49"></path>
                    <path d="M30,78.9127992 C11.2517771,70.1557769 3,50 3,50 C3,50 9.65479656,67.077717 25.3041094,82 C28.0666847,78.9127992 30,78.9127992 30,78.9127992 Z" id="Stroke-51" stroke="#2A3C49" stroke-width="2" stroke-linecap="round" stroke-linejoin="round"></path>
                    <path d="M166.750157,28 C167.778194,24.4995879 162,24.4995879 162,21.0009586 C164.815749,20.9647064 168.441819,21.9619376 168.921492,23.1012059 C169.493723,24.457987 166.750157,28 166.750157,28" id="Fill-53" fill="#2A3C49"></path>
                    <path d="M166.750157,28 C167.778194,24.4995879 162,24.4995879 162,21.0009586 C164.815749,20.9647064 168.441819,21.9619376 168.921492,23.1012059 C169.493723,24.457987 166.750157,28 166.750157,28 Z" id="Stroke-55" stroke="#2A3C49" stroke-width="2" stroke-linecap="round" stroke-linejoin="round"></path>
                </g>
            </g>
        </g>
    </g>
</svg>