<svg width="34" height="34" viewBox="0 0 34 34" fill="none" xmlns="http://www.w3.org/2000/svg">
<path fill-rule="evenodd" clip-rule="evenodd" d="M15.2735 16.9707L8.48528 10.1825C8.01665 9.71385 8.01665 8.95406 8.48528 8.48543C8.9539 8.0168 9.7137 8.0168 10.1823 8.48543L16.9706 15.2737L23.7588 8.48543C24.2274 8.0168 24.9872 8.0168 25.4559 8.48543C25.9245 8.95406 25.9245 9.71386 25.4559 10.1825L18.6676 16.9707L25.4558 23.7589C25.9245 24.2276 25.9245 24.9874 25.4558 25.456C24.9872 25.9246 24.2274 25.9246 23.7588 25.456L16.9706 18.6678L10.1823 25.456C9.71372 25.9246 8.95392 25.9246 8.48529 25.456C8.01666 24.9874 8.01666 24.2276 8.48529 23.7589L15.2735 16.9707Z" fill="black"/>
</svg>
