<svg width="54" height="46" viewBox="0 0 54 46" fill="none" xmlns="http://www.w3.org/2000/svg">
<path d="M28.5085 0L53.6968 4.44137L47.5282 39.4251L22.34 34.9837L28.5085 0Z" fill="white"/>
<path fill-rule="evenodd" clip-rule="evenodd" d="M50.6659 6.56362L30.6308 3.03088L25.3709 32.8615L45.406 36.3942L50.6659 6.56362ZM28.5085 0L22.34 34.9837L47.5282 39.4251L53.6968 4.44137L28.5085 0Z" fill="black"/>
<path d="M28.9833 12.007C31.3886 14.8932 36.6909 8.23657 39.0413 4.54746L30.5623 3.05237L28.9833 12.007Z" fill="#FABF9E"/>
<path d="M44.9156 19.1067C45.6425 14.9842 48.1145 14.3575 49.2596 14.5594L46.5337 30.0188C43.4012 27.6953 44.0069 24.2599 44.9156 19.1067Z" fill="#FABF9E"/>
<path d="M36.1464 22.3943C30.7708 20.738 24.5103 24.7704 22.052 26.9936L21.1434 32.1467L39.1793 35.3269C45.544 29.3647 42.8658 24.4647 36.1464 22.3943Z" fill="#ABBAAC"/>
<path d="M0.977539 11.0164L26.1658 6.57498L32.3344 41.5587L7.14611 46.0001L0.977539 11.0164Z" fill="white"/>
<path fill-rule="evenodd" clip-rule="evenodd" d="M24.0436 9.60587L4.00842 13.1386L9.26836 42.9692L29.3035 39.4365L24.0436 9.60587ZM0.977539 11.0164L7.14611 46.0001L32.3344 41.5587L26.1658 6.57498L0.977539 11.0164Z" fill="black"/>
<path d="M8.16406 16.8902L21.1436 14.6016L24.9683 36.2926L11.9888 38.5812L8.16406 16.8902Z" fill="#BDE1D3"/>
<mask id="mask0" mask-type="alpha" maskUnits="userSpaceOnUse" x="43" y="13" width="2" height="2">
<path d="M43.3264 13.5971L44.429 13.7785L44.2287 14.9887L43.126 14.8073L43.3264 13.5971Z" fill="white"/>
</mask>
<g mask="url(#mask0)">
<path d="M44.3656 14.1783C44.3667 14.172 44.3615 14.1645 44.3552 14.1634C44.2804 14.1437 44.219 14.159 44.1788 14.1649C44.1714 14.1701 44.1588 14.1679 44.1524 14.1668C44.1535 14.1605 44.1558 14.1478 44.1677 14.1173C44.1688 14.111 44.1699 14.1047 44.1647 14.0972L44.1584 14.0961L44.1521 14.095C44.0758 14.1207 44.0438 14.1542 44.0204 14.1761C44.0044 14.1929 43.9958 14.2044 43.9757 14.2074C43.9813 14.1758 43.9932 14.1452 44.0114 14.1159C44.033 14.0675 44.0631 14.0076 44.065 13.9231C44.0661 13.9168 44.0609 13.9094 44.0546 13.9083C44.0482 13.9072 44.0419 13.906 44.0408 13.9124C44.0322 13.9239 44.0162 13.9406 44.0036 13.9384C43.991 13.9362 43.95 13.9094 43.9117 13.72C43.9076 13.7063 43.9076 13.7063 43.9087 13.7C43.9024 13.6988 43.9035 13.6925 43.8972 13.6914C43.8909 13.6903 43.8908 13.6903 43.8834 13.6955C43.8771 13.6944 43.8771 13.6944 43.8749 13.707C43.7793 13.8793 43.7317 13.8905 43.719 13.8882C43.7064 13.886 43.6959 13.8711 43.6918 13.8574C43.693 13.851 43.6866 13.8499 43.6803 13.8488C43.674 13.8477 43.6666 13.8529 43.6654 13.8592C43.6372 13.9455 43.6461 14.0058 43.6498 14.0586C43.6569 14.0925 43.6577 14.1252 43.6521 14.1568C43.6342 14.1472 43.6301 14.1334 43.6208 14.1122C43.6063 14.0835 43.5877 14.0411 43.5237 13.9973L43.5174 13.9961C43.5174 13.9961 43.5111 13.995 43.5036 14.0002C43.4962 14.0054 43.4951 14.0118 43.494 14.0181C43.4947 14.0508 43.4925 14.0635 43.4914 14.0698C43.485 14.0687 43.4798 14.0612 43.4672 14.059C43.4378 14.0408 43.3831 14.0181 43.2998 14.0099C43.2935 14.0088 43.286 14.014 43.2849 14.0204C43.2838 14.0267 43.2827 14.033 43.2942 14.0416C43.3121 14.0512 43.385 14.1554 43.3645 14.1974C43.3612 14.2164 43.3411 14.2194 43.3084 14.2201C43.302 14.219 43.302 14.219 43.2957 14.2179C43.2894 14.2168 43.282 14.222 43.2808 14.2283C43.2797 14.2346 43.2786 14.241 43.2775 14.2473C43.3054 14.3109 43.3936 14.3656 43.4535 14.3957C43.4196 14.4028 43.3709 14.4203 43.3389 14.4537C43.3378 14.4601 43.3367 14.4664 43.3356 14.4727C43.3344 14.479 43.3408 14.4802 43.3471 14.4813C43.3672 14.4783 43.3798 14.4805 43.3936 14.4764C43.3862 14.4816 43.385 14.488 43.3787 14.4868C43.349 14.5077 43.3158 14.5475 43.3092 14.5854C43.308 14.5918 43.308 14.5918 43.3133 14.5992C43.3133 14.5992 43.3196 14.6003 43.3259 14.6014C43.3259 14.6014 43.3259 14.6014 43.3322 14.6025C43.3862 14.5925 43.4327 14.5876 43.4516 14.591C43.458 14.5921 43.458 14.5921 43.4643 14.5932C43.4632 14.5995 43.4546 14.6111 43.4353 14.6468C43.4342 14.6531 43.433 14.6594 43.4319 14.6658C43.4383 14.6669 43.4371 14.6732 43.4435 14.6743L43.4498 14.6754C43.5186 14.655 43.5696 14.6248 43.6057 14.6051C43.6492 14.5802 43.6789 14.5593 43.7295 14.5683C43.7195 14.6252 43.6812 14.7684 43.5339 14.8272C43.5264 14.8324 43.5253 14.8387 43.5242 14.8451C43.5231 14.8514 43.5283 14.8588 43.5346 14.8599C43.5525 14.8696 43.564 14.8782 43.5629 14.8845L43.5618 14.8908C43.5607 14.8971 43.5659 14.9046 43.5659 14.9046L43.5722 14.9057L43.5785 14.9068C43.5923 14.9027 43.6347 14.8841 43.6764 14.8328C43.7266 14.7699 43.7612 14.6847 43.779 14.5835C43.8296 14.5924 43.8504 14.6222 43.888 14.6679C43.9152 14.6988 43.9527 14.7446 44.0093 14.7937L44.0156 14.7948C44.0219 14.7959 44.0219 14.7959 44.0294 14.7907C44.0368 14.7855 44.0379 14.7791 44.0327 14.7717C44.0204 14.7304 44.0227 14.7178 44.0238 14.7114C44.0238 14.7114 44.0301 14.7126 44.0364 14.7137C44.0554 14.717 44.0975 14.7375 44.1447 14.7654C44.1447 14.7654 44.1447 14.7654 44.151 14.7665C44.1574 14.7676 44.1573 14.7676 44.1637 14.7687C44.17 14.7698 44.1711 14.7635 44.1722 14.7572C44.1852 14.7203 44.1614 14.6705 44.1406 14.6407C44.1354 14.6333 44.1365 14.627 44.1313 14.6195C44.1376 14.6207 44.1555 14.6303 44.167 14.6389C44.1733 14.64 44.1797 14.6411 44.1808 14.6348C44.1819 14.6285 44.183 14.6221 44.1841 14.6158C44.1666 14.5671 44.132 14.5414 44.0974 14.5158C44.164 14.5079 44.2656 14.4867 44.3147 14.4302C44.3221 14.425 44.3232 14.4186 44.318 14.4112C44.3128 14.4037 44.3128 14.4037 44.3076 14.3963C44.3013 14.3952 44.2949 14.3941 44.2949 14.3941C44.2633 14.3885 44.2466 14.3725 44.2499 14.3535C44.2462 14.3007 44.3515 14.2215 44.3716 14.2185C44.3559 14.1962 44.3634 14.1909 44.3656 14.1783Z" fill="#F22F1C"/>
</g>
<path d="M37.2959 15.0299L37.0239 14.9819C36.8469 14.9507 36.7784 14.9321 36.7114 14.8682C36.6381 14.8031 36.605 14.732 36.4391 14.305C36.333 14.0189 36.2731 13.8779 36.1846 13.8623C36.1529 13.8567 36.1243 13.8712 36.0808 13.8962L36.0138 13.9431C35.9852 13.9576 35.9818 13.9765 35.9762 14.0082L35.9528 14.141C35.9182 14.337 35.916 14.4605 35.9481 14.5379C35.9882 14.6428 36.1043 14.6502 36.0887 14.7388C36.0798 14.7894 36.0236 14.8121 35.954 14.7998L35.2193 14.6768C35.1497 14.6645 35.1036 14.6303 35.1136 14.5734C35.1292 14.4848 35.2546 14.5135 35.3241 14.4149C35.3744 14.352 35.3974 14.2582 35.4331 14.0559L35.6346 12.8394C35.6547 12.7255 35.6606 12.6548 35.5873 12.5897C35.536 12.5481 35.4738 12.5306 35.4861 12.461C35.4928 12.4231 35.5311 12.3907 35.607 12.4041L36.3291 12.5249C36.405 12.5383 36.431 12.5755 36.4243 12.6134C36.4132 12.6767 36.354 12.6793 36.2915 12.7009C36.2004 12.737 36.1807 12.8117 36.1584 12.9382L36.0576 13.5465C36.0554 13.5591 36.0595 13.5729 36.0722 13.5751C36.0785 13.5762 36.0922 13.5722 36.0997 13.5669L36.6718 13.1331C36.8366 13.0122 36.9292 12.9307 36.9414 12.8611C36.9548 12.7852 36.86 12.7685 36.8722 12.6989C36.8811 12.6483 36.9235 12.6297 36.9931 12.642L37.6583 12.7528C37.7215 12.7639 37.7539 12.8022 37.7472 12.8402C37.7349 12.9097 37.6442 12.9068 37.5478 12.9354C37.4366 12.9745 37.283 13.0322 36.9396 13.2781L36.558 13.5565C36.5506 13.5617 36.5494 13.568 36.5494 13.568C36.5483 13.5743 36.5535 13.5818 36.5599 13.5829C36.5788 13.5862 36.5948 13.5695 36.6391 13.5773C36.7782 13.6018 36.8583 13.8507 36.9885 14.1475C37.195 14.6404 37.2646 14.7635 37.3253 14.8264C37.3807 14.8818 37.4417 14.9056 37.4305 14.9689C37.409 15.0172 37.3654 15.0422 37.2959 15.0299Z" fill="#24313B"/>
<path d="M38.5753 14.3947C38.5775 14.3821 38.5786 14.3757 38.5723 14.3746C38.566 14.3735 38.5585 14.3787 38.5511 14.3839C38.4599 14.42 38.3141 14.4334 38.191 14.503C38.0902 14.557 38.0452 14.6273 38.034 14.6905C38.014 14.8044 38.0828 14.8948 38.1977 14.9085C38.2926 14.9252 38.3975 14.885 38.466 14.7928C38.5195 14.7109 38.5362 14.6161 38.5697 14.4263L38.5753 14.3947ZM39.1847 15.1543C39.1758 15.2049 39.1363 15.2436 39.0865 15.2674C39.0069 15.312 38.8938 15.3247 38.799 15.308C38.6661 15.2845 38.5393 15.1904 38.524 15.0182C38.5262 15.0056 38.5273 14.9992 38.521 14.9981C38.5147 14.997 38.5136 15.0033 38.4987 15.0137C38.3432 15.1559 38.1327 15.2035 37.943 15.1701C37.69 15.1255 37.4668 14.9492 37.5106 14.6635C37.5363 14.518 37.6326 14.3785 37.8074 14.3115C37.9759 14.2434 38.2073 14.2255 38.3651 14.1816C38.4752 14.1488 38.6214 14.0963 38.647 13.9509C38.666 13.8434 38.6046 13.7478 38.4706 13.7307C38.3947 13.7173 38.327 13.7314 38.2698 13.7605C38.0778 13.8505 38.0339 14.0254 37.8937 14.0072C37.7862 13.9882 37.7635 13.932 37.7891 13.7866C37.8036 13.7044 37.8341 13.6054 37.8884 13.5563C38.013 13.4413 38.3612 13.4636 38.5257 13.4926C38.8545 13.5506 39.2083 13.7629 39.1466 14.1498C39.1087 14.3649 39.0626 14.5524 39.0269 14.7548C38.9912 14.9571 38.9756 15.0457 39.1211 15.0713C39.1642 15.0855 39.1925 15.11 39.1847 15.1543Z" fill="#24313B"/>
<path d="M40.228 15.3056C40.4683 15.3479 40.6215 15.1076 40.6762 14.7977C40.7301 14.4551 40.6259 14.1954 40.4098 14.1638C40.1315 14.1148 40.0032 14.3986 39.9586 14.6516C39.8969 15.0385 40.0193 15.2688 40.228 15.3056ZM40.173 15.5437C39.9959 15.5124 39.8393 15.4392 39.7314 15.3484C39.6979 15.3164 39.6726 15.312 39.6599 15.3097C39.6157 15.3019 39.587 15.3164 39.5602 15.3574C39.5238 15.4162 39.4941 15.437 39.4498 15.4292C39.4055 15.4214 39.3594 15.3872 39.3772 15.286L39.6545 13.6394C39.6713 13.5445 39.6761 13.4802 39.666 13.4262C39.656 13.3723 39.6225 13.3403 39.5648 13.2975C39.5291 13.2782 39.4692 13.2481 39.4781 13.1975C39.4871 13.1469 39.522 13.1335 39.6012 13.1279C39.746 13.1208 39.9193 13.0992 40.0473 13.0761C40.0811 13.069 40.1086 13.0609 40.1403 13.0664C40.1782 13.0731 40.2191 13.0999 40.2035 13.1884L40.0682 13.9928C40.0638 14.0181 40.069 14.0255 40.0879 14.0288C40.0943 14.03 40.1081 14.0259 40.1166 14.0143C40.2561 13.8889 40.4648 13.8149 40.6608 13.8494C41.0667 13.9145 41.2624 14.3207 41.1951 14.7392C41.1134 15.24 40.7117 15.6321 40.173 15.5437Z" fill="#24313B"/>
<path d="M42.2595 14.3597C42.0445 14.3218 41.892 14.484 41.8415 14.8077C41.8024 15.029 41.7932 15.5621 42.1094 15.6179C42.3308 15.6569 42.4806 15.4355 42.5342 15.132C42.568 14.9032 42.5832 14.4103 42.2595 14.3597ZM43.0569 15.1263C42.9795 15.6018 42.5362 15.9344 42.0354 15.8526C41.5284 15.7697 41.2259 15.3773 41.3121 14.8513C41.3894 14.3758 41.8391 14.0443 42.3525 14.1283C42.8584 14.2175 43.1375 14.6319 43.0569 15.1263Z" fill="#24313B"/>
<mask id="mask1" mask-type="alpha" maskUnits="userSpaceOnUse" x="19" y="19" width="2" height="2">
<path d="M19.3504 19.3953L20.4486 19.1886L20.6742 20.3943L19.576 20.601L19.3504 19.3953Z" fill="white"/>
</mask>
<g mask="url(#mask1)">
<path d="M20.5258 19.5857C20.5247 19.5793 20.5173 19.5741 20.511 19.5752C20.434 19.5823 20.3815 19.6176 20.3458 19.637C20.3406 19.6444 20.3279 19.6466 20.3216 19.6478C20.3205 19.6414 20.3183 19.6288 20.319 19.596C20.3179 19.5897 20.3168 19.5834 20.3093 19.5782L20.303 19.5793L20.2967 19.5804C20.2338 19.6306 20.2152 19.673 20.2007 19.7017C20.1914 19.7229 20.1873 19.7366 20.1694 19.7463C20.1639 19.7147 20.1646 19.682 20.1717 19.6481C20.1754 19.5953 20.1832 19.5287 20.1561 19.4487C20.155 19.4424 20.1475 19.4372 20.1412 19.4383C20.1349 19.4394 20.1286 19.4405 20.1297 19.4468C20.1256 19.4606 20.1163 19.4818 20.1036 19.484C20.091 19.4863 20.0434 19.4751 19.9426 19.3103C19.934 19.2988 19.934 19.2988 19.9329 19.2924C19.9266 19.2935 19.9255 19.2872 19.9191 19.2883C19.9128 19.2894 19.9128 19.2894 19.9076 19.2969C19.9013 19.298 19.9013 19.298 19.9035 19.3106C19.8726 19.5052 19.8317 19.532 19.819 19.5342C19.8064 19.5364 19.7915 19.526 19.783 19.5145C19.7818 19.5082 19.7755 19.5093 19.7692 19.5104C19.7629 19.5115 19.7577 19.519 19.7588 19.5253C19.7617 19.6161 19.7908 19.6696 19.8123 19.718C19.8306 19.7474 19.8424 19.7779 19.848 19.8095C19.8279 19.8065 19.8194 19.795 19.8034 19.7783C19.78 19.7563 19.748 19.7228 19.6728 19.7035L19.6665 19.7046C19.6665 19.7046 19.6602 19.7057 19.655 19.7131C19.6498 19.7206 19.6509 19.7269 19.652 19.7332C19.6639 19.7637 19.6661 19.7764 19.6672 19.7827C19.6609 19.7838 19.6535 19.7786 19.6408 19.7808C19.607 19.7738 19.5478 19.7712 19.4667 19.792C19.4604 19.7931 19.4552 19.8005 19.4563 19.8069C19.4574 19.8132 19.4585 19.8195 19.4723 19.8236C19.4924 19.8266 19.5965 19.8995 19.5917 19.946C19.595 19.965 19.5772 19.9746 19.5467 19.9865C19.5404 19.9877 19.5404 19.9877 19.534 19.9888C19.5277 19.9899 19.5225 19.9973 19.5236 20.0037C19.5247 20.01 19.5258 20.0163 19.527 20.0226C19.5749 20.0729 19.6765 20.0941 19.7431 20.1019C19.7137 20.1201 19.6739 20.1532 19.6553 20.1956C19.6564 20.202 19.6575 20.2083 19.6586 20.2146C19.6597 20.2209 19.6661 20.2198 19.6724 20.2187C19.6902 20.209 19.7029 20.2068 19.7144 20.1982C19.7092 20.2057 19.7103 20.212 19.704 20.2131C19.6832 20.2429 19.6657 20.2916 19.6724 20.3296C19.6735 20.3359 19.6735 20.3359 19.6809 20.3411C19.6809 20.3411 19.6872 20.34 19.6936 20.3389C19.6936 20.3389 19.6936 20.3389 19.6999 20.3377C19.7471 20.3099 19.7892 20.2894 19.8082 20.2861C19.8145 20.2849 19.8145 20.2849 19.8208 20.2838C19.8219 20.2901 19.8178 20.3039 19.8119 20.3441C19.813 20.3504 19.8141 20.3567 19.8152 20.3631C19.8215 20.3619 19.8227 20.3683 19.829 20.3672L19.8353 20.366C19.893 20.3233 19.9305 20.2775 19.9577 20.2466C19.9901 20.2083 20.0109 20.1786 20.0615 20.1696C20.0715 20.2266 20.0845 20.3743 19.9662 20.4799C19.961 20.4873 19.9621 20.4937 19.9633 20.5C19.9644 20.5063 19.9718 20.5115 19.9781 20.5104C19.9982 20.5134 20.012 20.5175 20.0131 20.5238L20.0142 20.5301C20.0153 20.5364 20.0228 20.5417 20.0228 20.5417L20.0291 20.5405L20.0354 20.5394C20.0469 20.5309 20.0804 20.4989 20.102 20.4364C20.1277 20.3601 20.1311 20.2682 20.1132 20.1671C20.1638 20.1581 20.1936 20.179 20.2445 20.2091C20.2806 20.2288 20.3316 20.259 20.4015 20.2858L20.4078 20.2847C20.4141 20.2835 20.4142 20.2835 20.4194 20.2761C20.4246 20.2687 20.4235 20.2623 20.416 20.2571C20.3903 20.2225 20.3881 20.2099 20.387 20.2035C20.387 20.2035 20.3933 20.2024 20.3997 20.2013C20.4186 20.198 20.4651 20.2028 20.5191 20.2129C20.5191 20.2129 20.5191 20.2129 20.5254 20.2118C20.5317 20.2106 20.5317 20.2106 20.538 20.2095C20.5444 20.2084 20.5432 20.2021 20.5421 20.1958C20.5418 20.1567 20.5023 20.118 20.4726 20.0972C20.4651 20.092 20.464 20.0856 20.4566 20.0804C20.4629 20.0793 20.483 20.0823 20.4968 20.0864C20.5031 20.0853 20.5094 20.0841 20.5083 20.0778C20.5072 20.0715 20.5061 20.0652 20.505 20.0589C20.4718 20.019 20.4306 20.0068 20.3893 19.9945C20.4492 19.9644 20.5373 19.9097 20.5641 19.8397C20.5693 19.8323 20.5682 19.826 20.5608 19.8208C20.5533 19.8156 20.5533 19.8156 20.5459 19.8104C20.5396 19.8115 20.5333 19.8126 20.5333 19.8126C20.5016 19.8182 20.4804 19.8089 20.4771 19.7899C20.4555 19.7415 20.5273 19.631 20.5452 19.6214C20.5229 19.6057 20.5281 19.5983 20.5258 19.5857Z" fill="#F22F1C"/>
</g>
<path d="M14.1742 22.8043L13.9022 22.8522C13.7252 22.8834 13.6545 22.8894 13.5697 22.8522C13.4785 22.8161 13.4231 22.7606 13.1211 22.4161C12.9236 22.1836 12.8191 22.0716 12.7306 22.0872C12.6989 22.0928 12.677 22.1162 12.6446 22.1545L12.5977 22.2215C12.5758 22.2449 12.5791 22.2639 12.5847 22.2955L12.6081 22.4283C12.6427 22.6244 12.6829 22.7412 12.7394 22.8029C12.813 22.8878 12.9246 22.8551 12.9402 22.9436C12.9491 22.9942 12.9041 23.0347 12.8346 23.047L12.1021 23.1827C12.0325 23.1949 11.9775 23.1786 11.9674 23.1217C11.9518 23.0331 12.0794 23.0171 12.111 22.9007C12.1367 22.8244 12.1263 22.7285 12.0906 22.5261L11.8639 21.314C11.8438 21.2002 11.8252 21.1317 11.7341 21.0956C11.6716 21.0741 11.6072 21.0789 11.595 21.0093C11.5883 20.9714 11.6132 20.9278 11.6891 20.9145L12.4089 20.781C12.4848 20.7676 12.522 20.7937 12.5287 20.8316C12.5399 20.8949 12.4852 20.9176 12.4338 20.9592C12.3605 21.0243 12.3676 21.1013 12.3899 21.2278L12.5033 21.8338C12.5055 21.8465 12.5141 21.858 12.5267 21.8558C12.5331 21.8547 12.5446 21.8461 12.5498 21.8387L12.939 21.2353C13.0525 21.0653 13.1116 20.9571 13.0993 20.8875C13.086 20.8116 12.9911 20.8283 12.9789 20.7588C12.9699 20.7082 13.0034 20.6762 13.073 20.6639L13.7359 20.5405C13.7991 20.5294 13.8427 20.5543 13.8494 20.5922C13.8616 20.6618 13.7753 20.6901 13.6946 20.75C13.6034 20.8247 13.4788 20.9315 13.2403 21.28L12.9769 21.6721C12.9717 21.6795 12.9728 21.6858 12.9728 21.6858C12.9739 21.6922 12.9813 21.6974 12.9877 21.6962C13.0066 21.6929 13.0159 21.6717 13.0602 21.6639C13.1993 21.6394 13.3596 21.8459 13.5836 22.0803C13.9462 22.4728 14.0537 22.5647 14.1322 22.603C14.2033 22.6361 14.2687 22.6376 14.2799 22.7009C14.2761 22.7537 14.2438 22.792 14.1742 22.8043Z" fill="#24313B"/>
<path d="M15.1584 21.77C15.1562 21.7573 15.1551 21.751 15.1487 21.7521C15.1424 21.7532 15.1372 21.7607 15.132 21.7681C15.0587 21.8332 14.9263 21.8957 14.8344 22.0032C14.7581 22.0884 14.7398 22.1698 14.751 22.2331C14.7711 22.3469 14.8667 22.4083 14.9794 22.3819C15.0743 22.3652 15.1591 22.2916 15.1918 22.1814C15.2142 22.0862 15.1974 21.9913 15.164 21.8016L15.1584 21.77ZM15.9909 22.2753C15.9998 22.3259 15.976 22.3757 15.9373 22.4152C15.8778 22.4844 15.7758 22.5349 15.681 22.5517C15.5481 22.5751 15.3967 22.53 15.3235 22.3734C15.3212 22.3608 15.3201 22.3545 15.3138 22.3556C15.3075 22.3567 15.3086 22.363 15.2982 22.3779C15.2007 22.5646 15.0191 22.6814 14.8294 22.7149C14.5764 22.7595 14.3064 22.6701 14.2499 22.3867C14.2242 22.2412 14.267 22.0771 14.4084 21.9544C14.5435 21.8328 14.7548 21.7368 14.888 21.6416C14.9802 21.5732 15.0997 21.4739 15.074 21.3284C15.0551 21.2209 14.9647 21.1521 14.833 21.1818C14.7571 21.1952 14.6983 21.2316 14.6544 21.2785C14.5048 21.4288 14.5234 21.6081 14.3854 21.6389C14.2779 21.6579 14.2373 21.6129 14.2117 21.4674C14.1972 21.3852 14.192 21.2818 14.2262 21.2171C14.304 21.0664 14.6388 20.9682 14.8033 20.9392C15.1321 20.8812 15.5372 20.9598 15.6116 21.3445C15.6495 21.5595 15.6703 21.7515 15.706 21.9538C15.7417 22.1562 15.7573 22.2448 15.9027 22.2191C15.9481 22.2176 15.9831 22.231 15.9909 22.2753Z" fill="#24313B"/>
<path d="M17.0234 22.0609C17.2638 22.0185 17.3255 21.7403 17.2709 21.4304C17.2044 21.09 17.0177 20.8816 16.8038 20.9258C16.5255 20.9749 16.502 21.2855 16.5466 21.5385C16.621 21.9232 16.8147 22.0977 17.0234 22.0609ZM17.0532 22.3034C16.8761 22.3347 16.7038 22.3194 16.5714 22.271C16.529 22.2524 16.5037 22.2569 16.4911 22.2591C16.4468 22.2669 16.4248 22.2903 16.4137 22.3379C16.3995 22.4056 16.3787 22.4354 16.3344 22.4432C16.2902 22.451 16.2351 22.4346 16.2173 22.3335L15.9147 20.6913C15.898 20.5965 15.8805 20.5343 15.8526 20.4871C15.8247 20.4399 15.7823 20.4212 15.7135 20.4008C15.6733 20.3948 15.6067 20.387 15.5978 20.3364C15.5889 20.2858 15.6171 20.2613 15.6897 20.2289C15.8232 20.1727 15.9787 20.0932 16.0911 20.0277C16.1205 20.0095 16.1436 19.9924 16.1752 19.9868C16.2131 19.9801 16.2607 19.9913 16.2764 20.0798L16.4243 20.8819C16.4288 20.9072 16.4362 20.9124 16.4552 20.909C16.4615 20.9079 16.4731 20.8994 16.4771 20.8856C16.5653 20.7201 16.7361 20.5791 16.9321 20.5445C17.3358 20.4669 17.6586 20.7816 17.7386 21.1979C17.833 21.6964 17.5896 22.2023 17.0532 22.3034Z" fill="#24313B"/>
<path d="M18.6082 20.477C18.3932 20.5149 18.3054 20.7195 18.3686 21.0409C18.4076 21.2623 18.5812 21.7664 18.8975 21.7106C19.1188 21.6716 19.1839 21.4123 19.1304 21.1087C19.0839 20.8822 18.9296 20.4138 18.6082 20.477ZM19.6196 20.9246C19.7096 21.3979 19.4067 21.8621 18.9082 21.9565C18.4034 22.052 17.9849 21.7867 17.886 21.2629C17.7961 20.7897 18.1053 20.3244 18.6164 20.2277C19.1223 20.1385 19.5263 20.4325 19.6196 20.9246Z" fill="#24313B"/>
</svg>
