<svg width="47" height="41" viewBox="0 0 47 41" fill="none" xmlns="http://www.w3.org/2000/svg">
<path d="M7.27362 27.3334V17.0834L15.4567 6.83335L23.6397 0.854187L40.0058 17.0834V33.3125L39.0965 35.875V39.2917H33.6412L31.8227 37.5834V24.7709L30.0043 18.7917L24.5489 17.0834L20.0028 17.9375L17.2751 20.5L14.5474 26.4792V38.4375L12.729 39.2917H7.27362V27.3334Z" fill="#FABF9E"/>
<path fill-rule="evenodd" clip-rule="evenodd" d="M38.6072 38.2967L38.6072 17.6364C38.6072 16.9411 39.1708 16.3775 39.8661 16.3775C40.5614 16.3775 41.1251 16.9411 41.1251 17.6364L41.1251 39C41.1251 40.1046 40.2296 41 39.1251 41H33.0536C31.9491 41 31.0536 40.1046 31.0536 39L31.0536 26.1354L31.0535 26.1278C31.0534 26.1183 31.0531 26.1007 31.0523 26.0757C31.0507 26.0256 31.0474 25.946 31.0404 25.841C31.0264 25.6305 30.9978 25.321 30.9396 24.9461C30.8222 24.1898 30.5898 23.2022 30.1374 22.2308C29.6876 21.2648 29.0325 20.3399 28.0735 19.6535C27.1224 18.9727 25.7976 18.4725 23.9197 18.4725C20.246 18.4725 18.312 20.3961 17.2358 22.3218C16.6831 23.3109 16.3551 24.3117 16.1663 25.0722C16.0724 25.4499 16.0146 25.7614 15.9808 25.9731C15.964 26.0787 15.9532 26.1589 15.9469 26.2093L15.9465 26.2128V39C15.9465 40.1046 15.0511 41 13.9465 41L7.87506 41C6.77049 41 5.87506 40.1046 5.87506 39L5.87506 17.6364C5.87506 16.9411 6.43871 16.3775 7.13399 16.3775C7.82928 16.3775 8.39292 16.9411 8.39292 17.6364L8.39292 38.2967L13.4286 38.2967V26.0644L13.4349 25.9974L14.6876 26.1319C13.4349 25.9974 13.4349 25.9974 13.4349 25.9974L13.4355 25.9905L13.4365 25.9803L13.4397 25.9501C13.4423 25.9257 13.4461 25.8928 13.4512 25.852C13.4613 25.7705 13.4767 25.6571 13.4992 25.5163C13.5441 25.2352 13.6174 24.8427 13.7334 24.3756C13.9642 23.4465 14.3706 22.1946 15.0768 20.931C16.5185 18.3511 19.2006 15.7692 23.9197 15.7692C26.2382 15.7692 28.0608 16.3954 29.4702 17.4042C30.8716 18.4073 31.7902 19.7352 32.3895 21.0219C32.9862 22.3033 33.2783 23.5684 33.4232 24.5017C33.4962 24.9715 33.5331 25.366 33.5519 25.6484C33.5613 25.7898 33.5662 25.9037 33.5687 25.9856C33.57 26.0266 33.5707 26.0597 33.5711 26.0842L33.5714 26.1146L33.5715 26.1249L33.5715 26.1276C33.5715 26.1284 33.5711 26.1288 33.5703 26.1289C33.5593 26.1294 33.4476 26.1319 32.3126 26.1319H33.5715L33.5715 38.2967H38.6072Z" fill="black"/>
<path fill-rule="evenodd" clip-rule="evenodd" d="M26.606 1.45088L46.0323 20.6486C46.5711 21.1811 46.5888 22.0456 46.0721 22.5996C45.5338 23.1769 44.6251 23.1954 44.0637 22.6406L24.695 3.49996C23.7921 2.60766 22.3617 2.62268 21.4767 3.53376L2.95486 22.6002C2.40522 23.166 1.49683 23.166 0.947189 22.6002C0.419628 22.0571 0.419628 21.193 0.947189 20.6499L19.5255 1.52525C21.4726 -0.479135 24.6195 -0.512182 26.606 1.45088Z" fill="black"/>
</svg>
