<svg width="93" height="81" viewBox="0 0 93 81" fill="none" xmlns="http://www.w3.org/2000/svg">
<path d="M88.0981 76.2391H4.90187V8.76087H88.0981V76.2391ZM1.85047 4.5C1.12478 4.5 0.5 5.06911 0.5 5.81522V79.1848C0.5 79.9309 1.12478 80.5 1.85046 80.5H91.1495C91.8752 80.5 92.5 79.9309 92.5 79.1848V5.81522C92.5 5.0691 91.8752 4.5 91.1495 4.5H1.85047Z" fill="black" stroke="black"/>
<path d="M19.3999 1.73333C19.3999 0.77604 20.2237 0 21.2399 0H22.1599C23.1761 0 23.9999 0.77604 23.9999 1.73333V11.2667C23.9999 12.224 23.1761 13 22.1599 13H21.2399C20.2237 13 19.3999 12.224 19.3999 11.2667V1.73333Z" fill="#071F16"/>
<path d="M71.5332 1.73333C71.5332 0.77604 72.357 0 73.3732 0H74.2932C75.3094 0 76.1332 0.77604 76.1332 1.73333V11.2667C76.1332 12.224 75.3094 13 74.2932 13H73.3732C72.357 13 71.5332 12.224 71.5332 11.2667V1.73333Z" fill="#071F16"/>
<path d="M11.2002 35.7334H20.4002V44.9334H11.2002V35.7334Z" fill="#071F16"/>
<path d="M11.2002 60.2666H20.4002V69.4666H11.2002V60.2666Z" fill="#071F16"/>
<path d="M11.2002 48H20.4002V57.2H11.2002V48Z" fill="#071F16"/>
<path d="M23.4668 35.7334H32.6668V44.9334H23.4668V35.7334Z" fill="#071F16"/>
<path d="M23.4668 60.2666H32.6668V69.4666H23.4668V60.2666Z" fill="#071F16"/>
<path d="M23.4668 48H32.6668V57.2H23.4668V48Z" fill="#071F16"/>
<path d="M72.5332 23.4668H81.7332V32.6668H72.5332V23.4668Z" fill="#071F16"/>
<path d="M72.5332 35.7334H81.7332V44.9334H72.5332V35.7334Z" fill="#071F16"/>
<path d="M72.5332 48H81.7332V57.2H72.5332V48Z" fill="#071F16"/>
<path d="M60.2671 23.4668H69.4671V32.6668H60.2671V23.4668Z" fill="#071F16"/>
<path d="M60.2671 35.7334H69.4671V44.9334H60.2671V35.7334Z" fill="#071F16"/>
<path d="M60.2671 48H69.4671V57.2H60.2671V48Z" fill="#071F16"/>
<path d="M48 35.7334H57.2V44.9334H48V35.7334Z" fill="#071F16"/>
<path d="M48 23.4668H57.2V32.6668H48V23.4668Z" fill="#071F16"/>
<path d="M48 60.2666H57.2V69.4666H48V60.2666Z" fill="#071F16"/>
<path d="M48 48H57.2V57.2H48V48Z" fill="#071F16"/>
<path d="M35.7329 35.7334H44.9329V44.9334H35.7329V35.7334Z" fill="#071F16"/>
<path d="M35.7329 60.2666H44.9329V69.4666H35.7329V60.2666Z" fill="#071F16"/>
<path d="M35.7329 48H44.9329V57.2H35.7329V48Z" fill="#071F16"/>
</svg>
