<svg width="620" height="767" viewBox="0 0 620 767" fill="none" xmlns="http://www.w3.org/2000/svg">
<path opacity="0.5" d="M310.727 407.835C309.947 416.379 311.722 424.963 315.828 432.496C322.65 445.235 310.476 470.185 310.727 478.552C310.979 486.919 312.26 506.279 327.738 538.327C343.215 570.376 404.963 531.568 400.064 514.231C395.164 496.894 396.935 466.831 394.649 459.193C392.362 451.554 392.865 406.302 392.865 406.302C392.865 406.302 358.831 399.933 356.294 396.051C353.756 392.169 335.364 413.689 310.727 407.835Z" fill="#ED564E"/>
<path d="M452.991 295.952C448.82 282.471 473.519 238.162 474.16 233.363C474.8 228.563 490.203 184.97 483.795 171.489C477.388 158.009 483.469 136.212 483.795 111.84C484.122 87.4678 473.958 36.3739 457.815 14.3258C441.671 -7.72239 427.35 27.1526 427.35 27.1526L400.188 66.6132L380.502 120.81L326.292 130.433L279.143 122.745L255.085 130.119L234.243 68.2087L200.938 9.82817L183.35 5.65723L156.729 48.0073L152.96 83.925C152.96 83.925 152.872 130.119 145.56 168.286C139.279 200.95 158.865 235.159 158.865 235.159C158.865 235.159 175.825 287.924 170.548 311.329C165.272 334.734 158.865 374.069 158.865 374.069C137.332 379.383 134.593 407.022 134.593 407.022L480.642 399.873L460.114 371.669C460.114 371.669 457.225 309.419 452.991 295.952ZM275.575 252.471C275.206 257.742 272.8 262.662 268.867 266.19C263.424 269.272 257.027 270.212 250.927 268.828C248.19 268.198 245.62 266.99 243.389 265.285C241.166 263.553 239.613 261.104 238.994 258.355C238.376 255.605 238.73 252.727 239.997 250.21C242.468 245.294 246.503 241.338 251.467 238.966C254.994 236.249 259.092 234.367 263.452 233.463C265.592 233.184 267.767 233.469 269.764 234.288C271.76 235.108 273.508 236.434 274.834 238.136V237.383C275.821 242.348 276.071 247.432 275.575 252.471V252.471ZM410.616 247.998C409.924 252.239 407.848 256.131 404.711 259.067L399.434 262.182C396.231 263.74 391.897 262.182 388.04 262.182C386.138 262.42 384.208 262.132 382.458 261.351C380.708 260.569 379.206 259.323 378.115 257.747C376.944 255.385 376.432 252.751 376.633 250.122C376.633 246.353 376.8 242.584 377.135 238.815V239.217C379.333 235.272 382.977 232.335 387.299 231.026C390.273 230.839 393.254 231.259 396.061 232.258C398.869 233.258 401.444 234.818 403.631 236.842C405.551 238.101 407.289 239.618 408.794 241.353C409.546 242.266 410.086 243.334 410.377 244.481C410.713 245.622 410.795 246.823 410.616 247.998V247.998Z" fill="white"/>
<path opacity="0.5" d="M281.74 336.08C282.933 332.505 284.839 329.21 287.343 326.394C289.847 323.573 292.905 321.297 296.326 319.71C308.625 313.328 336.402 305.891 353.676 317.197C370.95 328.504 374.317 342.324 370.812 351.796C367.307 361.269 361.578 367.211 361.578 371.357C361.578 375.502 334.103 392.274 326.339 390.415C318.575 388.555 298.185 378.505 293.399 367.676C288.612 356.846 283.336 366.344 281.74 336.08Z" fill="#2F3D33"/>
<path d="M231.917 115.743C231.369 115.409 230.759 115.191 230.124 115.103C229.488 115.014 228.842 115.057 228.223 115.228C227.631 115.397 227.076 115.678 226.59 116.057C226.112 116.445 225.715 116.923 225.422 117.464C224.803 118.591 224.62 119.905 224.907 121.158C225.196 123.57 225.196 126.008 224.907 128.419C224.396 131.435 223.554 134.384 222.394 137.214C221.289 139.77 219.991 142.24 218.512 144.601C217.75 145.862 216.911 147.074 216 148.231L215.359 149.123L213.964 150.844C211.526 153.469 209.581 156.512 208.223 159.827C207.177 163.1 206.919 166.574 207.469 169.965C208.02 173.483 208.916 176.938 210.145 180.28C210.264 180.931 210.517 181.552 210.886 182.101C211.266 182.643 211.748 183.104 212.306 183.458C212.868 183.808 213.497 184.035 214.153 184.124C214.807 184.227 215.477 184.184 216.113 183.998C217.074 183.734 217.928 183.175 218.555 182.4C219.181 181.624 219.549 180.672 219.605 179.677C219.642 179.015 219.543 178.352 219.316 177.729C218.241 174.828 217.4 171.846 216.804 168.81C216.706 167.555 216.706 166.295 216.804 165.041C217.002 164.133 217.258 163.239 217.57 162.365L218.274 161.109L218.839 160.217V159.777C219.731 158.696 220.686 157.616 221.578 156.46C223.659 153.864 225.577 151.141 227.319 148.307C230.56 142.888 232.722 136.895 233.688 130.656C234.329 126.712 234.329 122.69 233.688 118.746C233.519 117.55 232.882 116.47 231.917 115.743V115.743Z" fill="#2F3D33"/>
<path d="M428.067 180.823C427.538 180.306 427.047 179.752 426.597 179.164L425.831 178.272C424.109 176.031 422.659 173.593 421.509 171.011C420.856 169.298 420.364 167.527 420.039 165.722C420.035 160.558 419.615 155.403 418.783 150.307C417.972 147.609 416.725 145.063 415.089 142.769C413.751 140.925 412.578 138.966 411.584 136.915C410.832 135.027 410.3 133.058 410.001 131.048C409.586 126.589 409.713 122.097 410.378 117.668C410.474 116.014 410.73 114.373 411.144 112.769C411.426 111.516 411.243 110.203 410.629 109.075C410.137 108.284 409.435 107.646 408.601 107.231C407.766 106.816 406.833 106.641 405.906 106.726C405.279 106.795 404.673 106.991 404.124 107.302C403.576 107.613 403.096 108.033 402.715 108.535C402.336 109.038 402.059 109.61 401.898 110.218C400.051 121.362 398.393 133.661 404.411 143.988C405.881 146.501 407.727 148.699 408.996 151.375C409.399 152.492 409.698 153.645 409.888 154.817C409.936 160.042 410.356 165.256 411.144 170.421C412.637 175.694 415.241 180.586 418.783 184.768C420.538 187.01 422.434 189.137 424.461 191.137C425.153 191.796 426.025 192.234 426.967 192.396C427.909 192.558 428.877 192.435 429.749 192.044C430.621 191.654 431.356 191.012 431.862 190.202C432.368 189.391 432.622 188.449 432.59 187.494C432.553 186.216 432.011 185.005 431.082 184.127C430.165 183.185 429.085 181.966 428.067 180.823Z" fill="#2F3D33"/>
<path d="M158.801 374.458V374.081C158.801 374.081 158.738 374.583 158.801 374.458Z" fill="#2F3D33"/>
<path d="M485.805 569.874C480.519 554.553 476.782 538.741 474.649 522.675C474.649 522.298 474.737 521.218 474.649 522.235C474.649 521.708 474.649 521.168 474.737 520.64L474.9 517.713L475.252 511.356C475.466 506.827 475.966 502.317 476.747 497.851L476.822 496.506V495.614L477.589 492.084C478.091 489.886 478.656 487.75 479.197 485.803C480.34 481.406 481.596 477.008 482.853 472.611C488.538 456.358 491.286 439.223 490.968 422.007C490.505 413.543 488.329 405.26 484.574 397.66C480.666 390.213 475.131 383.742 468.38 378.728C467.036 377.698 465.616 376.78 464.196 375.876C464.925 370.625 465.591 365.423 466.194 360.16C467.027 352.47 467.446 344.741 467.45 337.006C467.606 330.237 466.858 323.477 465.227 316.905C463.769 311.88 461.935 306.855 460.804 301.829C459.779 296.995 459.643 292.014 460.402 287.131C462.577 276.68 465.976 266.522 470.528 256.866L482.865 226.137C487.355 216.564 490.504 206.418 492.225 195.986C492.502 185.885 491.132 175.808 488.167 166.148C486.949 161.439 486.017 156.661 485.378 151.839C484.888 146.576 484.938 141.276 485.528 136.022C486.458 125.972 488.041 115.997 488.129 105.871C488.447 75.9531 480.752 46.4953 465.842 20.5553C461.231 12.6406 454.85 4.5123 444.849 4.22335C442.301 4.16402 439.776 4.72404 437.491 5.85534C435.207 6.98664 433.231 8.6554 431.733 10.7184C428.505 14.8894 425.766 19.5126 422.851 23.8342C411.13 41.121 398.014 58.1439 391.117 78.0564C387.713 87.8304 385.501 97.9814 382.047 107.743C380.991 110.695 379.81 113.497 378.504 116.361C365.463 115.658 353.152 120.344 340.676 123.233C337.369 124.026 334.011 124.589 330.626 124.917C325.193 125.166 319.75 124.744 314.42 123.66C306.719 122.153 299.105 120.08 291.304 119.213C283.581 118.36 275.774 118.686 268.15 120.18C264.634 120.91 261.172 121.876 257.785 123.07C257.145 121.876 256.328 120.683 255.75 119.439C251.753 110.683 248.679 101.533 246.579 92.1395C244.382 82.2982 241.364 72.658 237.559 63.3199C233.24 54.1755 228.26 45.358 222.659 36.9375C216.767 27.8168 210.888 18.6206 205.385 9.51238C204.317 7.35611 202.821 5.44054 200.986 3.88301C199.152 2.32548 197.02 1.1588 194.719 0.454433C189.989 -0.606228 185.032 0.218467 180.9 2.75345C173.327 8.53061 167.373 16.1636 163.613 24.9147C158.983 33.6543 155.112 42.775 152.042 52.1765C146.114 70.5685 143.423 89.8501 144.09 109.162C145.186 119.801 145.71 130.491 145.66 141.186C144.384 151.09 142.227 160.861 139.215 170.382C136.437 180.363 136.328 190.899 138.901 200.936C141.841 211.363 146.138 221.551 149.982 231.778C153.826 242.004 157.256 251.766 161.113 261.741C164.988 270.871 166.885 280.719 166.678 290.636C166.138 300.686 160.811 309.48 158.726 319.531C156.627 329.983 155.813 340.653 156.301 351.303C156.452 355.461 156.804 359.632 157.13 364.117C156.576 364.623 156.146 365.251 155.874 365.951L155.246 366.881C155.047 367.248 154.815 367.597 154.555 367.924V367.924C154.13 368.304 153.743 368.725 153.399 369.18L151.728 370.436L150.937 371.039L149.278 372.157C147.821 373.162 146.364 374.105 144.957 375.235C139.049 380.243 135.286 387.324 134.441 395.022C133.769 402.632 134.519 410.3 136.653 417.635C138.612 425.173 141.075 432.485 143.035 439.998C145.041 447.865 146.631 455.833 147.796 463.867C148.478 467.926 148.935 472.02 149.165 476.129V476.77C149.105 477.257 149.075 477.748 149.077 478.24L149.291 481.305C149.178 483.34 149.454 485.401 149.454 487.7C149.593 495.799 149.153 503.898 148.135 511.934C148.007 514.05 147.701 516.151 147.218 518.215C147.22 519.186 147.059 520.15 146.741 521.067V521.632C146.743 522.186 146.713 522.74 146.653 523.291C145.849 527.336 144.806 531.293 143.638 535.251C138.926 551.218 131.74 566.294 127.042 582.123C126.489 584.134 125.936 586.144 125.421 588.405C125.155 589.015 125.022 589.674 125.032 590.34C125.034 591.001 125.171 591.655 125.434 592.262C125.706 592.863 126.1 593.402 126.59 593.845C127.325 594.516 128.252 594.94 129.241 595.06C130.229 595.179 131.23 594.987 132.105 594.511C132.682 594.197 133.191 593.769 133.6 593.254C134.001 592.729 134.288 592.126 134.441 591.483C138.449 575.365 145.597 560.176 150.773 544.51C155.992 528.75 158.825 512.299 159.178 495.702C159.108 478.785 156.999 461.938 152.897 445.525C151.213 437.774 148.939 430.186 146.615 422.535C145.597 418.98 144.58 415.349 143.826 411.668C143.411 409.859 143.072 407.987 142.783 406.128L142.545 403.615V403.238L142.633 401.58C142.599 399.859 142.691 398.137 142.909 396.429C142.875 396.011 142.875 395.591 142.909 395.173V394.658C143.059 393.805 143.273 392.965 143.55 392.145C143.786 391.381 144.063 390.631 144.379 389.896C144.668 389.143 144.379 389.444 144.743 389.08V388.514C145.171 387.714 145.662 386.949 146.213 386.228L146.967 385.248C148.304 383.926 149.754 382.723 151.301 381.655L152.168 381.064L153.889 379.884C155.327 378.965 156.704 377.954 158.01 376.856C158.464 383.318 159.265 389.751 160.409 396.128C161.289 400.842 162.421 405.505 163.801 410.098C163.931 410.712 164.183 411.294 164.541 411.81C164.899 412.325 165.357 412.764 165.887 413.1C166.682 413.613 167.611 413.878 168.557 413.863C169.503 413.848 170.423 413.553 171.201 413.015C171.979 412.478 172.581 411.722 172.93 410.842C173.278 409.963 173.359 409 173.161 408.075C170.679 399.655 168.996 391.019 168.136 382.283C168.092 380.947 167.949 379.616 167.708 378.301V377.157C167.482 373.25 166.98 369.393 166.678 365.549C165.671 355.7 165.424 345.788 165.937 335.9C165.979 331.176 166.399 326.462 167.193 321.805C168.456 316.945 170.013 312.167 171.854 307.495C173.597 302.687 174.81 297.704 175.472 292.633C176.026 287.533 175.81 282.379 174.832 277.344C172.692 267.472 169.699 257.804 165.887 248.449L155.057 218.561C150.92 209.457 148.034 199.834 146.477 189.955C146.602 180.351 148.299 170.832 151.502 161.777C154.332 152.111 155.605 142.056 155.271 131.99C154.806 121.939 153.5 111.889 153.6 101.713C153.997 73.7656 161.8 46.424 176.214 22.4775C178.211 18.7306 180.809 15.3356 183.902 12.427C185.06 11.3051 186.481 10.4929 188.035 10.0652C189.585 9.63412 191.219 9.60385 192.784 9.97721C194.175 10.5187 195.352 11.4975 196.139 12.7662C197.621 14.8894 198.902 17.201 200.247 19.3744L208.714 32.6033C213.94 40.92 219.368 49.1362 224.066 57.8047C228.751 66.3334 232.371 75.4047 234.845 84.8153C237.358 94.4637 239.469 104.213 242.911 113.647C246.074 122.176 250.209 130.312 255.235 137.894C257.827 141.808 260.624 145.582 263.615 149.201C267.56 153.95 274.683 147.505 270.725 142.831C267.768 139.254 265.02 135.508 262.497 131.613C267.463 129.996 272.596 128.947 277.798 128.484C284.325 128.01 290.885 128.369 297.321 129.552C307.485 132.319 317.928 133.933 328.453 134.364C338.194 133.537 347.809 131.598 357.109 128.585C361.913 127.188 366.825 126.196 371.795 125.62L373.504 125.708C372.034 128.221 370.564 130.658 368.893 133.057C366.357 136.957 363.548 140.672 360.488 144.176C359.565 145.036 359.011 146.22 358.943 147.48C358.894 148.418 359.125 149.35 359.606 150.158C360.088 150.965 360.798 151.611 361.647 152.015C362.495 152.418 363.445 152.561 364.375 152.425C365.305 152.288 366.173 151.879 366.87 151.249C373.379 144.019 378.997 136.035 383.604 127.467C388.251 118.6 391.929 109.258 394.572 99.602C397.109 89.7225 400.428 80.0604 404.497 70.707C408.978 61.9751 414.083 53.5779 419.773 45.5809L437.889 18.809C438.81 17.2384 439.962 15.8154 441.307 14.5879C442.556 13.8662 444.012 13.5873 445.44 13.7964C448.91 14.461 451.981 16.459 453.995 19.3618C456.546 22.7721 458.763 26.4196 460.616 30.254C462.814 34.4626 464.875 38.7843 466.734 43.3572C473.853 60.6383 477.925 79.0217 478.77 97.6924C478.967 107.518 478.434 117.344 477.174 127.09C475.543 137.491 475.484 148.079 476.998 158.498C478.644 167.97 481.785 177.141 482.853 186.702C483.351 191.162 483.109 195.674 482.136 200.056C480.744 204.899 479.036 209.645 477.023 214.265L465.239 244.416C461.244 254.354 456.822 264.253 453.643 274.48C450.158 284.615 449.566 295.522 451.935 305.975C454.384 313.475 456.269 321.147 457.576 328.928L457.5 330.272L457.362 332.684L457.073 338.162L456.458 349.468C455.641 364.481 453.116 379.281 450.917 393.829C450.754 396.756 450.025 399.658 449.661 402.623C449.596 403.886 450.034 405.124 450.879 406.066C451.724 407.008 452.908 407.576 454.171 407.648C454.801 407.678 455.432 407.582 456.025 407.367C456.618 407.151 457.162 406.819 457.626 406.392C458.566 405.54 459.135 404.354 459.209 403.088C459.963 397.384 460.842 391.781 461.721 386.052L462.211 386.404L464.422 388.112L464.85 388.527L465.93 389.607C467.387 390.964 468.719 392.434 470.038 393.916L471.646 396.04L472.475 397.108C471.822 396.241 472.827 397.698 472.953 397.899C474.018 399.493 474.946 401.174 475.729 402.924C476.214 403.762 476.635 404.635 476.986 405.537L477.488 406.794V407.372C478.708 411.024 479.549 414.791 480.001 418.615C480.001 419.57 480.277 420.538 480.29 421.492C480.29 420.55 480.29 421.492 480.29 422.007L480.189 423.729L479.875 429.583C480.212 433.703 480.304 437.839 480.151 441.97L480.013 444.709L479.925 446.304V446.933L478.669 452.737C477.601 457.083 476.408 461.355 475.214 465.626C469.284 482.687 466.158 500.595 465.955 518.655C467.226 534.8 470.54 550.719 475.817 566.03C480.943 581.173 484.583 596.779 486.684 612.627V613.079L486.609 614.473C486.498 615.521 486.545 616.58 486.747 617.614C486.697 618.882 487.148 620.119 488.003 621.056C488.633 621.762 489.458 622.265 490.374 622.501C491.29 622.737 492.256 622.695 493.148 622.382C494.041 622.068 494.82 621.497 495.387 620.739C495.954 619.982 496.283 619.074 496.333 618.129C495 601.645 491.459 585.415 485.805 569.874V569.874Z" fill="#2F3D33"/>
<path d="M325.933 429.117C325.273 429.5 324.636 429.919 324.023 430.373C322.378 431.63 320.795 432.798 319.073 433.929L316.787 435.273L315.619 435.926H314.915C311.395 437.686 307.649 438.954 303.784 439.695C300.427 440.288 297.013 440.498 293.608 440.323C291.443 440.169 289.293 439.85 287.176 439.369C286.055 439.11 284.948 438.796 283.859 438.426H283.42L281.711 437.761L281.497 437.861C275.603 436.69 270.014 434.316 265.078 430.889L264.135 430.122L262.251 428.313L261.824 427.773L261.07 426.856C260.58 426.127 260.09 425.386 259.663 424.645C259.396 424.242 259.157 423.823 258.947 423.388C258.546 422.538 258.193 421.666 257.891 420.775C257.302 419.116 256.836 417.415 256.497 415.687C255.957 412.475 255.63 409.231 255.517 405.976C255.266 399.607 254.198 394.996 254.261 388.614C254.499 381.755 255.077 384.845 253.293 378.237C252.882 377.045 252.015 376.065 250.882 375.511C249.75 374.958 248.443 374.876 247.251 375.285C246.064 375.71 245.088 376.578 244.526 377.706C243.964 378.835 243.86 380.137 244.235 381.34C244.628 382.44 244.91 383.576 245.077 384.732L245.278 388.036C246.534 398.878 245.278 397.986 245.931 408.866C245.76 414.289 246.746 419.687 248.823 424.699C250.901 429.712 254.022 434.224 257.979 437.936C259.279 438.989 260.732 439.836 262.289 440.449L268.57 443.841C272 478.729 282.93 483.691 284.073 484.495C288.026 487.234 292.101 489.784 296.297 492.146C295.38 499.169 293.055 505.965 291.686 512.988C290.122 521.231 290.122 529.695 291.686 537.938C293.172 545.868 295.614 553.588 298.96 560.929C301.76 567.85 306.185 573.995 311.862 578.844C318.379 583.569 326.133 586.29 334.174 586.67C342.058 587.699 350.066 587.213 357.768 585.238C361.546 584.184 365.065 582.362 368.107 579.886C371.2 577.272 373.994 574.323 376.436 571.092C381.447 565.013 385.347 558.098 387.957 550.665C389.134 547.049 389.831 543.294 390.03 539.496C390.194 535.391 389.728 531.286 388.648 527.322C387.643 523.365 386.311 519.483 385.18 515.601C384.05 511.719 383.032 507.498 382.14 503.402L381.06 498.226C379.803 491.945 378.974 486.04 378.22 479.897C378.849 479.619 379.451 479.283 380.017 478.892C381.094 477.975 382.098 476.976 383.019 475.902C384.75 474.059 386.381 472.126 387.906 470.11C391.62 465.352 393.903 459.635 394.49 453.628C394.678 450.424 394.552 447.233 394.741 443.967C394.971 441.843 395.051 439.707 394.979 437.572L396.851 436.693C398.321 435.887 399.656 434.857 400.809 433.64C404.291 429.476 406.844 424.616 408.298 419.386C409.752 414.156 410.072 408.677 409.239 403.313C408.573 392.446 406.575 395.008 406.55 384.091L406.349 380.787C406.366 379.615 406.509 378.448 406.776 377.307C406.991 376.063 406.719 374.784 406.018 373.734C405.316 372.685 404.239 371.944 403.007 371.666C401.771 371.406 400.482 371.645 399.423 372.333C398.363 373.02 397.619 374.1 397.354 375.335C396.386 382.131 395.696 375.85 396.776 382.634C397.605 388.915 398.811 395.272 399.289 401.617C399.586 404.862 399.657 408.123 399.502 411.378C399.379 413.133 399.123 414.876 398.736 416.592C398.557 417.516 398.313 418.427 398.007 419.318C397.852 419.749 397.667 420.169 397.454 420.574C397.115 421.366 396.713 422.157 396.324 422.949L395.683 423.941L395.331 424.532L393.673 426.554L392.831 427.434L391.11 428.564C390.605 428.817 390.084 429.04 389.552 429.23C387.236 430.134 384.875 430.918 382.479 431.58C379.527 432.396 376.575 433.087 373.61 433.715C370.571 434.395 367.465 434.732 364.351 434.72C355.946 433.903 347.64 432.271 339.551 429.846L336.096 428.728C335.916 427.143 335.993 425.539 336.323 423.979C337.447 423.661 338.55 423.275 339.627 422.823L325.933 429.117ZM291.887 478.389V478.465L290.819 477.698H290.38L287.98 476.053C286.884 475.468 285.871 474.741 284.965 473.892C281.02 468.151 277.867 446.919 277.867 446.919L282.892 448.54L282.967 449.796C282.841 452.053 282.98 454.317 283.382 456.542C283.753 459.11 284.375 461.635 285.241 464.08C286.405 466.776 287.959 469.286 289.852 471.53C291.612 473.644 293.2 475.896 294.601 478.264C294.795 479.039 295.077 479.789 295.442 480.5C294.425 479.935 293.244 479.307 292.05 478.54L291.887 478.389ZM380.08 539.86C379.742 542.943 379.072 545.98 378.082 548.918C376.65 553.046 374.749 556.996 372.416 560.69V561.067L371.411 562.474C370.708 563.466 369.929 564.409 369.225 565.351C368.522 566.293 366.122 568.982 364.439 570.678L363.66 571.431C363.161 571.885 362.632 572.305 362.077 572.688C361.163 573.343 360.192 573.915 359.175 574.396C357.175 575.353 355.065 576.062 352.893 576.507C347.908 577.289 342.846 577.466 337.818 577.034C333.635 576.772 329.499 576.017 325.493 574.786C323.5 574.044 321.582 573.115 319.765 572.009L319.3 571.657L317.955 570.59C317.139 569.873 316.398 569.208 315.656 568.429L315.166 567.876L314.274 566.846C313.659 565.992 313.018 565.074 312.39 564.157C311.255 562.458 310.231 560.687 309.325 558.856C306.021 551.94 303.562 544.651 302 537.147C300.969 531.679 300.632 526.103 300.995 520.551C301.762 512.272 304.676 504.495 305.895 496.38C307.938 487.799 306.682 478.764 302.377 471.065C300.254 467.673 297.226 464.997 295.405 461.341C294.553 459.314 293.892 457.211 293.432 455.06C293.194 453.269 293.08 451.464 293.093 449.658C298.656 450.134 304.26 449.684 309.676 448.326C314.023 447.242 318.214 445.613 322.151 443.477C323.408 442.836 324.551 442.057 325.782 441.278C327.315 447.56 328.76 453.54 329.966 459.733C332.281 471.422 333.958 483.228 334.991 495.098L335.619 505.35C335.658 505.976 335.82 506.588 336.095 507.152C336.37 507.715 336.754 508.219 337.224 508.634C337.694 509.05 338.242 509.368 338.835 509.572C339.428 509.776 340.056 509.861 340.682 509.822C341.308 509.783 341.92 509.622 342.484 509.346C343.048 509.071 343.551 508.687 343.967 508.217C344.382 507.747 344.701 507.2 344.904 506.606C345.108 506.013 345.193 505.385 345.154 504.759C344.108 486.634 341.625 468.621 337.73 450.889C336.825 446.542 335.732 442.208 334.639 437.874H335.142L338.986 439.042C341.587 439.783 344.237 440.449 346.888 441.052C352.225 442.255 357.628 443.14 363.069 443.703C364.326 444.09 365.606 444.396 366.901 444.62C366.49 456.143 366.91 467.681 368.157 479.143C369.474 490.958 371.615 502.666 374.565 514.182C375.394 517.322 376.298 520.463 377.253 523.591C378.208 526.719 379.012 529.421 379.766 532.385C380.164 534.907 380.324 537.46 380.243 540.011L380.08 539.86ZM384.69 446.894C384.888 448.846 384.858 450.815 384.602 452.761C384.441 454.406 384.112 456.031 383.622 457.61C383.036 459.076 382.356 460.503 381.587 461.882L380.884 462.887L379.225 465.098L376.951 467.61L376.21 455.399C375.972 451.329 376.21 447.233 376.361 443.2V442.434L382.153 441.253L385.231 440.361C385.117 442.999 384.916 444.997 384.854 447.045L384.69 446.894Z" fill="#2F3D33"/>
<path d="M574.834 397.457H46.4074C40.9577 397.456 35.5666 398.582 30.5732 400.765C25.5797 402.948 21.0919 406.14 17.3917 410.141C13.6916 414.143 10.8591 418.866 9.07239 424.014C7.2857 429.163 6.58346 434.625 7.00973 440.058L30.0755 735.793C30.537 741.657 33.1923 747.132 37.5117 751.126C41.8312 755.119 47.4973 757.337 53.3799 757.338H567.837C573.719 757.34 579.385 755.122 583.703 751.128C588.021 747.134 590.673 741.657 591.129 735.793L614.257 440.058V432.37C614.257 424.042 611.204 416.003 605.675 409.775C600.146 403.547 592.526 399.562 584.257 398.575L574.834 397.457Z" fill="#E4FFF5"/>
<path d="M347.287 609.396H339.548C334.523 609.396 332.538 609.208 330.377 607.776C328.216 606.343 326.872 604.534 320.326 593.454C316.017 585.916 313.768 582.373 311.243 582.373C310.351 582.373 309.723 582.825 308.555 583.818L306.846 585.438C306.563 585.681 306.341 585.988 306.199 586.333C306.057 586.678 305.999 587.052 306.03 587.423V591.192C306.03 596.77 306.394 600.1 307.65 602.084C309.271 604.786 312.412 604.522 312.412 607.034C312.412 608.567 310.979 609.384 308.994 609.384H288.14C286.155 609.384 284.723 608.567 284.723 607.034C284.723 604.421 288.228 604.786 289.748 601.632C290.728 599.647 291.092 597.047 291.092 591.192V556.795C291.092 553.553 290.916 551.669 288.58 550.224C286.959 549.232 285.25 549.056 285.25 547.159C285.25 546.078 286.23 545.086 288.303 545.086H308.806C310.879 545.086 311.859 546.078 311.859 547.159C311.859 548.968 310.251 549.232 308.63 550.224C306.205 551.669 306.017 553.83 306.017 557.335V574.534C306.017 574.986 306.205 575.174 306.469 575.174C306.593 575.159 306.712 575.119 306.82 575.056C306.928 574.994 307.023 574.91 307.097 574.81L320.917 560.312C324.874 556.167 327.035 553.465 327.035 551.518C327.035 549.571 324.422 549.357 324.422 547.284C324.422 545.764 325.603 545.124 327.487 545.124H346.332C348.216 545.124 349.209 546.028 349.209 547.197C349.209 549.181 346.696 549.546 344.259 550.802C341.294 552.335 337.337 554.759 329.183 562.963L319.912 572.411C319.736 572.599 319.736 572.687 319.736 572.775C319.742 572.87 319.782 572.959 319.849 573.026C319.916 573.093 320.005 573.133 320.1 573.139C320.64 573.139 321.08 572.687 322.261 572.687C326.206 572.687 329.623 579.17 334.397 586.82C342.312 599.522 344.912 602.499 346.809 603.931C348.706 605.363 350.314 605.552 350.314 607.361C350.164 608.492 349.184 609.396 347.287 609.396Z" fill="#2F3D33"/>
<path d="M576.357 394.544C569.573 394.192 562.701 394.544 555.917 394.544H50.0026C47.1865 394.475 44.3687 394.55 41.5603 394.77C34.0458 395.499 26.8236 398.055 20.5236 402.216C14.2237 406.376 9.03718 412.015 5.4164 418.64C1.26079 426.509 -0.565225 435.399 0.152481 444.269C0.35349 446.949 0.562874 449.625 0.780634 452.296L3.60732 488.616C5.04788 506.958 6.48425 525.3 7.91644 543.642C9.59151 564.665 11.2331 585.683 12.8412 606.696C14.4157 626.856 15.9903 647.02 17.5649 667.187L21.2835 714.324C21.8991 722.251 22.5399 730.179 23.1429 738.093C23.859 747.026 27.4394 755.079 34.6381 760.707C40.505 765.255 47.4147 766.988 54.7389 766.988H565.603C573.408 767.198 581.015 764.513 586.96 759.451C593.317 753.923 596.269 746.146 596.922 737.93C597.132 735.066 597.354 732.205 597.588 729.349C598.568 716.862 599.544 704.382 600.515 691.912C601.964 673.385 603.413 654.855 604.862 636.32C606.495 615.382 608.133 594.443 609.774 573.505C611.332 553.404 612.898 533.337 614.473 513.303C615.696 497.758 616.91 482.209 618.116 466.656C618.707 459.118 619.372 451.656 619.875 444.156C620.327 438.03 619.555 431.875 617.604 426.051C615.653 420.226 612.562 414.849 608.511 410.231C604.461 405.613 599.532 401.848 594.011 399.155C588.491 396.462 582.489 394.894 576.357 394.544V394.544ZM607.249 444.671L605.365 468.867C604.134 484.529 602.911 500.195 601.696 515.865C600.13 535.849 598.568 555.837 597.01 575.829L592.148 638.016L587.877 692.552C586.914 704.847 585.951 717.138 584.987 729.425C584.297 738.319 584.422 747.252 575.414 752.277C571.847 754.275 568.191 754.375 564.246 754.375H54.9902C50.0655 754.375 45.5051 753.634 41.6357 750.267C39.8212 748.628 38.3537 746.641 37.3201 744.425C36.2865 742.209 35.7077 739.808 35.618 737.365L33.633 712.025C32.3851 696.02 31.1288 680.014 29.8641 664.009C28.3314 643.958 26.7736 623.95 25.1906 603.983C23.5658 583.203 21.941 562.42 20.3162 541.632C18.9091 523.65 17.5063 505.677 16.1076 487.712L13.3186 451.97C13.1176 449.357 12.904 446.756 12.703 444.143C11.9195 436.447 13.7374 428.711 17.8664 422.17C20.9042 417.518 25.0523 413.694 29.9366 411.045C34.8209 408.395 40.2877 407.003 45.8443 406.994H555.213C561.495 406.994 567.864 406.994 574.196 406.994C580.47 407.043 586.605 408.843 591.912 412.19C597.219 415.537 601.487 420.299 604.234 425.939C607.149 431.869 607.764 438.15 607.249 444.671V444.671Z" fill="#2F3D33"/>
<path d="M332.043 395.964C333.182 395.709 334.306 395.39 335.409 395.009C339.574 393.552 343.659 391.874 347.646 389.984C351.038 388.338 354.316 386.466 357.458 384.381C360.345 382.751 363.056 380.827 365.548 378.639C367.087 377.258 368.283 375.538 369.041 373.614C369.797 371.703 370.106 369.645 369.945 367.596C369.885 366.343 369.392 365.148 368.551 364.217C368.254 363.967 367.93 363.752 367.584 363.576C369.151 362.797 370.531 361.686 371.629 360.322C372.725 358.954 373.522 357.37 373.965 355.674C374.394 353.569 374.712 351.443 374.92 349.305C375.523 344.247 375.523 339.136 374.92 334.078C374.616 330.998 373.818 327.986 372.558 325.158C371.626 323.25 370.252 321.592 368.551 320.322C364.617 317.328 360.336 314.823 355.799 312.859C352.294 311.264 348.726 309.806 345.096 308.399H344.329L337.96 307.143C333.589 306.313 329.154 305.863 324.706 305.799C317.876 305.935 311.116 307.209 304.705 309.568L301.326 310.824C300.332 311.147 299.372 311.568 298.461 312.08C296.855 313.127 295.304 314.255 293.813 315.46C291.3 317.307 288.788 319.153 286.275 320.874C284.685 321.851 283.229 323.029 281.941 324.38C280.431 326.061 279.379 328.103 278.888 330.309C278.763 331.432 278.763 332.566 278.888 333.689C278.976 334.845 279.127 335.988 279.328 337.131V335.875C279.842 339.625 280.16 343.399 280.283 347.182V358.388C280.557 360.926 281.502 363.346 283.021 365.398C284.236 367.15 285.648 368.756 287.23 370.184C288.504 371.263 289.976 372.083 291.564 372.597C292.765 378.436 296.224 383.566 301.188 386.868C305.178 389.241 309.496 391.015 314.002 392.132C316.361 392.76 318.681 393.528 320.949 394.431L319.806 393.979L321.904 394.745L332.043 395.964ZM361.088 367.107C360.897 367.949 360.552 368.75 360.071 369.468V369.468C360.096 369.744 360.096 370.022 360.071 370.297C360.108 370.463 360.108 370.635 360.071 370.8V371.189L357.973 373.087H357.583L356.327 373.916L353.651 375.574C351.54 376.906 349.505 378.313 347.282 379.519C345.058 380.725 342.432 381.881 339.945 382.961L335.296 384.808L333.387 385.511C333.965 378.69 334.342 371.805 334.53 364.933C334.492 365.077 334.492 365.229 334.53 365.373C334.955 366.892 335.764 368.277 336.879 369.393C337.992 370.513 339.378 371.322 340.899 371.742C343.372 372.375 345.964 372.375 348.437 371.742C352.572 370.851 356.293 368.61 359.015 365.373H361.051C360.892 365.956 360.883 366.569 361.026 367.157L361.088 367.107ZM347.332 357.483H349.844V358.513C350.071 359.204 350.322 359.883 350.611 360.549L349.279 361.805L348.45 362.383L347.432 362.898C346.536 363.205 345.621 363.456 344.694 363.652H342.771V362.961L343.864 361.177L344.178 360.787L345.133 359.77C345.554 359.299 346.026 358.878 346.54 358.513C346.759 358.169 347.002 357.842 347.269 357.533L347.332 357.483ZM299.09 354.619C298.26 356.591 297.758 358.702 296.992 360.988C296.861 361.371 296.688 361.737 296.476 362.081L296.1 362.584L295.522 363.224L294.893 363.601H293.901C293.335 363.083 292.802 362.529 292.306 361.943L291.288 360.549C290.921 360.003 290.602 359.427 290.333 358.827C290.188 358.479 290.079 358.117 290.007 357.747V346.44C289.884 342.17 289.464 337.913 288.75 333.701C288.75 333.525 288.75 333.362 288.75 333.186V332.106L289.265 331.151L289.768 330.636H290.22L291.476 329.744C293.449 328.412 295.245 327.005 297.205 325.611L301.866 322.168L303.776 320.912C308.86 318.852 314.162 317.377 319.58 316.515C323.814 316.05 328.085 316.05 332.319 316.515C334.832 316.905 337.42 317.344 339.857 317.922C340.66 318.045 341.45 318.238 342.219 318.5L346.93 320.41C349.866 321.594 352.739 322.932 355.535 324.417C357.005 325.184 358.463 325.95 359.87 326.842L361.716 328.098L362.42 328.676L363.124 329.38C363.399 329.809 363.651 330.254 363.877 330.711C364.418 332.179 364.806 333.699 365.033 335.247C365.538 340.402 365.407 345.6 364.644 350.724C364.486 351.999 364.23 353.259 363.877 354.493L363.312 355.008L362.671 355.448L361.716 355.9C361.141 356.13 360.543 356.299 359.933 356.403C359.584 354.877 359.048 353.4 358.337 352.006C356.942 349.819 354.784 348.23 352.282 347.546C349.86 347.022 347.342 347.166 344.995 347.96C342.653 348.765 340.571 350.184 338.965 352.068C336.541 354.386 334.747 357.283 333.751 360.486V351.629C333.748 350.362 333.242 349.147 332.345 348.252C331.447 347.357 330.232 346.855 328.965 346.855C328.337 346.853 327.716 346.976 327.136 347.215C326.556 347.454 326.029 347.806 325.585 348.249C325.142 348.693 324.79 349.22 324.551 349.8C324.311 350.38 324.189 351.001 324.191 351.629V360.8C323.586 358.007 322.165 355.458 320.108 353.476C318.267 351.751 316.102 350.41 313.738 349.531C311.727 348.679 309.551 348.284 307.369 348.375C305.313 348.484 303.357 349.295 301.828 350.674C300.609 351.78 299.651 353.145 299.027 354.669L299.09 354.619ZM314.454 360.737V361.88L314.065 362.27L312.922 363.991C312.244 364.254 311.541 364.443 310.823 364.556C310.037 364.619 309.248 364.619 308.462 364.556L306.163 363.928C306.929 361.943 307.507 359.908 308.273 357.559H308.713C309.539 357.72 310.35 357.951 311.138 358.25C311.568 358.415 311.988 358.608 312.394 358.827L313.097 359.343L314.115 360.234L314.454 360.737ZM316.866 383.036V383.099C314.517 382.396 312.155 381.705 309.869 380.813L307.356 379.556C306.842 379.277 306.351 378.957 305.886 378.602H305.572L304.102 376.943L303.663 376.504V376.818C303.063 375.924 302.53 374.988 302.067 374.016V372.76C304.713 374.147 307.674 374.827 310.66 374.732C313.131 374.715 315.565 374.131 317.775 373.027C319.985 371.923 321.914 370.328 323.412 368.363C324.065 367.445 324.518 366.401 324.743 365.297C324.743 372.056 324.241 378.803 323.663 385.562C321.448 384.55 319.154 383.722 316.804 383.087L316.866 383.036Z" fill="#2F3D33"/>
<path d="M268.866 266.187C272.799 262.659 275.205 257.739 275.574 252.468C276.065 247.433 275.811 242.354 274.821 237.393V238.147C273.494 236.444 271.746 235.118 269.75 234.298C267.754 233.479 265.578 233.194 263.438 233.473C259.079 234.377 254.981 236.259 251.453 238.976C246.489 241.348 242.454 245.304 239.983 250.22C238.716 252.737 238.362 255.615 238.981 258.365C239.599 261.114 241.152 263.563 243.375 265.295C245.606 267 248.177 268.208 250.913 268.838C257.019 270.222 263.421 269.276 268.866 266.187V266.187ZM260.423 239.114C260.716 239.013 261.035 239.013 261.328 239.114C264.207 239.439 266.878 240.774 268.866 242.883C269.094 244.3 269.783 245.602 270.826 246.589C271.29 247.047 271.628 247.619 271.805 248.247C271.805 248.926 271.805 249.83 271.202 249.981C270.957 250.058 270.694 250.058 270.449 249.981C266.649 248.502 263.317 246.028 260.8 242.82C260.317 242.372 259.932 241.829 259.67 241.224C259.487 240.872 259.438 240.467 259.531 240.081C259.635 239.692 259.87 239.35 260.197 239.114H260.423Z" fill="#2F3D33"/>
<path d="M378.152 257.744C379.243 259.319 380.745 260.566 382.495 261.347C384.244 262.129 386.175 262.417 388.076 262.179C391.921 262.179 396.268 263.737 399.471 262.179L404.71 259.063C407.847 256.127 409.923 252.236 410.615 247.995C410.827 246.827 410.779 245.626 410.476 244.478C410.186 243.331 409.645 242.263 408.894 241.349C407.389 239.615 405.651 238.097 403.73 236.839C401.543 234.815 398.968 233.255 396.161 232.255C393.354 231.255 390.372 230.836 387.398 231.023C383.078 232.335 379.435 235.271 377.235 239.214V238.812C376.899 242.581 376.732 246.35 376.732 250.118C376.512 252.742 377.002 255.376 378.152 257.744V257.744ZM392.499 235.282C392.663 235.202 392.843 235.159 393.026 235.156C393.213 235.16 393.397 235.203 393.567 235.282C396.967 235.563 400.146 237.083 402.499 239.553C402.76 241.214 403.57 242.739 404.798 243.887C405.327 244.413 405.719 245.06 405.941 245.772C405.941 246.601 405.941 247.581 405.2 247.744C404.929 247.782 404.654 247.782 404.383 247.744C400.057 246 396.247 243.181 393.315 239.553C392.755 239.027 392.325 238.377 392.059 237.656C391.864 237.268 391.807 236.825 391.896 236.4C391.968 235.971 392.18 235.578 392.499 235.282V235.282Z" fill="#2F3D33"/>
</svg>
