<svg width="429" height="374" viewBox="0 0 429 374" fill="none" xmlns="http://www.w3.org/2000/svg">
<path d="M145.62 224.427L140.607 219.951L142.487 209.513L150.953 211.563L145.62 224.427Z" fill="#2F3D33"/>
<path d="M158.669 128.089L158.75 120.075L164.766 113.469L170.446 118.72L158.669 128.089Z" fill="#2F3D33"/>
<path d="M185.214 231.266L185.637 226.927L177.369 220.375L173.534 222.586L185.214 231.266Z" fill="#2F3D33"/>
<path d="M122.638 252.309L111.847 245.106L106.709 252.37L116.189 260.236L122.638 252.309Z" fill="#2F3D33"/>
<path d="M136.441 168.386L141.06 163.506L151.45 165.675L149.161 174.073L136.441 168.386Z" fill="#2F3D33"/>
<path d="M106.534 295.614L104.096 292L93.5485 292.205L91.9995 296.348L106.534 295.614Z" fill="#2F3D33"/>
<path d="M221.941 218.773L224.92 206.149L216.313 203.884L212.252 215.508L221.941 218.773Z" fill="#2F3D33"/>
<path d="M77.0468 337.62L76.6299 330.917L85.3081 324.811L89.8878 332.215L77.0468 337.62Z" fill="#2F3D33"/>
<path d="M100.407 370.281L103.758 367.494L102.488 357.03L98.2036 355.908L100.407 370.281Z" fill="#2F3D33"/>
<path d="M196.128 264.263L193.69 260.649L183.142 260.851L181.593 264.994L196.128 264.263Z" fill="#2F3D33"/>
<path d="M254.281 303.042L257.257 290.421L248.652 288.156L244.589 299.777L254.281 303.042Z" fill="#2F3D33"/>
<path d="M191.91 308.322L191.493 301.62L200.171 295.513L204.754 302.917L191.91 308.322Z" fill="#2F3D33"/>
<path d="M147.146 297.893L147.227 289.883L153.243 283.273L158.923 288.525L147.146 297.893Z" fill="#2F3D33"/>
<path d="M215.27 340.985L218.622 338.197L217.352 327.733L213.067 326.611L215.27 340.985Z" fill="#2F3D33"/>
<path d="M148.301 328.995L135.348 328.188L134.562 337.043L146.71 339.088L148.301 328.995Z" fill="#2F3D33"/>
<path d="M224.802 262.008L231.521 261.777L237.386 270.62L229.85 274.984L224.802 262.008Z" fill="#2F3D33"/>
<path d="M96.6379 201.859L92.3597 201L84.9995 208.552L86.8115 212.586L96.6379 201.859Z" fill="#2F3D33"/>
<path d="M186.279 176.883L179.518 165.813L171.802 170.245L177.087 181.363L186.279 176.883Z" fill="#2F3D33"/>
<path d="M326.763 235.622L322.212 240.566L311.792 238.541L313.967 230.111L326.763 235.622Z" fill="#2F3D33"/>
<path d="M247.661 205.921L239.644 205.729L233.114 199.625L238.451 194.024L247.661 205.921Z" fill="#2F3D33"/>
<path d="M334.168 196.168L329.832 195.685L323.158 203.848L325.317 207.713L334.168 196.168Z" fill="#2F3D33"/>
<path d="M358.269 253.783L350.909 264.465L358.106 269.698L366.114 260.342L358.269 253.783Z" fill="#2F3D33"/>
<path d="M270.544 243.998L265.727 239.314L268.045 228.965L276.416 231.371L270.544 243.998Z" fill="#2F3D33"/>
<path d="M379.477 357.828L373.172 362.778L364.247 362.224L364.795 354.509L379.477 357.828Z" fill="#2F3D33"/>
<path d="M395.041 300.893L391.388 303.276L391.443 313.818L395.567 315.426L395.041 300.893Z" fill="#2F3D33"/>
<path d="M266.083 72.8803L253.495 69.7275L251.103 78.2919L262.68 82.5148L266.083 72.8803Z" fill="#2F3D33"/>
<path d="M413.539 260.076L406.823 260.399L400.836 251.64L408.312 247.17L413.539 260.076Z" fill="#2F3D33"/>
<path d="M428.006 350.302L419.985 350.11L413.459 344.006L418.795 338.405L428.006 350.302Z" fill="#2F3D33"/>
<path d="M379.33 211.829L375.677 214.213L375.731 224.754L379.856 226.363L379.33 211.829Z" fill="#2F3D33"/>
<path d="M411.387 190.571L404.672 190.895L398.681 182.135L406.157 177.665L411.387 190.571Z" fill="#2F3D33"/>
<path d="M349.036 178.575L348.901 171.859L357.833 166.124L362.095 173.714L349.036 178.575Z" fill="#2F3D33"/>
<path d="M351.037 300.117L355.498 305.141L352.426 315.292L344.251 312.28L351.037 300.117Z" fill="#2F3D33"/>
<path d="M321.007 314.531L320.003 322.48L313.265 328.35L308.227 322.48L321.007 314.531Z" fill="#2F3D33"/>
<path d="M292.031 263.101L291.107 267.359L298.561 274.821L302.627 273.068L292.031 263.101Z" fill="#2F3D33"/>
<path d="M279.758 194.332L268.581 200.926L272.904 208.699L284.11 203.579L279.758 194.332Z" fill="#2F3D33"/>
<path d="M287.843 35.3609L277.051 28.1582L271.913 35.4218L281.393 43.2877L287.843 35.3609Z" fill="#2F3D33"/>
<path d="M203.85 91.2711L198.805 85.0424L199.235 76.1191L206.961 76.5581L203.85 91.2711Z" fill="#2F3D33"/>
<path d="M288.49 120.79L288.073 114.087L296.751 107.977L301.331 115.384L288.49 120.79Z" fill="#2F3D33"/>
<path d="M335.025 136.8L338.376 134.013L337.106 123.548L332.821 122.427L335.025 136.8Z" fill="#2F3D33"/>
<path d="M224.308 120.182L221.694 107.478L212.933 109.041L214.145 121.29L224.308 120.182Z" fill="#2F3D33"/>
<path d="M309.096 59.4514L315.814 59.2207L321.683 68.0606L314.144 72.4278L309.096 59.4514Z" fill="#2F3D33"/>
<path d="M346.304 66.039L346.384 58.0289L352.4 51.4189L358.08 56.6704L346.304 66.039Z" fill="#2F3D33"/>
<path d="M414.428 109.13L417.779 106.343L416.509 95.8783L412.225 94.7568L414.428 109.13Z" fill="#2F3D33"/>
<path d="M387.169 106.604L382.204 111.134L372 108.209L374.902 100L387.169 106.604Z" fill="#2F3D33"/>
<path d="M160.139 52.0568L155.357 40L147 43.0599L150.322 54.9148L160.139 52.0568Z" fill="#2F3D33"/>
<path d="M119.242 91.0602L115.172 89.4902L106.635 95.6836L107.735 99.9706L119.242 91.0602Z" fill="#2F3D33"/>
<path d="M209.181 15.2288L205 9.97097L208.623 0L216.619 3.45716L209.181 15.2288Z" fill="#2F3D33"/>
<path d="M98.3159 146.64L93.7939 140.02L94.9453 131.161L102.61 132.225L98.3159 146.64Z" fill="#2F3D33"/>
<path d="M292.846 200.689L295.411 203.342C295.484 203.424 295.572 203.489 295.671 203.535C295.77 203.581 295.878 203.606 295.987 203.609C296.096 203.612 296.204 203.593 296.305 203.553C296.407 203.513 296.499 203.452 296.576 203.375C296.653 203.298 296.714 203.206 296.754 203.105C296.794 203.003 296.814 202.895 296.81 202.786C296.807 202.677 296.782 202.57 296.736 202.471C296.69 202.372 296.625 202.284 296.543 202.211L293.978 199.555C293.904 199.479 293.815 199.418 293.717 199.376C293.619 199.334 293.514 199.312 293.408 199.312C293.301 199.311 293.196 199.331 293.097 199.372C292.999 199.412 292.909 199.472 292.834 199.547C292.759 199.622 292.7 199.712 292.659 199.81C292.619 199.909 292.599 200.014 292.6 200.121C292.601 200.227 292.623 200.332 292.666 200.43C292.708 200.527 292.769 200.616 292.846 200.689Z" fill="#2F3D33"/>
<path d="M140.607 372.567C140.607 372.567 139.478 366.575 141.954 360.603C144.43 354.631 158.875 322.264 158.875 322.264C158.875 322.264 157.002 312.309 160.799 307.173C164.596 302.036 173.085 283.533 168.566 276.699C164.048 269.865 169.849 276.423 169.849 276.423C169.849 276.423 156.447 284.267 155.004 275.103C153.561 265.94 155.581 255.821 151.252 251.557C146.922 247.292 129.376 235.216 134.575 223.262C139.774 211.308 157.666 198.315 158.737 191.638C159.808 184.961 160.093 159.985 171.786 151.991C183.479 143.997 199.027 147.108 199.027 148.348C199.027 149.588 210.203 129.38 226.909 129.108C243.614 128.836 245.939 133.517 245.939 133.517C245.939 133.517 272.308 125.292 288.093 146.368C303.878 167.444 297.012 155.115 297.012 155.115C297.012 155.115 313.47 153.946 319.025 163.728C324.579 173.51 332.321 197.659 334.672 201.35C337.023 205.041 348.167 220.151 346.576 227.985C344.986 235.819 335.974 249.513 333.027 252.656C330.079 255.799 326.135 269.637 327.132 272.841C328.13 276.045 325.33 284.203 325.33 284.203C325.33 284.203 333.123 299.207 334.746 302.101C336.368 304.994 337.654 314.769 334.848 320.761C333.183 324.337 331.134 327.722 328.739 330.857C328.739 330.857 337.228 338.953 338.158 348.091C339.088 357.229 337.581 373.189 337.581 373.189L140.607 372.567Z" fill="white"/>
<path opacity="0.5" d="M219.847 193.24C219.847 193.24 208.549 204.035 210.184 209.44C211.82 214.845 214.116 223.182 214.116 223.182L225.251 233.163L232.13 237.254L240.318 231.035L252.437 221.711L252.758 215.656L257.248 209.767L253.72 197.495L244.872 192.215C244.872 192.215 224.27 189.152 219.847 193.24Z" fill="#2F3D33"/>
<path opacity="0.5" d="M216.861 258.762C216.861 258.762 213.43 278.647 210.255 285.676C207.08 292.706 202.352 312.709 209.392 321.379C216.431 330.049 220.084 338.232 230.703 338.066C241.321 337.899 255.076 337.575 257.536 325.797C259.996 314.019 252.95 296.346 252.95 296.346L259.387 262.316L246.238 258.224L234.025 249.304C234.025 249.304 226.537 249.099 216.861 258.762Z" fill="#ED564E"/>
<path opacity="0.5" d="M259.13 260.772C259.13 260.772 267.815 259.192 270.326 257.488C272.837 255.783 279.947 248.17 279.947 248.17C279.947 248.17 286.826 245.473 286.826 248.661C286.826 251.849 276.756 265.594 276.756 265.594L271.888 278.779L266.93 288.91C266.93 288.91 259.313 291.364 257.594 294.062C255.875 296.76 253.611 289.897 253.611 289.897L259.13 260.772Z" fill="#2F3D33"/>
<path opacity="0.5" d="M218.08 261.322L211.355 284.811L207.022 281.687L204.466 277.041L195.592 261.322L192.574 252.659L193.251 244.203L198.648 245.78L203.587 261.322L210.255 263.101L218.08 261.322Z" fill="#2F3D33"/>
<path d="M270.576 177.61C270.576 177.61 275.653 170.738 281.547 172.702C287.442 174.666 289.408 182.355 289.408 182.355C289.408 182.355 282.352 184.81 278.6 183.499C274.848 182.189 273.36 182.192 270.576 177.61Z" fill="#2F3D33"/>
<path d="M208.754 178.116C208.754 178.116 208.263 169.347 203.597 170.574C198.931 171.801 194.508 180.144 194.508 180.144C194.508 180.144 205.069 184.185 208.754 178.116Z" fill="#2F3D33"/>
<path d="M228.756 210.332C228.65 215.11 228.776 219.896 228.974 224.671C229.202 230.137 229.539 235.606 230.148 241.043C230.443 243.67 230.79 246.304 231.322 248.89C231.582 250.123 233.099 250.953 234.282 250.569C234.889 250.387 235.402 249.978 235.715 249.428C236.028 248.878 236.116 248.228 235.963 247.615C235.642 246.077 235.398 244.526 235.19 242.972L235.276 243.613C234.68 239.159 234.33 234.67 234.064 230.185C233.792 225.62 233.622 221.049 233.554 216.471C233.528 214.427 233.522 212.38 233.554 210.336C233.549 209.7 233.294 209.092 232.844 208.642C232.394 208.192 231.785 207.938 231.149 207.933C230.514 207.944 229.909 208.201 229.461 208.649C229.012 209.097 228.755 209.702 228.743 210.336L228.756 210.332Z" fill="#2F3D33"/>
<path d="M257.956 201.64C256.818 198.974 254.942 196.61 252.953 194.524C251.617 193.087 250.141 191.786 248.547 190.64C247.107 189.706 245.487 189.085 243.791 188.817C241.944 188.495 240.079 188.281 238.207 188.177C234.612 187.942 231.003 188.049 227.428 188.497C223.92 188.936 220.373 189.596 217.41 191.659C214.935 193.443 212.873 195.738 211.364 198.388C209.851 200.951 208.715 203.719 207.67 206.491C207.028 208.247 206.429 210.131 206.541 212.027C206.613 213.895 207.374 215.669 208.677 217.01C209.293 217.632 210.043 218.106 210.87 218.396C211.697 218.686 212.579 218.784 213.449 218.682C215.052 218.484 216.717 218.067 218.064 217.16C219.555 216.161 220.748 214.78 221.21 213.014C221.704 211.121 221.335 209.291 220.569 207.545C220.45 207.267 220.309 207 220.148 206.744V209.16C220.325 208.9 219.632 209.781 219.876 209.512C219.969 209.41 220.059 209.307 220.161 209.214C220.264 209.121 220.302 209.093 220.37 209.028C220.572 208.852 219.991 209.31 220.033 209.291C220.082 209.262 220.128 209.228 220.171 209.192C220.398 209.043 220.637 208.913 220.886 208.804L220.312 209.048C220.697 208.89 221.1 208.783 221.511 208.727L220.87 208.814C221.39 208.748 221.915 208.748 222.435 208.814L221.794 208.727C221.946 208.752 222.095 208.792 222.239 208.846L221.665 208.605C221.803 208.663 221.922 208.746 222.053 208.814C221.537 208.545 221.643 208.493 221.835 208.666C221.887 208.718 221.932 208.778 221.986 208.83C222.134 208.977 221.62 208.285 221.8 208.602C221.839 208.67 221.883 208.734 221.922 208.801C222.009 208.958 222.087 209.119 222.156 209.285L221.912 208.711C222.192 209.455 222.377 210.231 222.464 211.021L222.381 210.381C222.503 211.235 222.514 212.102 222.413 212.96L222.499 212.319C222.407 212.979 222.231 213.625 221.976 214.241L222.22 213.665C222.065 214.032 221.878 214.386 221.662 214.722C221.617 214.796 221.566 214.866 221.518 214.94C221.271 215.308 221.665 214.735 221.675 214.744C221.561 214.892 221.439 215.034 221.309 215.167C221.197 215.286 221.075 215.401 220.953 215.51C220.892 215.565 220.825 215.613 220.767 215.67C221.293 215.177 221.123 215.404 220.947 215.526C220.666 215.721 220.366 215.889 220.052 216.026L220.626 215.783C220.298 215.922 219.953 216.019 219.6 216.071L220.241 215.988C218.939 216.157 217.65 215.869 216.355 215.824C215.01 215.742 213.666 216.008 212.455 216.596C210.473 217.638 209.889 219.98 210.531 222.002C211.108 223.793 212.272 225.331 213.212 226.939C213.766 227.988 214.41 228.987 215.136 229.925C215.845 230.734 216.667 231.438 217.576 232.014C219.501 233.296 221.746 234.065 223.875 234.959L223.301 234.718C224.324 235.134 225.319 235.616 226.28 236.16C226.514 236.298 226.742 236.442 226.97 236.593C227.197 236.743 227.932 237.339 227.217 236.75C227.64 237.105 228.038 237.474 228.426 237.868C229.612 239.073 231.049 240.265 232.823 240.335C233.356 240.349 233.886 240.248 234.376 240.04C234.867 239.831 235.307 239.52 235.667 239.127C236.344 238.397 236.591 237.484 236.95 236.59L236.706 237.163C236.799 236.943 236.906 236.728 237.027 236.522C237.088 236.423 237.162 236.33 237.223 236.231C237.325 236.071 236.783 236.759 237.13 236.362C237.284 236.185 237.449 236.018 237.624 235.862C237.697 235.795 237.778 235.731 237.855 235.667C238.175 235.401 237.316 236.045 237.733 235.763C238.549 235.223 239.415 234.763 240.321 234.392L239.747 234.632C241.616 233.847 243.56 233.2 245.288 232.114C247.192 230.874 248.937 229.406 250.484 227.743C251.234 226.965 251.959 226.164 252.681 225.359C253.526 224.487 254.266 223.519 254.887 222.476C255.561 221.242 256.077 219.711 255.628 218.311C255.422 217.713 255.095 217.164 254.666 216.699C254.238 216.233 253.718 215.861 253.139 215.606C251.856 215.014 250.407 214.517 248.97 214.507C248.256 214.506 247.547 214.621 246.87 214.847C246.349 215.038 245.812 215.182 245.266 215.279L245.907 215.193C245.305 215.272 244.695 215.272 244.092 215.193L244.734 215.279C244.172 215.198 243.623 215.047 243.098 214.831L243.675 215.074C243.382 214.949 243.099 214.801 242.829 214.632C242.729 214.571 242.306 214.261 242.655 214.533C243.005 214.805 242.553 214.437 242.473 214.36C242.392 214.283 242.258 214.152 242.152 214.04C242.117 213.998 242.056 213.889 242.004 213.87C242.043 213.87 242.354 214.354 242.178 214.084C241.989 213.808 241.826 213.515 241.69 213.21L241.934 213.783C241.766 213.372 241.649 212.941 241.588 212.502L241.674 213.142C241.613 212.664 241.613 212.179 241.674 211.701L241.588 212.341C241.661 211.824 241.8 211.318 242.001 210.835L241.812 211.403C241.932 211.128 242.072 210.864 242.232 210.611C242.357 210.419 242.704 210.108 242.184 210.643C242.29 210.534 242.38 210.413 242.485 210.304C242.591 210.195 242.758 210.031 242.902 209.903L243.124 209.714C242.803 209.945 242.768 209.986 242.967 209.839C243.237 209.656 243.521 209.494 243.816 209.355L243.242 209.596C243.532 209.473 243.836 209.387 244.147 209.339L243.505 209.426C243.755 209.395 244.007 209.395 244.256 209.426L243.614 209.339C243.882 209.38 244.144 209.453 244.394 209.557L243.82 209.314C243.941 209.371 244.063 209.429 244.182 209.499C244.289 209.586 244.403 209.661 244.525 209.724C244.525 209.724 244.034 209.317 244.256 209.522C244.31 209.576 244.371 209.624 244.429 209.679C244.487 209.733 244.631 209.877 244.724 209.983C244.769 210.031 244.807 210.083 244.849 210.131C245.054 210.358 244.657 209.887 244.653 209.871C244.669 209.967 244.843 210.137 244.9 210.227C245.066 210.487 245.216 210.756 245.349 211.034L246.212 207.747C244.817 208.567 243.903 209.781 243.739 211.406C243.683 212.542 244.023 213.663 244.702 214.578C245.417 215.593 246.305 216.632 247.444 217.205C248.528 217.771 249.753 218.013 250.971 217.904C253.364 217.66 255.326 216.459 257.164 214.985C257.762 214.519 258.252 213.93 258.601 213.258C259.044 212.282 259.298 211.232 259.351 210.163C259.611 207.463 259.217 204.741 258.203 202.226C258.016 201.632 257.624 201.123 257.097 200.791C256.824 200.631 256.523 200.527 256.21 200.484C255.897 200.441 255.578 200.46 255.273 200.54C254.967 200.62 254.68 200.759 254.428 200.95C254.177 201.141 253.965 201.38 253.806 201.653C253.527 202.181 253.322 202.934 253.566 203.505C254.058 204.701 254.393 205.955 254.563 207.237L254.477 206.597C254.643 207.931 254.643 209.28 254.477 210.614L254.563 209.974C254.509 210.412 254.401 210.843 254.242 211.255L254.486 210.682C254.424 210.826 254.352 210.967 254.271 211.101C254.143 211.303 253.931 211.422 254.464 210.877C254.412 210.928 254.371 210.986 254.323 211.041C254.221 211.153 254.114 211.26 254.002 211.361C253.938 211.419 253.877 211.47 253.813 211.521C253.521 211.768 254.368 211.111 253.983 211.393C253.203 212.003 252.357 212.526 251.462 212.95L252.036 212.707C251.523 212.924 250.984 213.076 250.433 213.158L251.074 213.072C250.659 213.125 250.238 213.125 249.823 213.072L250.465 213.155C250.135 213.105 249.812 213.016 249.502 212.889L250.08 213.133C249.83 213.021 249.618 212.854 249.381 212.732C249.701 212.992 249.775 213.053 249.586 212.88C249.522 212.822 249.458 212.764 249.397 212.703C249.283 212.595 249.176 212.482 249.076 212.367C248.973 212.258 248.88 212.146 248.781 212.047C248.483 211.707 249.134 212.543 248.826 212.098C248.67 211.871 248.535 211.631 248.422 211.38L248.665 211.954C248.576 211.748 248.512 211.533 248.473 211.313L248.56 211.954C248.537 211.774 248.537 211.592 248.56 211.412L248.473 212.053C248.499 211.906 248.54 211.762 248.598 211.624L248.354 212.197C248.396 212.111 248.444 212.031 248.489 211.947C248.672 211.627 248.04 212.421 248.402 212.075C248.473 212.011 248.807 211.736 248.463 212.002C248.12 212.268 248.569 211.954 248.649 211.906C249.186 211.585 249.581 211.071 249.753 210.47C249.896 209.844 249.811 209.187 249.512 208.618C248.675 206.869 247.091 205.171 245.125 204.754C242.36 204.165 239.852 205.744 238.275 207.923C237.623 208.861 237.184 209.93 236.987 211.054C236.789 212.179 236.839 213.333 237.133 214.437C237.79 216.875 239.679 218.602 241.976 219.512C243.064 219.931 244.229 220.116 245.394 220.057C246.065 220.027 246.73 219.927 247.379 219.759C247.939 219.565 248.508 219.401 249.086 219.269L248.444 219.355C248.788 219.313 249.136 219.313 249.48 219.355L248.839 219.269C249.626 219.386 250.395 219.601 251.128 219.909L250.554 219.666C250.702 219.73 250.853 219.797 250.997 219.874C251.141 219.951 251.603 220.278 251.228 219.983C250.769 219.624 251.327 220.111 251.334 220.111C251.34 220.111 250.991 219.586 251.122 219.842C251.161 219.922 251.205 219.996 251.244 220.079L251.003 219.506C251.045 219.619 251.077 219.736 251.1 219.855L251.013 219.214C251.032 219.381 251.032 219.55 251.013 219.717L251.096 219.076C251.04 219.406 250.945 219.729 250.814 220.038L251.058 219.464C250.777 220.051 250.442 220.611 250.057 221.136C250.474 220.496 250.137 221.024 250.022 221.165L249.762 221.467C249.531 221.732 249.294 221.995 249.057 222.258C248.181 223.219 247.296 224.18 246.366 225.119C245.885 225.593 245.404 226.055 244.884 226.497C244.647 226.702 244.406 226.904 244.16 227.099L243.951 227.263C244.272 227.026 244.317 226.981 244.118 227.131L243.797 227.368C242.767 228.099 241.661 228.714 240.497 229.204L241.071 228.961C239.346 229.688 237.524 230.268 235.914 231.245C235.088 231.72 234.343 232.326 233.711 233.04C233.329 233.472 232.996 233.946 232.72 234.452C232.435 235.013 232.242 235.606 232.011 236.189L232.252 235.612C232.21 235.715 231.979 236.026 231.979 236.125C231.979 236.087 232.358 235.66 232.124 235.898C232.521 235.494 232.502 235.628 232.268 235.744L232.842 235.503C232.726 235.552 232.604 235.587 232.48 235.606L233.121 235.519C232.996 235.532 232.87 235.532 232.746 235.519L233.387 235.606C233.19 235.571 232.997 235.513 232.813 235.433L233.387 235.676C233.152 235.564 232.926 235.433 232.71 235.286C232.39 235.058 233.204 235.696 232.71 235.286C232.617 235.209 232.528 235.129 232.435 235.045C232.047 234.69 231.694 234.299 231.309 233.933C230.507 233.183 229.621 232.527 228.67 231.979C226.858 230.925 224.866 230.21 222.942 229.4L223.516 229.64C222.665 229.293 221.834 228.901 221.024 228.467C220.634 228.256 220.255 228.025 219.889 227.775C219.693 227.641 219.116 227.134 219.789 227.721C219.616 227.577 219.44 227.436 219.276 227.285C219.113 227.134 218.997 227.019 218.866 226.881C218.734 226.744 218.574 226.452 218.423 226.372C218.423 226.372 218.811 226.901 218.622 226.625L218.535 226.506L218.372 226.26C218.24 226.055 218.125 225.843 218.009 225.619C217.438 224.571 216.816 223.552 216.188 222.537C215.777 221.917 215.414 221.267 215.104 220.592L215.344 221.165C215.19 220.791 215.082 220.4 215.024 219.999L215.11 220.64C215.086 220.427 215.086 220.212 215.11 219.999L215.024 220.64C215.045 220.488 215.085 220.34 215.142 220.198L214.873 220.758C214.911 220.672 214.969 220.592 215.008 220.505C215.113 220.275 214.581 220.973 214.777 220.8C214.814 220.765 214.85 220.728 214.882 220.688C215.126 220.406 214.276 221.095 214.716 220.823C214.834 220.75 214.957 220.685 215.085 220.63L214.51 220.874C214.862 220.735 215.229 220.641 215.604 220.592L214.963 220.678C216.13 220.528 217.275 220.701 218.439 220.794C219.876 220.937 221.324 220.693 222.634 220.086C224.696 219.105 226.133 217.035 226.822 214.917C227.199 213.729 227.35 212.48 227.268 211.236C227.213 210.125 227.031 209.025 226.726 207.955C226.379 206.644 225.595 205.49 224.504 204.684C223.378 203.899 221.848 203.851 220.533 204.043C219.627 204.147 218.753 204.44 217.968 204.904C217.183 205.368 216.504 205.991 215.976 206.734C215.757 207.101 215.641 207.52 215.641 207.947C215.641 208.374 215.757 208.793 215.976 209.16C216.169 209.466 216.336 209.787 216.476 210.121L216.233 209.547C216.448 210.061 216.599 210.599 216.682 211.149L216.598 210.509C216.65 210.927 216.65 211.35 216.598 211.768L216.685 211.127C216.632 211.518 216.533 211.9 216.39 212.268L216.63 211.694C216.513 211.968 216.372 212.231 216.207 212.479C215.999 212.8 216.281 212.341 216.361 212.29C216.307 212.34 216.259 212.396 216.217 212.457C216.104 212.582 215.986 212.7 215.861 212.816L215.684 212.966C215.482 213.158 216.124 212.646 215.889 212.812C215.745 212.915 215.604 213.017 215.457 213.11C215.194 213.266 214.921 213.403 214.639 213.52L215.213 213.277C214.46 213.592 213.672 213.814 212.865 213.937L213.507 213.851C213.103 213.913 212.694 213.923 212.288 213.879L212.929 213.963C212.678 213.924 212.432 213.857 212.195 213.764L212.769 214.004C212.536 213.904 212.312 213.781 212.102 213.639C211.752 213.405 212.589 214.056 212.205 213.706C212.108 213.62 212.019 213.527 211.929 213.431L211.781 213.261L212.019 213.581C211.915 213.47 211.83 213.344 211.765 213.206C211.629 212.977 211.509 212.738 211.406 212.492L211.65 213.069C211.497 212.681 211.389 212.277 211.329 211.864L211.416 212.505C211.335 211.875 211.335 211.238 211.416 210.608L211.329 211.249C211.65 209.057 212.596 206.939 213.452 204.908L213.208 205.485C213.985 203.594 214.918 201.772 215.999 200.038C216.266 199.611 216.546 199.201 216.839 198.808C216.919 198.695 217.002 198.586 217.086 198.487C217.233 198.288 216.861 198.759 216.89 198.74C216.932 198.699 216.968 198.653 216.999 198.602C217.159 198.404 217.32 198.205 217.49 198.013C218.131 197.282 218.831 196.606 219.584 195.991C219.869 195.76 219.116 196.344 219.513 196.049L219.892 195.776C220.12 195.623 220.347 195.475 220.581 195.331C221.112 195.015 221.663 194.733 222.23 194.488L221.656 194.732C223.567 193.987 225.568 193.499 227.608 193.281L226.967 193.367C231.917 192.713 236.932 192.713 241.883 193.367L241.241 193.281C242.586 193.435 243.906 193.758 245.17 194.242L244.593 194.001C245.144 194.229 245.668 194.516 246.158 194.857C246.228 194.905 246.295 194.956 246.363 195.008C246.43 195.059 246.683 195.241 246.27 194.934C245.856 194.626 246.122 194.822 246.218 194.895C246.786 195.347 247.331 195.825 247.867 196.312C248.608 196.997 249.326 197.709 250.006 198.455C250.375 198.856 250.734 199.269 251.08 199.689L251.347 200.009L251.494 200.198C251.654 200.397 251.276 199.916 251.305 199.948C251.5 200.182 251.674 200.438 251.847 200.685C252.618 201.749 253.271 202.893 253.797 204.097C254.018 204.61 254.724 205.059 255.233 205.203C255.859 205.369 256.525 205.281 257.087 204.959C257.629 204.643 258.026 204.128 258.194 203.524C258.335 202.887 258.251 202.222 257.956 201.64Z" fill="#2F3D33"/>
<path d="M245.863 129.12C240.283 125.831 233.823 124.343 227.365 124.859C224.151 125.097 220.995 125.834 218.01 127.044C214.719 128.406 211.765 130.315 208.898 132.411C203.584 136.3 198.431 140.699 195.246 146.572C193.562 149.668 192.411 153.022 191.224 156.332C190.945 157.114 190.66 157.896 190.365 158.671C190.233 159.023 190.095 159.376 189.958 159.728C189.874 159.936 189.788 160.145 189.701 160.369C189.589 160.645 189.586 160.648 189.701 160.369L189.537 160.744C188.938 162.128 188.28 163.487 187.594 164.832C184.708 170.465 181.318 175.832 178.861 181.679C177.673 184.41 176.818 187.273 176.315 190.208C175.744 193.826 175.891 197.34 176.392 200.958C176.642 202.768 176.963 204.572 177.251 206.376C177.315 206.77 177.376 207.164 177.434 207.555C177.469 207.792 177.505 208.029 177.537 208.263C177.646 209.019 177.511 208 177.562 208.452C177.662 209.359 177.771 210.266 177.829 211.175C178.059 214.87 177.553 218.545 177.232 222.21C177.033 224.479 176.931 226.654 177.254 228.903C177.497 230.507 177.826 232.096 178.239 233.665C179.343 238.01 180.836 242.248 182.7 246.327C183.604 248.343 184.665 250.285 185.872 252.136C187.017 253.853 188.316 255.551 189.906 256.881C190.645 257.52 191.451 258.075 192.312 258.538C193.428 259.111 194.97 258.858 195.602 257.676C196.182 256.577 195.923 255 194.739 254.388C194.388 254.209 194.048 254.008 193.723 253.786C193.569 253.683 193.424 253.559 193.267 253.466C193.966 253.901 193.312 253.491 193.133 253.334C192.454 252.737 191.824 252.087 191.25 251.389C191.112 251.223 190.981 251.043 190.84 250.88C191.362 251.482 190.807 250.829 190.692 250.672C190.38 250.244 190.082 249.808 189.797 249.361C189.22 248.467 188.688 247.548 188.194 246.609C187.7 245.67 187.212 244.687 186.767 243.696C186.651 243.44 186.539 243.184 186.427 242.927C186.385 242.835 186.343 242.742 186.305 242.649C186.209 242.431 186.218 242.104 186.305 242.649C186.221 242.143 185.859 241.566 185.663 241.088C184.881 239.072 184.185 237.026 183.576 234.949C183.059 233.19 182.613 231.425 182.238 229.618C182.1 228.939 181.991 228.256 181.882 227.571C181.837 227.285 181.969 228.291 181.93 227.92C181.93 227.843 181.908 227.763 181.901 227.683C181.895 227.603 181.873 227.436 181.86 227.314C181.841 227.077 181.821 226.84 181.815 226.603C181.725 223.248 182.312 219.874 182.559 216.539C182.784 212.868 182.583 209.183 181.959 205.559C181.696 203.867 181.395 202.185 181.141 200.493C181.113 200.295 181.084 200.099 181.058 199.904C181.035 199.804 181.021 199.702 181.016 199.599C180.971 199.205 180.923 198.811 180.885 198.417C180.795 197.552 180.734 196.684 180.712 195.815C180.689 194.947 180.712 194.162 180.753 193.339C180.777 193.003 180.806 192.667 180.84 192.329C180.859 192.127 180.885 191.929 180.907 191.73C180.856 192.16 180.907 191.788 180.933 191.573C181.154 190.124 181.475 188.691 181.895 187.286C182.322 185.873 182.835 184.492 183.399 183.121C183.216 183.563 183.354 183.227 183.399 183.137C183.479 182.951 183.56 182.765 183.643 182.579C183.781 182.259 183.922 181.961 184.063 181.653C184.406 180.91 184.765 180.176 185.134 179.446C186.472 176.799 187.94 174.217 189.374 171.622C190.84 168.969 192.279 166.297 193.508 163.522C194.89 160.398 195.955 157.159 197.157 153.964C197.42 153.259 197.696 152.559 197.985 151.862C197.792 152.327 198.084 151.641 198.097 151.606L198.28 151.196C198.466 150.786 198.658 150.379 198.86 149.975C199.572 148.54 200.403 147.166 201.343 145.868C201.468 145.695 201.596 145.525 201.724 145.358C201.448 145.72 201.724 145.358 201.804 145.259C202.045 144.938 202.292 144.653 202.545 144.358C203.056 143.769 203.583 143.195 204.126 142.638C205.22 141.516 206.371 140.459 207.574 139.434C208.122 138.976 208.677 138.524 209.235 138.085C209.277 138.05 209.838 137.614 209.424 137.934C209.594 137.803 209.764 137.672 209.937 137.543C210.277 137.284 210.621 137.031 210.964 136.775C212.32 135.775 213.693 134.798 215.133 133.891C216.466 133.038 217.859 132.283 219.302 131.632C219.373 131.6 220.001 131.344 219.482 131.552L220.052 131.324C220.373 131.203 220.694 131.087 221.015 130.978C221.727 130.735 222.445 130.521 223.17 130.338C223.895 130.154 224.628 129.998 225.37 129.87C225.53 129.841 226.531 129.694 225.947 129.77C226.351 129.716 226.758 129.671 227.166 129.636C228.659 129.505 230.16 129.486 231.656 129.578C231.996 129.601 232.335 129.626 232.675 129.662L233.288 129.726C233.753 129.777 233.346 129.726 233.256 129.726C234.067 129.838 234.875 129.982 235.674 130.161C237.105 130.482 238.509 130.911 239.875 131.443L240.35 131.635C239.827 131.421 240.456 131.683 240.526 131.715C240.847 131.853 241.145 132 241.453 132.151C242.127 132.471 242.784 132.843 243.429 133.228C244.509 133.868 246.116 133.506 246.719 132.366C247.029 131.813 247.113 131.161 246.952 130.548C246.791 129.935 246.398 129.408 245.856 129.078L245.863 129.12Z" fill="#2F3D33"/>
<path d="M257.174 300.796C257.633 299.117 257.748 297.387 258.059 295.669C258.133 295.269 258.216 294.871 258.319 294.481C258.377 294.263 258.441 294.045 258.508 293.84L258.617 293.519C258.704 293.263 258.832 293.266 258.508 293.76C258.572 293.663 258.614 293.548 258.675 293.439C258.736 293.33 258.996 293.016 258.691 293.394C258.386 293.772 258.691 293.417 258.765 293.34C258.838 293.263 258.964 293.154 259.066 293.068C259.339 292.827 258.54 293.436 258.909 293.189C259.015 293.122 259.121 293.048 259.23 292.984C259.47 292.84 259.717 292.709 259.971 292.59L260.291 292.44C260.548 292.324 259.743 292.664 260.006 292.561L260.201 292.484C260.468 292.379 260.737 292.279 261.006 292.183C262.251 291.738 263.505 291.328 264.707 290.77C267.51 289.466 269.271 286.605 270.535 283.91C271.951 280.852 273.197 277.718 274.268 274.523C274.736 273.129 275.185 271.729 275.663 270.357C275.9 269.672 276.144 268.989 276.407 268.31C276.529 267.99 276.657 267.669 276.782 267.365C276.929 266.999 276.711 267.535 276.699 267.563C276.737 267.48 276.769 267.397 276.804 267.313L277.054 266.75C277.667 265.399 278.385 264.099 279.2 262.86C279.421 262.539 279.649 262.197 279.886 261.876L280.207 261.444C280.396 261.191 279.915 261.809 280.117 261.562L280.364 261.242C280.81 260.694 281.265 260.152 281.714 259.611C283.847 257.048 285.916 254.411 287.166 251.28C287.808 249.704 288.128 247.913 287.808 246.231C287.665 245.58 287.357 244.978 286.911 244.483C286.466 243.987 285.9 243.616 285.268 243.405C284.302 243.12 283.274 243.12 282.308 243.405C279.367 244.171 276.804 246.074 274.662 248.16C273.722 249.076 272.834 250.041 271.914 250.976C271.458 251.437 270.993 251.892 270.515 252.331C270.278 252.545 270.037 252.759 269.794 252.972L269.396 253.293C269.332 253.347 269.255 253.398 269.191 253.456C269.309 253.344 269.624 253.136 269.316 253.36C268.167 254.209 266.928 254.93 265.621 255.51C265.483 255.574 265.339 255.628 265.201 255.696C265.872 255.375 265.352 255.632 265.169 255.696C264.848 255.824 264.528 255.946 264.185 256.061C263.52 256.292 262.849 256.492 262.174 256.663C261.498 256.834 260.812 256.978 260.115 257.096L259.595 257.179C259.438 257.202 259.14 257.221 259.845 257.147L259.586 257.179C259.235 257.222 258.886 257.257 258.537 257.285C257.137 257.395 255.73 257.395 254.329 257.285C254.009 257.259 253.688 257.227 253.345 257.192L252.886 257.134C253.717 257.234 252.947 257.134 252.745 257.105C252.072 256.996 251.405 256.865 250.741 256.705C250.077 256.545 249.384 256.349 248.717 256.135C248.396 256.032 248.076 255.923 247.784 255.814L247.293 255.628L247.046 255.529C246.96 255.494 246.584 255.337 246.969 255.5C247.354 255.664 246.867 255.452 246.777 255.414L246.299 255.196C245.978 255.036 245.629 254.875 245.298 254.699C244.7 254.381 244.113 254.041 243.538 253.68C242.944 253.302 242.386 252.882 241.815 252.476C242.418 252.908 241.931 252.562 241.787 252.444C241.642 252.325 241.517 252.219 241.383 252.123C241.113 251.892 240.85 251.659 240.59 251.418C238.127 249.15 235.626 246.647 232.105 246.356C230.238 246.202 228.436 246.997 226.941 248.051C225.447 249.105 223.949 250.258 222.451 251.364L213.353 258.118C212.704 258.617 212.027 259.081 211.326 259.505C211.028 259.678 210.72 259.826 210.409 259.976C210.098 260.127 210.9 259.79 210.614 259.887L210.367 259.976C210.181 260.037 209.992 260.092 209.8 260.136C209.687 260.165 209.158 260.245 209.607 260.191C210.056 260.136 209.428 260.191 209.335 260.191C209.177 260.191 209.014 260.191 208.863 260.191C208.772 260.175 208.68 260.168 208.587 260.168C208.97 260.226 209.066 260.239 208.876 260.207C208.802 260.207 208.732 260.184 208.661 260.168C208.285 260.092 207.916 259.985 207.558 259.848C207.41 259.794 207.263 259.723 207.112 259.675C207.811 259.89 207.221 259.717 207.019 259.621C206.407 259.326 205.822 258.978 205.271 258.579C204.822 258.259 205.691 258.925 205.271 258.579C205.162 258.49 205.05 258.397 204.951 258.304C204.691 258.076 204.441 257.839 204.203 257.589C203.966 257.339 203.79 257.144 203.597 256.91C203.472 256.759 203.183 256.285 203.597 256.91C203.498 256.759 203.379 256.615 203.276 256.465C202.915 255.941 202.586 255.396 202.289 254.834C202.132 254.536 201.968 254.238 201.843 253.933L201.634 253.472C201.602 253.395 201.509 253.174 201.657 253.523C201.804 253.873 201.657 253.546 201.631 253.456C201.346 252.751 201.102 252.033 200.858 251.313C200.278 249.595 199.729 247.868 199.255 246.122C198.783 244.424 198.373 242.713 198.043 240.996C197.805 239.752 196.247 238.945 195.082 239.317C193.358 239.83 191.851 240.895 190.791 242.348C189.849 243.652 189.473 245.231 189.329 246.833C189.231 248.447 189.369 250.066 189.74 251.639C190.081 253.231 190.55 254.793 191.141 256.311C192.391 259.533 193.917 262.642 195.701 265.603C196.817 267.474 198.139 269.207 199.322 271.033C200.332 272.597 201.647 273.987 202.51 275.644C202.625 275.865 202.831 276.567 202.59 275.772C202.657 275.987 202.747 276.195 202.811 276.413C202.885 276.663 202.943 276.916 202.988 277.172C203.023 277.374 202.988 277.643 202.969 276.974C202.969 277.153 203.007 277.333 203.017 277.512C203.052 278.076 202.997 278.643 203.049 279.207C203.101 279.911 203.224 280.609 203.414 281.289C204.123 283.715 205.618 286.182 207.622 287.752C208.085 288.184 208.689 288.434 209.322 288.457C209.959 288.452 210.57 288.199 211.025 287.752C211.817 286.887 212.083 285.189 211.025 284.353C210.666 284.071 210.329 283.763 210.018 283.43C209.867 283.266 209.719 283.109 209.581 282.93C209.444 282.751 209.376 282.475 209.62 282.988C209.548 282.875 209.468 282.768 209.379 282.667C209.101 282.265 208.847 281.847 208.619 281.414C208.501 281.19 208.392 280.956 208.283 280.726C208.116 280.367 208.36 280.886 208.366 280.918C208.315 280.743 208.251 280.573 208.174 280.408C208.036 279.989 207.929 279.561 207.853 279.127C207.76 278.653 207.901 279.748 207.853 279.271C207.853 279.168 207.853 279.066 207.834 278.967C207.834 278.675 207.834 278.38 207.834 278.089C207.842 277.014 207.685 275.944 207.369 274.917C206.772 273.087 205.643 271.652 204.518 270.111C203.876 269.233 203.302 268.307 202.686 267.41C201.997 266.407 201.262 265.436 200.608 264.407C198.952 261.822 197.502 259.111 196.272 256.298L196.138 255.978C196.433 256.644 196.308 256.388 196.247 256.237C196.16 256.029 196.073 255.817 195.99 255.596C195.836 255.212 195.685 254.824 195.544 254.436C195.265 253.674 195.009 252.905 194.787 252.126C194.585 251.415 194.409 250.701 194.271 249.976C194.233 249.778 194.197 249.579 194.165 249.377L194.136 249.182C194.072 248.762 194.217 249.848 194.168 249.429C194.13 249.083 194.095 248.733 194.079 248.381C194.063 248.028 194.056 247.654 194.079 247.288C194.079 247.112 194.098 246.939 194.117 246.763C194.117 246.676 194.14 246.593 194.143 246.506C194.085 247.372 194.075 246.987 194.114 246.769C194.17 246.433 194.25 246.101 194.354 245.776C194.403 245.625 194.467 245.481 194.518 245.331C194.229 246.176 194.383 245.651 194.518 245.411C194.589 245.274 194.667 245.141 194.752 245.013L194.858 244.853C195.098 244.494 194.451 245.337 194.691 245.065C194.9 244.833 195.121 244.611 195.352 244.401C195.628 244.155 194.807 244.786 195.118 244.578C195.185 244.533 195.249 244.485 195.32 244.44C195.458 244.347 195.602 244.26 195.75 244.18C195.897 244.1 196.07 244.033 196.224 243.953C195.426 244.379 196.083 244.02 196.343 243.953L193.386 242.277C194.098 245.808 195.051 249.286 196.24 252.687C197.225 255.593 198.44 258.374 200.509 260.681C201.504 261.785 202.673 262.719 203.969 263.446C205.525 264.318 207.279 264.975 209.078 265.007C212.744 265.071 215.617 262.398 218.378 260.354L227.483 253.607C228.176 253.094 228.862 252.562 229.577 252.075C229.913 251.839 230.263 251.625 230.626 251.434C230.721 251.398 230.812 251.353 230.899 251.3C230.899 251.3 230.427 251.473 230.674 251.393C230.921 251.313 231.101 251.242 231.316 251.191C231.407 251.159 231.502 251.14 231.598 251.133C231.598 251.133 230.956 251.181 231.348 251.168C231.518 251.168 231.688 251.149 231.861 251.168C231.967 251.168 232.502 251.229 232.044 251.168C231.585 251.107 232.226 251.216 232.339 251.245C232.502 251.29 232.659 251.341 232.823 251.399L233.003 251.466C233.282 251.566 232.512 251.239 232.781 251.373C233.102 251.543 233.445 251.713 233.763 251.912C234.08 252.11 234.324 252.293 234.6 252.495C234.875 252.697 234.205 252.174 234.439 252.373L234.603 252.501L235.087 252.908C235.652 253.395 236.197 253.908 236.745 254.417C237.873 255.483 239.078 256.465 240.35 257.355C242.809 259.028 245.523 260.291 248.387 261.094C254.012 262.696 260.253 262.616 265.779 260.617C268.736 259.577 271.46 257.967 273.796 255.878C275.74 254.126 277.394 252.078 279.389 250.383L279.71 250.111L279.902 249.957C280.204 249.714 279.71 250.111 279.707 250.108C279.704 250.105 280.499 249.544 280.566 249.499C281.119 249.138 281.697 248.817 282.295 248.538L282.532 248.429C282.885 248.262 282.356 248.506 282.327 248.512C282.5 248.464 282.667 248.378 282.837 248.317C283.174 248.192 283.51 248.105 283.857 247.996C284.251 247.887 283.606 248.022 283.603 248.022C283.688 248.011 283.775 248.011 283.86 248.022C283.895 248.022 284.11 248.022 284.113 248.022C284.116 248.022 283.578 247.9 283.773 247.984C283.863 248.022 284.148 248.118 283.773 247.984C283.26 247.778 283.982 248.182 283.549 247.868C283.472 247.814 283.106 247.311 283.228 247.525C283.35 247.74 283.09 246.929 283.161 247.356C283.187 247.438 283.205 247.523 283.215 247.609C283.18 247.609 283.174 246.942 283.17 247.359C283.17 247.509 283.17 247.66 283.17 247.814C283.17 247.907 283.097 248.528 283.17 248.048C283.244 247.567 283.135 248.23 283.109 248.368C283.042 248.684 282.958 248.996 282.859 249.304C282.811 249.451 282.76 249.595 282.705 249.739C282.676 249.823 282.641 249.906 282.609 249.989C282.442 250.441 282.792 249.592 282.67 249.855C282.018 251.231 281.235 252.541 280.332 253.767C280.12 254.058 279.87 254.337 279.691 254.642C279.713 254.606 280.047 254.187 279.8 254.501C279.739 254.574 279.681 254.651 279.62 254.728L279.264 255.173C278.802 255.747 278.331 256.314 277.863 256.878C276.752 258.169 275.727 259.532 274.794 260.957C273.158 263.549 272.013 266.404 271.022 269.306C270.012 272.254 269.098 275.224 267.902 278.108C267.607 278.822 267.318 279.54 267.02 280.255C266.792 280.806 267.206 279.825 266.972 280.373L266.76 280.854C266.59 281.241 266.414 281.629 266.228 282.01C265.894 282.701 265.522 283.373 265.115 284.023C264.906 284.343 264.682 284.663 264.451 284.984C264.281 285.218 264.348 284.945 264.557 284.849C264.486 284.918 264.424 284.994 264.371 285.077C264.242 285.227 264.114 285.378 263.979 285.522C263.845 285.666 263.736 285.785 263.607 285.91C263.54 285.974 263.37 286.07 263.332 286.153C263.332 286.179 263.803 285.807 263.633 285.919C263.578 285.955 263.53 285.993 263.476 286.031C263.357 286.112 263.235 286.192 263.11 286.265C262.892 286.39 262.671 286.506 262.443 286.615C262.318 286.675 262.19 286.73 262.065 286.788C261.808 286.903 262.613 286.567 262.35 286.666L262.103 286.765C261.042 287.178 259.951 287.502 258.896 287.925C257.613 288.441 256.331 289.021 255.368 290.043C254.201 291.289 253.746 292.952 253.444 294.596C253.143 296.24 253.031 297.925 252.585 299.549C252.264 300.76 252.998 302.218 254.265 302.507C254.88 302.664 255.532 302.577 256.084 302.263C256.636 301.95 257.045 301.436 257.225 300.828L257.174 300.796Z" fill="#2F3D33"/>
<path d="M214.456 258.762C214.514 259.871 214.465 260.983 214.308 262.082L214.395 261.441C214.024 263.898 213.447 266.319 212.67 268.679C211.858 271.29 210.928 273.863 210.001 276.436C209.132 278.842 208.247 281.242 207.497 283.693C207.086 285.032 206.74 286.394 206.339 287.74C205.864 289.319 205.358 290.892 204.893 292.478C203.289 297.96 202.551 303.648 203.138 309.351C203.671 314.535 205.098 319.604 207.708 324.153C210.306 328.702 214.058 332.485 218.587 335.121C222.818 337.523 227.557 338.893 232.419 339.12C236.829 339.358 241.237 338.619 245.327 336.954C247.381 336.137 249.321 335.06 251.1 333.75C252.98 332.339 254.647 330.667 256.051 328.783C258.806 325.076 260.163 320.453 260.221 315.855C260.291 309.376 257.498 303.487 255.843 297.355C255.482 296.073 255.203 294.769 255.006 293.452L255.092 294.093C254.931 292.637 254.891 291.17 254.974 289.707C255.048 287.72 255.221 285.737 255.432 283.76C255.567 282.521 255.718 281.282 255.885 280.043L255.798 280.684C256.574 274.917 257.53 269.111 259.088 263.501C259.341 262.535 259.654 261.586 260.025 260.659L259.781 261.233C259.816 261.149 259.855 261.066 259.893 260.983C260.199 260.416 260.284 259.757 260.134 259.131C259.963 258.529 259.568 258.016 259.031 257.695C257.972 257.138 256.295 257.336 255.737 258.557C254.688 260.861 254.111 263.363 253.556 265.824C252.777 269.288 252.148 272.783 251.61 276.292C251.039 279.995 250.551 283.722 250.288 287.464C250.073 290.479 250.045 293.43 250.667 296.403C251.728 301.475 253.941 306.224 254.967 311.305C255.096 311.946 255.201 312.568 255.288 313.205L255.201 312.564C255.464 314.538 255.471 316.536 255.221 318.511L255.307 317.87C255.072 319.64 254.603 321.37 253.912 323.016L254.153 322.443C253.737 323.42 253.241 324.361 252.668 325.256C252.395 325.685 252.1 326.098 251.796 326.505C251.622 326.742 252.216 325.973 251.898 326.374L251.645 326.694C251.475 326.899 251.299 327.101 251.119 327.303C250.43 328.066 249.686 328.778 248.893 329.434C248.803 329.507 248.71 329.584 248.614 329.658L248.476 329.77C248.178 330.007 248.938 329.418 248.714 329.588C248.489 329.757 248.281 329.908 248.072 330.065C247.642 330.385 247.2 330.658 246.751 330.93C245.735 331.54 244.676 332.076 243.582 332.532L244.156 332.289C241.912 333.227 239.554 333.865 237.143 334.188L237.784 334.102C235.216 334.441 232.614 334.441 230.045 334.102L230.687 334.188C228.205 333.855 225.777 333.196 223.468 332.228L224.042 332.468C222.735 331.915 221.473 331.261 220.267 330.513C219.664 330.142 219.077 329.745 218.506 329.322C218.356 329.213 217.795 328.761 218.465 329.299L218.118 329.024C217.833 328.796 217.554 328.562 217.278 328.319C216.243 327.415 215.278 326.434 214.392 325.384C214.183 325.137 213.985 324.884 213.783 324.631C213.523 324.31 214.103 325.06 213.93 324.82L213.766 324.605L213.446 324.173C213.048 323.622 212.672 323.056 212.317 322.475C211.512 321.16 210.806 319.787 210.207 318.367L210.45 318.94C209.247 316.055 208.43 313.023 208.019 309.924L208.106 310.565C207.635 306.975 207.644 303.339 208.132 299.752L208.045 300.392C208.51 297.022 209.533 293.779 210.534 290.54C211.358 287.865 212.057 285.157 212.958 282.507C214.725 277.326 216.807 272.254 218.195 266.936C218.879 264.305 219.459 261.508 219.283 258.778C219.202 257.525 218.234 256.314 216.877 256.375C215.643 256.43 214.385 257.433 214.472 258.778L214.456 258.762Z" fill="#2F3D33"/>
<path d="M197.706 145.108C189.688 142.727 181.122 143.884 173.832 147.873C167.311 151.502 162.221 157.242 159.401 164.146C157.874 167.812 157.255 171.663 156.957 175.604C156.797 177.77 156.694 179.939 156.437 182.095C156.437 182.095 156.383 182.505 156.415 182.275C156.447 182.044 156.376 182.521 156.37 182.573C156.332 182.819 156.29 183.066 156.248 183.313C156.168 183.771 156.075 184.226 155.972 184.678C155.78 185.53 155.549 186.373 155.286 187.203C155.023 188.032 154.722 188.84 154.398 189.644C154.398 189.682 154.253 189.99 154.366 189.724L154.292 189.897C154.212 190.08 154.128 190.259 154.045 190.442C153.865 190.836 153.679 191.224 153.487 191.611C152.702 193.165 151.827 194.671 150.867 196.123C150.386 196.856 149.882 197.577 149.369 198.292C149.109 198.647 148.846 199.003 148.577 199.355L148.205 199.846C148.041 200.064 148.247 199.791 148.269 199.766C148.182 199.871 148.099 199.98 148.016 200.086C146.909 201.496 145.771 202.864 144.578 204.213C142.211 206.923 139.767 209.551 137.349 212.223C134.655 215.225 131.83 218.279 130.422 222.13C127.535 230.012 133.167 237.711 138.821 242.655C141.451 244.955 144.254 247.064 146.723 249.547C147.329 250.156 147.913 250.784 148.465 251.44C148.59 251.591 148.715 251.742 148.837 251.895C148.898 251.969 148.959 252.046 149.016 252.123C149 252.1 148.782 251.802 148.936 252.023C149.196 252.395 149.468 252.757 149.715 253.138C150.172 253.84 150.578 254.573 150.928 255.333C150.969 255.42 151.008 255.509 151.046 255.596C151.046 255.574 150.899 255.215 150.992 255.471C151.059 255.654 151.133 255.833 151.197 256.019C151.357 256.467 151.495 256.922 151.611 257.384C151.723 257.829 151.79 258.281 151.883 258.73C151.941 259.008 151.883 258.704 151.883 258.656C151.906 258.806 151.922 258.976 151.935 259.111C151.962 259.378 151.985 259.644 152.002 259.909C152.066 260.905 152.066 261.905 152.037 262.904C151.98 264.917 151.806 266.922 151.797 268.938C151.741 271.063 151.993 273.186 152.544 275.24C152.865 276.368 153.397 277.534 154.292 278.329C155.179 279.112 156.256 279.649 157.416 279.889C161.678 280.786 165.927 279.155 169.14 276.365C172.165 273.747 174.175 270.126 175.911 266.579C179.56 259.114 182.193 251.104 183.341 242.87C183.633 240.761 183.858 238.65 183.983 236.526C183.978 235.889 183.724 235.281 183.273 234.831C182.823 234.381 182.214 234.127 181.577 234.122C180.944 234.136 180.339 234.393 179.891 234.841C179.443 235.289 179.185 235.892 179.172 236.526C179.121 237.495 179.049 238.465 178.957 239.435C178.912 239.899 178.861 240.367 178.806 240.832C178.781 241.066 178.749 241.296 178.723 241.53C178.688 241.815 178.723 241.53 178.723 241.473C178.704 241.63 178.681 241.793 178.659 241.94C178.377 243.888 178.014 245.821 177.572 247.74C176.663 251.627 175.459 255.439 173.97 259.143C173.884 259.364 173.794 259.582 173.704 259.8L173.569 260.12C173.569 260.12 173.419 260.489 173.508 260.271C173.598 260.053 173.451 260.408 173.448 260.418C173.399 260.524 173.354 260.633 173.306 260.738C173.197 260.988 173.088 261.241 172.986 261.491C172.588 262.386 172.175 263.272 171.748 264.148C170.943 265.841 170.039 267.485 169.041 269.072C168.801 269.444 168.55 269.812 168.294 270.171L168.098 270.44C168.098 270.44 167.867 270.761 168.018 270.549C168.169 270.338 167.947 270.636 167.935 270.652L167.656 270.995C167.067 271.7 166.424 272.358 165.731 272.962C165.658 273.026 165.231 273.378 165.411 273.247C165.59 273.116 165.135 273.446 165.051 273.5C164.672 273.766 164.278 274.01 163.871 274.231C163.685 274.333 163.496 274.433 163.304 274.525C163.169 274.593 162.717 274.779 163.098 274.628C162.672 274.799 162.236 274.946 161.793 275.067C161.588 275.121 161.383 275.169 161.177 275.214L160.857 275.272C160.818 275.272 160.472 275.33 160.76 275.291C161.049 275.253 160.706 275.291 160.664 275.291L160.344 275.314C160.1 275.314 159.856 275.333 159.612 275.314C159.369 275.294 159.192 275.294 158.971 275.278C158.503 275.24 159.237 275.349 158.775 275.243C158.535 275.189 158.297 275.137 158.063 275.064L157.765 274.961C157.977 275.041 157.974 275.044 157.765 274.939C157.377 274.74 157.916 275.115 157.585 274.83C157.566 274.811 157.335 274.557 157.499 274.756C157.662 274.955 157.457 274.679 157.441 274.65C157.364 274.509 157.207 274.074 157.322 274.445C157.246 274.202 157.162 273.962 157.095 273.718C156.973 273.276 156.877 272.827 156.793 272.376C156.774 272.263 156.755 272.151 156.739 272.036C156.739 272.013 156.684 271.639 156.716 271.905C156.748 272.17 156.716 271.792 156.716 271.77C156.716 271.619 156.684 271.466 156.671 271.315C156.351 267.47 157.053 263.625 156.787 259.761C156.556 256.057 155.246 252.501 153.019 249.531C150.899 246.711 148.308 244.375 145.61 242.123C142.913 239.871 140.2 237.666 137.978 234.93C137.913 234.85 137.577 234.417 137.695 234.577C137.814 234.738 137.49 234.296 137.429 234.212C137.16 233.837 136.897 233.453 136.65 233.062C136.179 232.323 135.759 231.554 135.393 230.758C135.351 230.662 135.306 230.569 135.268 230.473C135.268 230.508 135.402 230.832 135.313 230.572C135.245 230.38 135.165 230.191 135.098 229.999C134.953 229.582 134.825 229.163 134.722 228.733C134.62 228.304 134.549 227.948 134.492 227.551C134.556 227.984 134.492 227.593 134.492 227.391C134.492 227.189 134.463 226.923 134.463 226.686C134.463 226.279 134.498 225.878 134.514 225.472C134.514 225.193 134.495 225.564 134.492 225.6L134.54 225.279C134.591 225.001 134.652 224.722 134.722 224.446C134.835 224.02 134.992 223.616 135.127 223.2C135.21 222.94 135.111 223.226 135.091 223.267L135.226 222.969C135.335 222.739 135.447 222.511 135.569 222.284C136.007 221.475 136.501 220.698 137.048 219.957C137.115 219.868 137.179 219.778 137.246 219.691C137.246 219.691 137.481 219.371 137.33 219.579L137.413 219.474L137.625 219.211C137.926 218.839 138.237 218.471 138.548 218.105C140.793 215.481 143.163 212.957 145.479 210.393C150.132 205.248 154.802 199.865 157.852 193.575C159.449 190.352 160.531 186.899 161.059 183.342C161.379 181.14 161.517 178.933 161.668 176.716C161.735 175.674 161.812 174.633 161.921 173.595C161.947 173.345 161.976 173.095 162.005 172.848C162.005 172.848 162.056 172.438 162.027 172.672C161.998 172.906 162.05 172.496 162.053 172.496C162.127 171.999 162.207 171.506 162.303 171.016C162.634 169.357 163.107 167.73 163.717 166.152L163.939 165.594C164.115 165.162 163.817 165.864 164.009 165.437C164.202 165.011 164.365 164.652 164.558 164.265C164.927 163.521 165.325 162.794 165.751 162.083C166.177 161.372 166.633 160.676 167.117 160.003C167.232 159.84 167.351 159.683 167.47 159.52C167.531 159.44 167.591 159.363 167.649 159.283C167.63 159.305 167.405 159.603 167.579 159.375C167.851 159.055 168.121 158.703 168.4 158.376C169.477 157.118 170.657 155.951 171.927 154.887L172.392 154.509C172.527 154.4 172.87 154.15 172.533 154.393C172.883 154.14 173.226 153.884 173.582 153.637C174.31 153.137 175.064 152.676 175.827 152.237C176.657 151.765 177.512 151.331 178.393 150.936L178.713 150.798C178.729 150.798 179.073 150.641 178.842 150.741L178.973 150.686L179.294 150.561C179.746 150.382 180.208 150.215 180.67 150.058C181.589 149.747 182.523 149.482 183.47 149.267C183.906 149.164 184.342 149.074 184.781 148.994L185.423 148.885L185.743 148.834C186.125 148.773 185.381 148.869 185.766 148.834C187.615 148.631 189.478 148.595 191.333 148.728C191.554 148.748 191.779 148.767 192.003 148.793C192.106 148.793 192.677 148.876 192.468 148.847L192.93 148.921C193.155 148.959 193.379 148.998 193.604 149.042C194.545 149.224 195.476 149.454 196.394 149.731C197.6 150.087 199.069 149.299 199.354 148.052C199.51 147.438 199.422 146.787 199.108 146.236C198.795 145.685 198.281 145.276 197.673 145.095L197.706 145.108Z" fill="#2F3D33"/>
<path d="M295.809 155.572C297.616 155.33 299.445 155.292 301.261 155.46C301.473 155.479 301.681 155.505 301.902 155.527C302.005 155.527 302.367 155.608 301.902 155.527C302.005 155.547 302.111 155.56 302.223 155.576C302.672 155.649 303.121 155.733 303.567 155.829C304.457 156.022 305.336 156.264 306.2 156.553C306.633 156.697 307.059 156.854 307.483 157.021L307.774 157.139C307.739 157.139 307.431 156.989 307.685 157.104C307.938 157.219 308.13 157.303 308.355 157.424C309.178 157.814 309.979 158.248 310.754 158.725C311.139 158.962 311.52 159.212 311.892 159.472L312.367 159.818L312.617 160.007C312.431 159.866 312.463 159.885 312.617 160.007C313.332 160.587 314.015 161.205 314.663 161.859C315.242 162.448 315.793 163.064 316.315 163.707C316.372 163.775 316.716 164.21 316.539 163.983C316.363 163.755 316.7 164.198 316.751 164.268C317.011 164.621 317.264 164.979 317.508 165.348C318.414 166.711 319.222 168.138 319.926 169.616C320.089 169.958 320.247 170.301 320.407 170.651L320.676 171.259C320.696 171.304 320.821 171.602 320.705 171.327C320.59 171.051 320.747 171.429 320.766 171.48C321.087 172.253 321.385 173.031 321.67 173.816C322.248 175.418 322.767 177.02 323.274 178.622C325.314 185.299 326.956 192.162 330.185 198.404C331.927 201.768 334.143 204.85 336.279 207.978C337.337 209.541 338.373 211.121 339.316 212.755C339.784 213.565 340.226 214.389 340.634 215.232C340.823 215.619 341.002 216.01 341.176 216.404C341.349 216.798 341.224 216.516 341.176 216.427C341.214 216.526 341.256 216.625 341.298 216.728C341.391 216.962 341.48 217.196 341.567 217.433C341.908 218.361 342.194 219.309 342.423 220.271C342.542 220.781 342.644 221.297 342.744 221.813C342.766 221.931 342.782 222.053 342.802 222.171C342.802 222.171 342.856 222.575 342.827 222.332C342.798 222.088 342.827 222.479 342.827 222.492L342.875 222.972C342.972 224.016 343 225.065 342.959 226.112C342.94 226.635 342.904 227.157 342.85 227.679C342.85 227.801 342.824 227.92 342.811 228.041C342.811 228.041 342.757 228.445 342.792 228.201C342.827 227.958 342.766 228.349 342.766 228.358C342.741 228.519 342.715 228.679 342.686 228.836C342.352 230.617 341.837 232.36 341.147 234.036C341.326 233.584 341.147 234.065 341.054 234.238C340.961 234.411 340.9 234.581 340.82 234.754C340.646 235.122 340.467 235.491 340.281 235.853C339.909 236.583 339.511 237.301 339.094 238.009C335.708 243.763 331.16 248.746 328.049 254.657C326.351 257.787 325.247 261.203 324.791 264.734C324.528 266.909 324.595 269.107 324.595 271.296C324.595 272.385 324.576 273.478 324.493 274.567C324.467 274.862 324.441 275.153 324.409 275.445C324.409 275.445 324.355 275.852 324.387 275.621C324.419 275.391 324.358 275.801 324.358 275.801C324.271 276.294 324.175 276.787 324.037 277.271C323.938 277.64 323.81 277.999 323.681 278.357C323.524 278.793 323.826 278.069 323.627 278.492C323.518 278.723 323.409 278.957 323.287 279.181C323.108 279.521 322.911 279.851 322.697 280.171C322.594 280.331 322.475 280.491 322.376 280.639C322.652 280.232 322.286 280.744 322.158 280.889C321.912 281.168 321.65 281.432 321.372 281.68C321.209 281.827 320.962 282.02 321.295 281.77C321.103 281.914 320.904 282.052 320.699 282.18C320.548 282.273 320.378 282.363 320.234 282.446C320.157 282.487 320.07 282.52 319.993 282.564C319.753 282.702 320.15 282.481 320.163 282.5C320.176 282.52 319.07 282.821 318.977 282.84C318.524 282.933 319.374 282.84 318.906 282.84C318.723 282.84 318.544 282.84 318.361 282.84C318.271 282.84 318.175 282.821 318.085 282.821C317.787 282.821 318.274 282.821 318.261 282.853C318.017 282.828 317.776 282.775 317.543 282.696C317.37 282.648 317.203 282.574 317.027 282.526C317.408 282.632 317.168 282.593 316.943 282.481C316.571 282.279 316.21 282.057 315.863 281.815C316.206 282.039 315.943 281.879 315.773 281.731C315.603 281.584 315.494 281.485 315.359 281.353C315.042 281.049 314.741 280.728 314.458 280.392C314.336 280.245 314.115 279.934 314.355 280.273C314.243 280.113 314.128 279.953 314.015 279.802C313.755 279.428 313.509 279.046 313.274 278.655C311.35 275.451 309.856 271.927 308.39 268.483C308.39 268.483 308.239 268.124 308.332 268.348C308.425 268.572 308.284 268.229 308.278 268.213L307.957 267.473C307.769 267.012 307.583 266.55 307.399 266.086C307.031 265.157 306.674 264.222 306.328 263.282C305.635 261.396 304.994 259.49 304.404 257.563C303.241 253.706 302.356 249.771 301.755 245.788C301.713 245.503 301.755 245.82 301.755 245.865C301.755 245.753 301.726 245.641 301.71 245.545C301.684 245.317 301.655 245.093 301.63 244.869C301.569 244.347 301.514 243.821 301.469 243.296C301.383 242.334 301.319 241.357 301.283 240.386C301.207 238.464 301.243 236.538 301.392 234.619C301.428 234.18 301.466 233.744 301.514 233.309C301.543 233.052 301.572 232.799 301.604 232.546C301.608 232.47 301.619 232.393 301.636 232.319C301.78 231.383 301.957 230.454 302.146 229.528C302.412 228.304 301.78 226.872 300.469 226.574C299.256 226.295 297.794 226.936 297.509 228.25C295.732 236.442 296.361 244.911 298.211 253.033C300.074 261.222 303.185 269.107 306.812 276.663C308.474 280.129 310.209 283.66 313.403 285.977C314.986 287.134 316.913 287.725 318.874 287.652C320.941 287.504 322.903 286.687 324.464 285.326C327.7 282.648 328.989 278.489 329.274 274.433C329.438 272.164 329.322 269.889 329.374 267.618C329.374 267.07 329.409 266.525 329.444 265.977C329.464 265.727 329.483 265.477 329.508 265.224L329.547 264.849C329.63 264.064 329.502 265.061 329.566 264.708C329.717 263.878 329.868 263.055 330.089 262.241C330.31 261.427 330.567 260.639 330.865 259.87C330.932 259.697 331 259.527 331.07 259.354L331.176 259.098C330.974 259.588 331.106 259.265 331.15 259.162C331.33 258.768 331.51 258.374 331.699 257.986C332.452 256.475 333.291 255.008 334.213 253.593C336.083 250.687 338.184 247.938 340.165 245.109C342.147 242.28 343.995 239.416 345.348 236.263C347.051 232.296 347.959 228.057 347.692 223.725C347.423 219.31 346.038 215.171 343.934 211.3C342.07 207.881 339.765 204.741 337.597 201.502C336.509 199.868 335.458 198.202 334.534 196.469C334.106 195.687 333.714 194.892 333.357 194.085L333.078 193.463C333.043 193.38 332.821 192.864 332.93 193.124C333.039 193.383 332.789 192.781 332.751 192.688L332.497 192.047C331.215 188.737 330.198 185.319 329.207 181.913C327.244 175.168 325.304 168.135 321.189 162.314C318.954 159.014 316.008 156.255 312.568 154.238C309.128 152.222 305.28 151 301.306 150.661C299.458 150.481 297.595 150.516 295.754 150.763C294.51 150.93 293.285 151.75 293.349 153.166C293.4 154.326 294.417 155.749 295.754 155.569L295.809 155.572Z" fill="#2F3D33"/>
<path d="M269.832 200.83C271.926 206.965 274.437 212.95 277.346 218.743C278.763 221.569 280.278 224.346 281.89 227.074C283.407 229.637 285.017 232.139 286.422 234.764C286.807 235.488 287.179 236.218 287.525 236.962C287.615 237.157 287.705 237.352 287.791 237.548C287.878 237.743 288.138 238.407 287.862 237.698C288.009 238.073 288.182 238.445 288.304 238.823C288.876 240.342 289.281 241.918 289.513 243.523L289.427 242.883C289.629 244.416 289.629 245.969 289.427 247.503L289.513 246.862C289.309 248.288 288.968 249.692 288.494 251.053C288.266 251.719 287.996 252.367 287.743 253.02C287.993 252.379 287.785 252.921 287.717 253.071C287.65 253.222 287.576 253.392 287.503 253.555C287.345 253.901 287.182 254.244 287.022 254.587C285.784 257.166 284.401 259.681 283.026 262.187C281.65 264.692 280.255 267.102 278.667 269.434C278.27 270.018 277.859 270.598 277.439 271.165L277.118 271.575L276.987 271.751C276.743 272.071 277.067 271.645 277.093 271.61C276.862 271.892 276.64 272.187 276.409 272.469C275.516 273.558 274.565 274.598 273.562 275.586C271.166 277.935 268.504 279.992 266.051 282.276C265.604 282.729 265.354 283.34 265.354 283.976C265.354 284.612 265.604 285.223 266.051 285.676C266.508 286.114 267.117 286.359 267.75 286.359C268.384 286.359 268.993 286.114 269.45 285.676C271.83 283.459 274.402 281.462 276.74 279.2C279.06 276.915 281.136 274.393 282.933 271.677C284.661 269.114 286.188 266.426 287.66 263.709C289.132 260.992 290.719 258.182 291.967 255.298C293.339 252.094 294.382 248.791 294.395 245.286C294.395 241.95 293.497 238.762 292.204 235.718C291.011 232.912 289.452 230.271 287.871 227.676C286.197 224.918 284.555 222.146 283.035 219.298C281.515 216.449 280.065 213.479 278.738 210.496C278.581 210.14 278.417 209.785 278.27 209.426C278.186 209.237 278.103 209.048 278.023 208.856C277.978 208.756 277.856 208.311 277.779 208.285C277.856 208.311 277.974 208.753 277.84 208.43L277.718 208.141C277.647 207.975 277.58 207.821 277.509 207.638C277.343 207.231 277.189 206.824 277.012 206.414C276.403 204.898 275.821 203.373 275.268 201.839C274.996 201.083 274.73 200.324 274.469 199.564C274.062 198.375 272.798 197.469 271.509 197.885C270.332 198.266 269.396 199.567 269.832 200.839V200.83Z" fill="#2F3D33"/>
<path d="M245.949 133.647C246.122 133.564 246.296 133.487 246.469 133.407C246.568 133.359 246.879 133.202 246.417 133.407C246.7 133.272 247.011 133.173 247.306 133.067C247.898 132.854 248.5 132.668 249.111 132.51C249.723 132.352 250.308 132.224 250.866 132.125C251.143 132.066 251.424 132.021 251.706 131.991C251.064 132.039 251.706 131.991 251.818 131.991L252.395 131.943C253.63 131.836 254.871 131.816 256.109 131.882C256.715 131.914 257.321 131.962 257.927 132.032C257.927 132.032 258.569 132.106 258.178 132.058C257.786 132.01 258.412 132.093 258.431 132.097C258.752 132.145 259.072 132.196 259.393 132.254C261.939 132.706 264.425 133.454 266.798 134.48C266.295 134.259 267.119 134.615 267.228 134.673C267.504 134.794 267.773 134.916 268.046 135.044C268.687 135.339 269.3 135.65 269.915 135.973C271.067 136.569 272.192 137.21 273.302 137.88C275.589 139.258 277.792 140.763 279.966 142.314C281.053 143.09 282.131 143.875 283.209 144.663L284.677 145.739L285.495 146.345L285.816 146.592C285.947 146.691 286.307 146.966 285.976 146.71C287.051 147.534 288.082 148.413 289.065 149.344C289.51 149.773 289.943 150.219 290.347 150.677C290.53 150.879 290.707 151.084 290.883 151.292C291.002 151.43 291.114 151.571 291.229 151.708C291.345 151.846 291.71 152.167 291.3 151.792C291.668 152.194 291.99 152.636 292.262 153.109C292.631 153.653 292.984 154.214 293.317 154.784C293.898 155.771 294.424 156.79 294.921 157.828C295.049 158.104 295.174 158.379 295.296 158.655L295.479 159.075C295.629 159.421 295.257 158.533 295.479 159.075C295.7 159.616 295.934 160.206 296.146 160.779C296.572 161.926 296.964 163.089 297.329 164.259C298.06 166.591 298.695 168.953 299.327 171.308C300.062 174.047 300.78 176.793 301.36 179.571C301.652 180.974 301.899 182.384 302.114 183.8C302.114 183.896 302.181 184.274 302.114 183.8L302.181 184.332C302.22 184.65 302.255 184.971 302.287 185.293C302.364 186.037 302.422 186.777 302.46 187.536C302.536 188.913 302.536 190.292 302.46 191.669C302.419 192.377 302.351 193.082 302.265 193.784C302.265 193.691 302.335 193.31 302.265 193.784C302.236 193.96 302.21 194.136 302.181 194.313C302.117 194.694 302.047 195.072 301.97 195.45C301.418 198.151 300.536 200.769 299.85 203.434C299.191 205.946 298.761 208.512 298.567 211.102C298.483 212.766 298.494 214.434 298.599 216.097C298.696 218.068 298.665 220.044 298.506 222.011C298.452 222.652 298.381 223.293 298.301 223.934C298.275 224.149 298.368 224.43 298.301 223.934C298.297 224.057 298.28 224.18 298.25 224.299C298.198 224.652 298.144 225.007 298.083 225.363C297.903 226.436 297.679 227.506 297.406 228.567C297.151 229.543 296.847 230.505 296.495 231.451C296.409 231.688 296.316 231.922 296.223 232.155C296.177 232.245 296.139 232.338 296.107 232.434C296.203 231.877 296.21 232.194 296.107 232.412C295.905 232.87 295.69 233.325 295.466 233.77C294.513 235.621 293.416 237.394 292.185 239.073C291.864 239.518 291.544 239.964 291.201 240.403C291.107 240.524 290.559 241.271 290.915 240.777C290.729 241.027 290.53 241.271 290.338 241.514C289.906 241.978 289.656 242.582 289.635 243.216C289.64 243.851 289.892 244.46 290.338 244.914C291.207 245.709 292.903 245.968 293.74 244.914C296.669 241.2 299.35 237.388 301.046 232.94C301.81 230.9 302.37 228.789 302.717 226.638C303.17 224.053 303.419 221.437 303.461 218.814C303.477 217.109 303.342 215.414 303.31 213.713C303.291 212.809 303.31 211.909 303.374 211.009C303.41 210.522 303.464 210.048 303.519 209.548C303.58 208.968 303.432 210.112 303.519 209.516C303.538 209.4 303.554 209.285 303.573 209.166C303.628 208.795 303.692 208.423 303.756 208.055C304.26 205.27 305.097 202.579 305.844 199.856C306.667 196.976 307.159 194.013 307.309 191.022C307.55 185.101 306.328 179.189 304.875 173.48C303.593 168.498 302.345 163.451 300.469 158.655C298.545 153.721 295.924 149.068 291.977 145.457C289.857 143.516 287.487 141.85 285.178 140.155C282.968 138.553 280.746 136.951 278.443 135.435C269.463 129.514 258.383 124.939 247.498 127.986C246.144 128.378 244.824 128.882 243.554 129.492C242.412 130.033 242.027 131.757 242.691 132.782C243.444 133.952 244.759 134.221 245.981 133.644L245.949 133.647Z" fill="#2F3D33"/>
<path d="M164.16 275.484C164.314 279.181 164.461 282.888 164.243 286.583C164.19 287.51 164.11 288.432 164.003 289.351C163.977 289.562 163.948 289.771 163.923 289.992C163.923 289.94 164.009 289.402 163.945 289.825C163.929 289.928 163.916 290.033 163.9 290.145C163.826 290.613 163.749 291.081 163.66 291.546C163.321 293.353 162.822 295.126 162.168 296.845C162.098 297.034 162.024 297.22 161.947 297.409C161.912 297.502 161.87 297.595 161.835 297.688C161.678 298.066 161.88 297.572 161.899 297.531C161.703 297.938 161.533 298.361 161.344 298.774C160.975 299.575 160.591 300.376 160.206 301.164C159.381 302.869 158.573 304.583 157.909 306.355C156.589 309.965 156.17 313.843 156.688 317.652C157.531 324.381 159.834 330.974 162.8 337.049C165.503 342.586 169.001 347.699 173.181 352.227C177.342 356.763 182.286 360.513 187.777 363.3C188.437 363.631 189.104 363.943 189.778 364.236C190.344 364.541 191.003 364.628 191.628 364.479C192.232 364.307 192.746 363.912 193.068 363.374C193.62 362.332 193.434 360.628 192.206 360.086C189.482 358.887 186.881 357.427 184.438 355.729C183.838 355.316 183.252 354.883 182.668 354.447C182.549 354.358 182.328 354.165 182.851 354.588L182.645 354.431L182.241 354.111C181.94 353.867 181.642 353.624 181.347 353.374C180.226 352.436 179.148 351.45 178.111 350.417C177.074 349.383 176.062 348.291 175.077 347.142C174.598 346.582 174.131 346.014 173.675 345.437C173.621 345.37 173.23 344.867 173.502 345.22C173.775 345.572 173.361 345.034 173.294 344.944C173.072 344.653 172.851 344.355 172.633 344.057C170.879 341.64 169.3 339.103 167.906 336.463C167.2 335.13 166.542 333.775 165.93 332.397C165.789 332.077 165.651 331.756 165.513 331.436C165.391 331.16 165.719 331.929 165.6 331.651L165.475 331.33L165.254 330.785C164.974 330.098 164.707 329.404 164.455 328.706C163.331 325.683 162.446 322.576 161.809 319.414C161.723 318.982 161.646 318.546 161.575 318.113C161.553 317.976 161.533 317.841 161.514 317.703C161.495 317.566 161.431 317.252 161.514 317.614C161.598 317.976 161.514 317.614 161.514 317.527L161.466 317.117C161.36 316.166 161.306 315.21 161.306 314.253C161.306 313.825 161.319 313.39 161.344 312.945C161.344 312.702 161.376 312.455 161.399 312.212C161.399 312.103 161.421 311.997 161.434 311.891C161.447 311.785 161.585 311.382 161.453 311.725C161.322 312.067 161.453 311.757 161.453 311.638C161.453 311.52 161.489 311.423 161.508 311.318C161.549 311.081 161.598 310.844 161.649 310.606C161.742 310.19 161.848 309.78 161.97 309.37C162.216 308.53 162.505 307.703 162.835 306.893C162.871 306.8 162.909 306.707 162.948 306.614C163.018 306.444 163.153 306.339 162.88 306.774C162.974 306.596 163.054 306.41 163.121 306.22C163.304 305.807 163.493 305.397 163.685 304.987C164.417 303.433 165.193 301.904 165.885 300.334C166.671 298.592 167.315 296.788 167.81 294.942C168.292 293.021 168.635 291.068 168.836 289.098C169.24 285.474 169.201 281.818 169.073 278.178C169.041 277.275 169.006 276.371 168.967 275.468C168.916 274.215 167.899 273.004 166.562 273.065C165.305 273.122 164.099 274.122 164.157 275.468L164.16 275.484Z" fill="#2F3D33"/>
<path d="M157.493 319.735C154.018 326.31 150.547 332.883 147.079 339.456C143.677 345.938 140.325 352.519 137.904 359.43C136.49 363.457 135.659 367.728 136.522 371.974C136.775 373.207 138.302 374.034 139.482 373.653C140.088 373.47 140.601 373.061 140.914 372.51C141.226 371.959 141.314 371.309 141.159 370.695C141.088 370.356 141.031 370.013 140.983 369.67L141.069 370.311C140.901 368.889 140.914 367.452 141.108 366.033L141.021 366.674C141.537 362.881 143 359.26 144.478 355.752L144.235 356.325C146.14 351.817 148.333 347.434 150.597 343.096C152.922 338.639 155.286 334.198 157.637 329.754L161.636 322.161C162.223 321.052 161.957 319.498 160.773 318.873C159.664 318.287 158.108 318.553 157.483 319.735H157.493Z" fill="#2F3D33"/>
<path d="M323.72 278.483C322.161 282.465 323.079 286.794 324.733 290.575C326.215 293.99 328.515 296.912 330.57 299.985C331.736 301.669 332.742 303.458 333.575 305.329L333.332 304.756C333.895 306.078 334.287 307.467 334.499 308.889L334.416 308.248C334.589 309.577 334.589 310.922 334.416 312.25L334.502 311.609C334.254 313.314 333.784 314.98 333.104 316.563L333.348 315.989C332.126 318.847 330.4 321.436 328.521 323.913L328.354 324.131C328.736 323.605 328.569 323.852 328.479 323.967L328.159 324.397C327.905 324.717 327.652 325.037 327.395 325.358C326.899 325.962 326.399 326.565 325.894 327.165C324.881 328.37 323.862 329.57 322.838 330.766C318.756 335.518 314.516 340.177 309.689 344.223C309.368 344.499 309.025 344.771 308.692 345.04L308.159 345.463L307.948 345.63C307.598 345.905 308.384 345.309 308.005 345.588C307.319 346.107 306.63 346.617 305.924 347.11C304.476 348.123 302.977 349.062 301.434 349.923C300.881 350.245 300.479 350.773 300.316 351.391C300.152 352.009 300.242 352.666 300.564 353.219C300.885 353.771 301.414 354.173 302.032 354.336C302.651 354.499 303.309 354.41 303.862 354.088C308.596 351.455 312.887 348.049 316.799 344.323C320.648 340.664 324.14 336.671 327.572 332.631C331.055 328.53 334.717 324.368 337.052 319.475C338.321 316.929 339.096 314.165 339.335 311.331C339.489 308.552 338.985 305.775 337.863 303.228C335.801 298.345 332.09 294.474 329.672 289.803C329.367 289.211 329.082 288.609 328.819 287.996L329.063 288.569C328.442 287.125 328.011 285.606 327.78 284.051L327.867 284.692C327.726 283.658 327.719 282.611 327.844 281.575L327.758 282.216C327.871 281.39 328.081 280.58 328.383 279.803C328.468 279.494 328.49 279.171 328.449 278.853C328.408 278.535 328.303 278.228 328.143 277.951C327.819 277.402 327.291 277.003 326.674 276.841C326.057 276.68 325.401 276.769 324.849 277.089C324.331 277.431 323.943 277.937 323.746 278.524L323.72 278.483Z" fill="#2F3D33"/>
<path d="M327.264 331.234C329.163 333.984 330.783 336.918 332.1 339.99L331.856 339.417C333.497 343.311 334.614 347.405 335.179 351.592L335.092 350.951C335.709 355.781 335.682 360.672 335.012 365.494L335.099 364.854C334.836 366.792 334.483 368.714 334.056 370.621C333.78 371.845 334.428 373.277 335.737 373.575C336.955 373.854 338.402 373.21 338.694 371.899C339.976 366.161 340.618 360.23 340.243 354.351C339.863 348.482 338.477 342.722 336.147 337.321C334.853 334.338 333.269 331.487 331.42 328.811C331.091 328.28 330.579 327.887 329.98 327.706C329.355 327.54 328.69 327.628 328.13 327.949C327.1 328.613 326.504 330.128 327.264 331.237V331.234Z" fill="#2F3D33"/>
<path d="M198.055 241.842C197.478 239.57 197.026 237.268 196.702 234.947L196.789 235.587C196.344 232.54 196.304 229.447 196.67 226.389L196.583 227.029C196.929 224.604 197.592 222.234 198.556 219.98L198.315 220.557C199.62 217.475 201.336 214.591 202.783 211.586C203.892 209.273 204.918 206.934 206.105 204.659C207.474 202.035 208.921 199.449 210.236 196.796C211.782 193.688 213.177 190.478 214.084 187.12C214.405 185.909 213.677 184.454 212.404 184.166C211.79 184.007 211.138 184.093 210.586 184.406C210.034 184.718 209.626 185.233 209.447 185.841C208.941 187.687 208.31 189.496 207.558 191.256L207.798 190.683C205.961 195.005 203.575 199.058 201.439 203.233C199.893 206.258 198.575 209.385 196.997 212.393C195.714 214.864 194.412 217.334 193.431 219.948C192.376 222.803 191.773 225.805 191.644 228.846C191.417 233.652 192.267 238.493 193.421 243.136C193.596 243.747 194.005 244.266 194.558 244.579C195.111 244.893 195.766 244.978 196.381 244.815C196.989 244.634 197.504 244.225 197.817 243.674C198.131 243.123 198.218 242.472 198.062 241.858L198.055 241.842Z" fill="#2F3D33"/>
<path d="M233.503 252.671C233.436 253.34 233.357 254.007 233.265 254.674L233.352 254.033C232.595 259.586 231.136 265.007 229.779 270.434C228.4 275.952 227.124 281.54 226.79 287.233C226.601 290.474 226.791 293.726 227.358 296.922C227.527 297.526 227.923 298.04 228.464 298.358C228.737 298.517 229.038 298.622 229.352 298.665C229.665 298.708 229.983 298.689 230.289 298.609C230.594 298.529 230.881 298.389 231.133 298.198C231.384 298.007 231.596 297.769 231.755 297.496C232.051 296.926 232.136 296.27 231.995 295.644C231.912 295.173 231.838 294.702 231.774 294.228L231.857 294.868C231.389 291.019 231.432 287.124 231.986 283.286L231.902 283.927C232.993 275.82 235.6 268.028 237.194 260.025C237.678 257.593 238.063 255.142 238.313 252.675C238.313 252.359 238.251 252.047 238.13 251.755C238.009 251.464 237.831 251.199 237.608 250.976C237.155 250.529 236.545 250.277 235.908 250.271C235.271 250.274 234.66 250.527 234.208 250.976C233.783 251.443 233.533 252.044 233.503 252.675V252.671Z" fill="#2F3D33"/>
<path d="M282.115 177.017C282.291 177.047 282.463 177.096 282.628 177.164L282.436 177.084C282.64 177.173 282.833 177.286 283.01 177.421L282.846 177.296C283.034 177.441 283.203 177.609 283.35 177.796L283.225 177.632C283.376 177.83 283.503 178.045 283.603 178.273L283.523 178.084C283.608 178.29 283.668 178.505 283.703 178.725C283.757 178.926 283.89 179.098 284.071 179.202C284.162 179.256 284.262 179.291 284.367 179.306C284.471 179.32 284.577 179.314 284.679 179.288C284.781 179.261 284.877 179.215 284.961 179.151C285.045 179.088 285.115 179.008 285.168 178.917C285.265 178.726 285.293 178.508 285.248 178.299C285.126 177.614 284.804 176.98 284.323 176.478C283.841 175.976 283.221 175.627 282.542 175.476C282.333 175.426 282.114 175.456 281.926 175.559C281.789 175.638 281.68 175.756 281.61 175.897C281.54 176.039 281.514 176.198 281.534 176.354C281.554 176.51 281.62 176.657 281.723 176.776C281.827 176.895 281.963 176.981 282.115 177.023V177.017Z" fill="white"/>
<path d="M204.306 174.444C204.407 174.464 204.506 174.494 204.601 174.534L204.412 174.454C204.558 174.517 204.695 174.598 204.822 174.694L204.658 174.569C204.812 174.689 204.95 174.828 205.069 174.983L204.944 174.819C205.073 174.991 205.18 175.179 205.265 175.377L205.184 175.184C205.28 175.411 205.345 175.649 205.38 175.892C205.435 176.094 205.568 176.265 205.749 176.37C205.933 176.476 206.151 176.505 206.357 176.451C206.562 176.397 206.738 176.264 206.846 176.081L206.926 175.892C206.964 175.753 206.964 175.606 206.926 175.466C206.827 174.849 206.561 174.27 206.156 173.794C205.795 173.344 205.292 173.029 204.729 172.9C204.521 172.847 204.301 172.876 204.113 172.98C204.022 173.033 203.943 173.103 203.879 173.187C203.815 173.271 203.769 173.366 203.742 173.468C203.715 173.57 203.708 173.676 203.723 173.78C203.737 173.884 203.772 173.985 203.825 174.076C203.929 174.257 204.101 174.389 204.302 174.444H204.306Z" fill="white"/>
</svg>
