<svg width="28" height="29" viewBox="0 0 28 29" fill="none" xmlns="http://www.w3.org/2000/svg">
<circle cx="14" cy="15" r="10" fill="#239C6D"/>
<path d="M12.2173 17.932H14.9533V17.572C14.9533 17.086 15.0973 16.6 16.1053 15.88L16.8613 15.34C17.5273 14.872 18.4093 14.152 18.4093 12.604C18.4093 10.39 16.7713 9.202 14.3233 9.202C11.8393 9.202 9.8233 10.426 9.5893 13.126H12.4333C12.5413 12.1 13.1893 11.686 14.1073 11.686C14.9533 11.686 15.4573 12.028 15.4573 12.694C15.4573 13.324 14.9713 13.63 14.4313 13.99L13.6393 14.512C12.7753 15.088 12.2173 15.826 12.2173 17.338V17.932ZM12.1093 22H15.1333V18.904H12.1093V22Z" fill="white"/>
</svg>
