<svg width="26" height="26" viewBox="0 0 26 26" fill="none" xmlns="http://www.w3.org/2000/svg">
<path d="M13.0001 24.6C19.4066 24.6 24.6001 19.4065 24.6001 13C24.6001 6.59351 19.4066 1.40001 13.0001 1.40001C6.59364 1.40001 1.40015 6.59351 1.40015 13C1.40015 19.4065 6.59364 24.6 13.0001 24.6Z" stroke="white"/>
<path fill-rule="evenodd" clip-rule="evenodd" d="M13 8.08112C14.6021 8.08112 14.7918 8.08722 15.4245 8.11608C16.0095 8.14278 16.3272 8.24053 16.5386 8.32267C16.8187 8.43151 17.0186 8.56156 17.2285 8.7715C17.4385 8.98145 17.5685 9.18135 17.6773 9.46139C17.7595 9.67283 17.8572 9.99053 17.8839 10.5755C17.9128 11.2082 17.9189 11.398 17.9189 13C17.9189 14.6021 17.9128 14.7919 17.8839 15.4245C17.8572 16.0095 17.7595 16.3272 17.6773 16.5387C17.5685 16.8187 17.4385 17.0186 17.2285 17.2286C17.0186 17.4385 16.8187 17.5685 16.5386 17.6774C16.3272 17.7595 16.0095 17.8573 15.4245 17.884C14.7919 17.9128 14.6022 17.9189 13 17.9189C11.3978 17.9189 11.2081 17.9128 10.5755 17.884C9.99049 17.8573 9.6728 17.7595 9.46137 17.6774C9.18131 17.5685 8.98141 17.4385 8.77146 17.2286C8.56152 17.0186 8.43148 16.8187 8.32266 16.5387C8.24049 16.3272 8.14274 16.0095 8.11604 15.4246C8.08718 14.7919 8.08108 14.6021 8.08108 13C8.08108 11.398 8.08718 11.2082 8.11604 10.5755C8.14274 9.99053 8.24049 9.67283 8.32266 9.46139C8.43148 9.18135 8.56152 8.98145 8.77146 8.7715C8.98141 8.56156 9.18131 8.43151 9.46137 8.32267C9.6728 8.24053 9.99049 8.14278 10.5755 8.11608C11.2082 8.08722 11.3979 8.08112 13 8.08112ZM13 7.00002C14.6295 7.00002 14.8338 7.00692 15.4738 7.03612C16.1124 7.06527 16.5486 7.16669 16.9302 7.31502C17.3248 7.46835 17.6594 7.67351 17.9929 8.00707C18.3265 8.34063 18.5317 8.67523 18.685 9.06979C18.8333 9.45146 18.9347 9.88759 18.9639 10.5262C18.9931 11.1662 19 11.3705 19 13C19 14.6295 18.9931 14.8339 18.9639 15.4738C18.9347 16.1125 18.8333 16.5486 18.685 16.9303C18.5317 17.3248 18.3265 17.6594 17.9929 17.993C17.6594 18.3265 17.3248 18.5317 16.9302 18.685C16.5486 18.8334 16.1124 18.9348 15.4738 18.9639C14.8338 18.9931 14.6295 19 13 19C11.3705 19 11.1662 18.9931 10.5262 18.9639C9.88755 18.9348 9.45142 18.8334 9.06975 18.685C8.67519 18.5317 8.34059 18.3265 8.00703 17.993C7.67347 17.6594 7.46831 17.3248 7.31498 16.9303C7.16665 16.5486 7.06523 16.1125 7.03608 15.4738C7.00688 14.8339 7 14.6295 7 13C7 11.3705 7.00688 11.1662 7.03608 10.5262C7.06523 9.88759 7.16665 9.45146 7.31498 9.06979C7.46831 8.67523 7.67347 8.34063 8.00703 8.00707C8.34059 7.67351 8.67519 7.46835 9.06975 7.31502C9.45142 7.16669 9.88755 7.06527 10.5262 7.03612C11.1662 7.00692 11.3705 7.00002 13 7.00002ZM13.0119 9.92859C11.309 9.92859 9.92857 11.309 9.92857 13.0119C9.92857 14.7148 11.309 16.0953 13.0119 16.0953C14.7148 16.0953 16.0952 14.7148 16.0952 13.0119C16.0952 11.309 14.7148 9.92859 13.0119 9.92859ZM13.0119 15.0134C11.9065 15.0134 11.0104 14.1173 11.0104 13.0119C11.0104 11.9066 11.9065 11.0105 13.0119 11.0105C14.1173 11.0105 15.0134 11.9066 15.0134 13.0119C15.0134 14.1173 14.1173 15.0134 13.0119 15.0134ZM16.9048 9.78572C16.9048 9.39122 16.585 9.07144 16.1905 9.07144C15.796 9.07144 15.4762 9.39122 15.4762 9.78572C15.4762 10.1802 15.796 10.5 16.1905 10.5C16.585 10.5 16.9048 10.1802 16.9048 9.78572Z" fill="white"/>
</svg>
