<svg width="67" height="67" viewBox="0 0 67 67" fill="none" xmlns="http://www.w3.org/2000/svg">
<path d="M66.2796 33.1398C66.2796 51.4424 51.4424 66.2796 33.1398 66.2796C14.8372 66.2796 0 51.4424 0 33.1398C0 14.8372 14.8372 0 33.1398 0C51.4424 0 66.2796 14.8372 66.2796 33.1398Z" fill="#239C6D"/>
<path fill-rule="evenodd" clip-rule="evenodd" d="M33.1398 61.8609C49.002 61.8609 61.8609 49.002 61.8609 33.1398C61.8609 17.2775 49.002 4.41864 33.1398 4.41864C17.2775 4.41864 4.41864 17.2775 4.41864 33.1398C4.41864 49.002 17.2775 61.8609 33.1398 61.8609ZM33.1398 66.2796C51.4424 66.2796 66.2796 51.4424 66.2796 33.1398C66.2796 14.8372 51.4424 0 33.1398 0C14.8372 0 0 14.8372 0 33.1398C0 51.4424 14.8372 66.2796 33.1398 66.2796Z" fill="black"/>
</svg>
