<svg width="57" height="57" viewBox="0 0 57 57" fill="none" xmlns="http://www.w3.org/2000/svg">
<path d="M57 28.5C57 44.2401 44.2401 57 28.5 57C12.7599 57 0 44.2401 0 28.5C0 12.7599 12.7599 0 28.5 0C44.2401 0 57 12.7599 57 28.5Z" fill="white"/>
<path d="M41.5109 5.26579L30.049 2.16797V26.6408L55.4511 27.8799L53.5924 18.5864L48.6359 11.4614L41.5109 5.26579Z" fill="#239C6D"/>
<path fill-rule="evenodd" clip-rule="evenodd" d="M28.5 53.2C42.1414 53.2 53.2 42.1414 53.2 28.5C53.2 14.8586 42.1414 3.8 28.5 3.8C14.8586 3.8 3.8 14.8586 3.8 28.5C3.8 42.1414 14.8586 53.2 28.5 53.2ZM28.5 57C44.2401 57 57 44.2401 57 28.5C57 12.7599 44.2401 0 28.5 0C12.7599 0 0 12.7599 0 28.5C0 44.2401 12.7599 57 28.5 57Z" fill="black"/>
<path fill-rule="evenodd" clip-rule="evenodd" d="M28.5 28.5007V1.85938L31.9076 1.85938V28.5007H28.5Z" fill="black"/>
<path fill-rule="evenodd" clip-rule="evenodd" d="M54.5217 28.4994H28.5V25.0918H54.5217V28.4994Z" fill="black"/>
</svg>
