<svg width="29" height="30" viewBox="0 0 29 30" fill="none" xmlns="http://www.w3.org/2000/svg">
    <path d="M14.5625 29.5C11.6344 29.5 9.25 27.1872 9.25 24.3438C9.25 23.7745 9.726 23.3125 10.3125 23.3125C10.899 23.3125 11.375 23.7745 11.375 24.3438C11.375 26.0502 12.8058 27.4375 14.5625 27.4375C16.3192 27.4375 17.75 26.0502 17.75 24.3438C17.75 23.7745 18.226 23.3125 18.8125 23.3125C19.399 23.3125 19.875 23.7745 19.875 24.3438C19.875 27.1872 17.4909 29.5 14.5625 29.5Z" fill="#071F16"/>
    <path d="M26.2486 25.375H2.87361C1.50658 25.375 0.394531 24.2957 0.394531 22.9688C0.394531 22.2646 0.71048 21.5979 1.26144 21.14C1.29698 21.1098 1.33511 21.0823 1.3748 21.0574C3.45441 19.296 4.64453 16.7619 4.64453 14.0861V10.2499C4.64453 4.9426 9.09427 0.625 14.5611 0.625C14.7878 0.625 15.033 0.629028 15.2597 0.66629C15.8389 0.759697 16.2301 1.29194 16.1336 1.85288C16.0374 2.41383 15.4791 2.7935 14.911 2.69984C14.7977 2.68196 14.6732 2.6875 14.5611 2.6875C10.266 2.6875 6.76953 6.0796 6.76953 10.2499V14.0861C6.76953 17.4082 5.26917 20.5516 2.65701 22.7088C2.63574 22.7254 2.61732 22.7405 2.5945 22.7556C2.55637 22.8024 2.51953 22.8739 2.51953 22.9688C2.51953 23.1556 2.68114 23.3125 2.87361 23.3125H26.2486C26.4413 23.3125 26.603 23.1556 26.603 22.9688C26.603 22.8724 26.5661 22.8024 26.5264 22.7556C26.5052 22.7405 26.4867 22.7254 26.4655 22.7088C23.8518 20.5501 22.353 17.4082 22.353 14.0861V12.5876C22.353 12.0183 22.8289 11.5564 23.4155 11.5564C24.002 11.5564 24.478 12.0183 24.478 12.5876V14.0861C24.478 16.7635 25.6694 19.2988 27.7518 21.0617C27.79 21.0863 27.8268 21.1125 27.8608 21.1415C28.412 21.5979 28.728 22.2646 28.728 22.9688C28.728 24.2957 27.6159 25.375 26.2486 25.375Z" fill="#071F16"/>
</svg>
