<svg width="56" height="30" viewBox="0 0 56 30" fill="none" xmlns="http://www.w3.org/2000/svg">
<path d="M52.4163 1.75H3.50094H1.99121V26.5L4.70873 28.75H50.0007L53.6241 27.5L52.4163 1.75Z" fill="#BDE1D3"/>
<path fill-rule="evenodd" clip-rule="evenodd" d="M52.3467 10.3846H0.783447V8.0769H52.3467V10.3846Z" fill="black"/>
<path fill-rule="evenodd" clip-rule="evenodd" d="M24.4745 14.4232C24.4745 15.379 23.714 16.1539 22.776 16.1539H8.05612C7.11809 16.1539 6.35767 15.379 6.35767 14.4232V14.4232C6.35767 13.4673 7.11809 12.6924 8.05612 12.6924H22.776C23.714 12.6924 24.4745 13.4673 24.4745 14.4232V14.4232Z" fill="black"/>
<path fill-rule="evenodd" clip-rule="evenodd" d="M48.1655 14.4232C48.1655 15.379 47.3856 16.1539 46.4235 16.1539H42.9395C41.9774 16.1539 41.1975 15.379 41.1975 14.4232V14.4232C41.1975 13.4673 41.9774 12.6924 42.9395 12.6924H46.4235C47.3856 12.6924 48.1655 13.4673 48.1655 14.4232V14.4232Z" fill="black"/>
<path fill-rule="evenodd" clip-rule="evenodd" d="M13.3257 20.1927C13.3257 21.1486 12.5457 21.9235 11.5837 21.9235H8.09967C7.13759 21.9235 6.35767 21.1486 6.35767 20.1927V20.1927C6.35767 19.2368 7.13759 18.4619 8.09967 18.4619H11.5837C12.5457 18.4619 13.3257 19.2368 13.3257 20.1927V20.1927Z" fill="black"/>
<path fill-rule="evenodd" clip-rule="evenodd" d="M50.6051 2.8125H5.31314C4.68778 2.8125 4.18084 3.23223 4.18084 3.75V26.25C4.18084 26.7678 4.68778 27.1875 5.31314 27.1875H50.6051C51.2305 27.1875 51.7374 26.7678 51.7374 26.25V3.75C51.7374 3.23223 51.2305 2.8125 50.6051 2.8125ZM5.31314 0C2.81173 0 0.783936 1.67893 0.783936 3.75V26.25C0.783936 28.3211 2.81173 30 5.31314 30H50.6051C53.1066 30 55.1343 28.3211 55.1343 26.25V3.75C55.1343 1.67893 53.1066 0 50.6051 0H5.31314Z" fill="black"/>
</svg>
