<svg width="14" height="18" viewBox="0 0 14 18" fill="none" xmlns="http://www.w3.org/2000/svg">
<path d="M12.25 6.75H11.6667V4.5C11.6667 2.01825 9.57367 0 7 0C4.42633 0 2.33333 2.01825 2.33333 4.5V6.75H1.75C0.785556 6.75 0 7.50675 0 8.4375V16.3125C0 17.2432 0.785556 18 1.75 18H12.25C13.2144 18 14 17.2432 14 16.3125V8.4375C14 7.50675 13.2144 6.75 12.25 6.75ZM3.88889 4.5C3.88889 2.8455 5.28422 1.5 7 1.5C8.71578 1.5 10.1111 2.8455 10.1111 4.5V6.75H3.88889V4.5ZM7.77778 12.5415V14.25C7.77778 14.664 7.43011 15 7 15C6.56989 15 6.22222 14.664 6.22222 14.25V12.5415C5.75944 12.2812 5.44444 11.8027 5.44444 11.25C5.44444 10.4227 6.14211 9.75 7 9.75C7.85789 9.75 8.55556 10.4227 8.55556 11.25C8.55556 11.8027 8.24056 12.2812 7.77778 12.5415Z" fill="#239C6D"/>
</svg>
