<svg width="86" height="92" viewBox="0 0 86 92" fill="none" xmlns="http://www.w3.org/2000/svg">
<path fill-rule="evenodd" clip-rule="evenodd" d="M70.4029 8.4381C70.4029 7.51312 69.653 6.76328 68.728 6.76328L19.4869 6.76328C18.562 6.76328 17.8121 7.51313 17.8121 8.4381L17.8121 83.3915C17.8121 84.3165 18.562 85.0663 19.4869 85.0663H68.728C69.653 85.0663 70.4029 84.3165 70.4029 83.3915V8.4381ZM12.7236 0C11.7987 0 11.0488 0.74984 11.0488 1.67482L11.0488 90.1548C11.0488 91.0798 11.7987 91.8296 12.7236 91.8296H75.4913C76.4163 91.8296 77.1661 91.0798 77.1661 90.1548V1.67482C77.1661 0.749842 76.4163 0 75.4913 0L12.7236 0Z" fill="black"/>
<path fill-rule="evenodd" clip-rule="evenodd" d="M13.3985 20.0977H0V18.4229H13.3985V20.0977Z" fill="black"/>
<path fill-rule="evenodd" clip-rule="evenodd" d="M33.4964 20.0977H20.0979V18.4229H33.4964V20.0977Z" fill="black"/>
<path fill-rule="evenodd" clip-rule="evenodd" d="M50.2445 20.0977H36.8459V18.4229H50.2445V20.0977Z" fill="black"/>
<path fill-rule="evenodd" clip-rule="evenodd" d="M66.9927 20.0977H53.5941V18.4229H66.9927V20.0977Z" fill="black"/>
<path fill-rule="evenodd" clip-rule="evenodd" d="M33.4964 36.8457H20.0979V35.1709H33.4964V36.8457Z" fill="black"/>
<path fill-rule="evenodd" clip-rule="evenodd" d="M50.2445 36.8457H36.8459V35.1709H50.2445V36.8457Z" fill="black"/>
<path fill-rule="evenodd" clip-rule="evenodd" d="M66.9927 36.8457H53.5941V35.1709H66.9927V36.8457Z" fill="black"/>
<path fill-rule="evenodd" clip-rule="evenodd" d="M33.4964 53.5938H20.0979V51.9189H33.4964V53.5938Z" fill="black"/>
<path fill-rule="evenodd" clip-rule="evenodd" d="M50.2445 53.5938H36.8459V51.9189H50.2445V53.5938Z" fill="black"/>
<path fill-rule="evenodd" clip-rule="evenodd" d="M66.9927 53.5938H53.5941V51.9189H66.9927V53.5938Z" fill="black"/>
<path fill-rule="evenodd" clip-rule="evenodd" d="M33.4964 70.3428H20.0979V68.668H33.4964V70.3428Z" fill="black"/>
<path fill-rule="evenodd" clip-rule="evenodd" d="M50.2445 70.3428H36.8459V68.668H50.2445V70.3428Z" fill="black"/>
<path fill-rule="evenodd" clip-rule="evenodd" d="M66.9927 70.3428H53.5941V68.668H66.9927V70.3428Z" fill="black"/>
<path fill-rule="evenodd" clip-rule="evenodd" d="M85.4158 20.0977H72.0172V18.4229H85.4158V20.0977Z" fill="black"/>
<path fill-rule="evenodd" clip-rule="evenodd" d="M13.3985 36.8457H0V35.1709H13.3985V36.8457Z" fill="black"/>
<path fill-rule="evenodd" clip-rule="evenodd" d="M85.4158 36.8457H72.0172V35.1709H85.4158V36.8457Z" fill="black"/>
<path fill-rule="evenodd" clip-rule="evenodd" d="M13.3985 70.3428H0V68.668H13.3985V70.3428Z" fill="black"/>
<path fill-rule="evenodd" clip-rule="evenodd" d="M85.4158 70.3428H72.0172V68.668H85.4158V70.3428Z" fill="black"/>
<path fill-rule="evenodd" clip-rule="evenodd" d="M13.3985 53.5938H0V51.9189H13.3985V53.5938Z" fill="black"/>
<path fill-rule="evenodd" clip-rule="evenodd" d="M85.4158 53.5938H72.0172V51.9189H85.4158V53.5938Z" fill="black"/>
</svg>
