<svg width="116" height="42" viewBox="0 0 116 42" fill="none" xmlns="http://www.w3.org/2000/svg">
<path d="M85.6036 5.47628L83.3591 10.6621H87.8602L85.6036 5.47628ZM59.7043 8.68981C60.1274 8.47935 60.3766 8.02159 60.3766 7.45312C60.3766 6.89605 60.1148 6.4926 59.6919 6.30301C59.3065 6.09285 58.7137 6.06858 58.1453 6.06858H54.13V8.95798H58.0915C58.7259 8.95813 59.2561 8.94925 59.7043 8.68981ZM8.2524 5.47628L6.03338 10.6621H10.4848L8.2524 5.47628ZM111.567 38.6978H105.269V35.9077H111.541C112.163 35.9077 112.599 35.83 112.861 35.5854C113.109 35.3674 113.249 35.0593 113.246 34.7371C113.246 34.3579 113.088 34.0569 112.848 33.8767C112.611 33.6781 112.267 33.5877 111.699 33.5877C108.637 33.4885 104.817 33.6778 104.817 29.5605C104.817 27.6735 106.074 25.687 109.496 25.687H115.991V23.0982H109.956C108.135 23.0982 106.812 23.5141 105.875 24.161V23.0982H96.9488C95.5216 23.0982 93.8461 23.4355 93.0537 24.161V23.0982H77.1127V24.161C75.8443 23.2882 73.7033 23.0982 72.7158 23.0982H62.2012V24.161C61.1978 23.2342 58.9654 23.0982 57.6055 23.0982H45.8379L43.1455 25.8769L40.6234 23.0982H23.0449V41.2548H40.2917L43.0661 38.4316L45.6798 41.2548L56.3108 41.2637V36.9926H57.3562C58.7667 37.0142 60.4302 36.9596 61.8984 36.3546V41.2542H70.6671V36.5218H71.09C71.6296 36.5218 71.6831 36.5434 71.6831 37.0577V41.2532H98.3215C100.013 41.2532 101.781 40.8409 102.759 40.091V41.2532H111.209C112.967 41.2532 114.684 41.0182 115.991 40.4166V37.0343C115.199 38.1387 113.655 38.6986 111.566 38.6986L111.567 38.6978ZM57.4959 34.4107H53.427V38.775H47.0889L43.0735 34.4679L38.9008 38.775H25.984V25.7637H39.0995L43.1113 30.0287L47.259 25.7637H57.6788C60.2666 25.7637 63.1742 26.447 63.1742 30.0502C63.1742 33.6647 60.3462 34.4107 57.4959 34.4107V34.4107ZM77.0612 33.8208C77.5218 34.4559 77.5883 35.0488 77.6017 36.1958V38.7751H74.3275V37.1474C74.3275 36.3646 74.4068 35.2055 73.8004 34.6005C73.3245 34.1346 72.5979 34.0233 71.4079 34.0233H67.9231V38.7751H64.6467V25.7638H72.1748C73.8263 25.7638 75.0284 25.8338 76.0986 26.3777C77.1277 26.9706 77.7754 27.7828 77.7754 29.2671C77.7751 31.3437 76.3225 32.4031 75.4641 32.7287C76.1896 32.984 76.7827 33.4418 77.0612 33.8208V33.8208ZM90.5313 28.4546H82.8953V30.82H90.3447V33.4748H82.8953V36.0636L90.5313 36.0751V38.775H79.6479V25.7637H90.5313V28.4546V28.4546ZM98.9107 38.7748H92.5597V35.9847H98.8854C99.5041 35.9847 99.9427 35.9067 100.217 35.6624C100.442 35.4612 100.603 35.1686 100.603 34.8143C100.603 34.4349 100.428 34.1338 100.205 33.9533C99.9553 33.7549 99.611 33.6651 99.0435 33.6651C95.9939 33.5654 92.1748 33.7546 92.1748 29.6376C92.1748 27.7503 93.4186 25.7638 96.8371 25.7638H103.375V28.5328H97.3926C96.7997 28.5328 96.4142 28.5544 96.0864 28.7684C95.7287 28.9791 95.5964 29.2916 95.5964 29.704C95.5964 30.1948 95.8998 30.529 96.3098 30.6733C96.6539 30.7874 97.0232 30.8207 97.5788 30.8207L99.3344 30.8664C101.104 30.9068 102.32 31.1994 103.058 31.9125C103.693 32.5388 104.034 33.33 104.034 34.669C104.033 37.4681 102.199 38.7748 98.9107 38.7748V38.7748ZM73.6197 28.6645C73.2258 28.4413 72.6443 28.4295 72.064 28.4295H68.0485V31.3516H72.0103C72.6446 31.3516 73.184 31.3301 73.6197 31.0834C74.0424 30.8398 74.2954 30.391 74.2954 29.8346C74.2954 29.2781 74.0424 28.8752 73.6197 28.6645ZM110.054 28.4292C109.461 28.4292 109.067 28.4506 108.735 28.6642C108.39 28.8752 108.258 29.1877 108.258 29.6004C108.258 30.0909 108.549 30.4251 108.971 30.5697C109.316 30.6838 109.685 30.7171 110.228 30.7171L111.996 30.7619C113.779 30.8041 114.97 31.0967 115.695 31.8098C115.828 31.9086 115.907 32.0199 115.998 32.1315V28.4295H110.054L110.054 28.4292V28.4292ZM57.6088 28.4292H53.3569V31.743H57.571C58.8238 31.743 59.6029 31.1501 59.6035 30.0246C59.6029 28.8868 58.786 28.4292 57.6088 28.4292V28.4292ZM29.2319 28.4292V30.7948H36.3906V33.4496H29.2319V36.0381H37.2491L40.9741 32.2211L37.4074 28.4292H29.2319ZM50.1669 37.5281V27.0967L45.1605 32.2285L50.1669 37.5281V37.5281ZM29.5055 16.6379V18.8798H56.7492L56.7365 14.1369H57.2637C57.633 14.1492 57.7404 14.1816 57.7404 14.7628V18.8799H71.8311V17.7757C72.9676 18.3564 74.7351 18.8799 77.0612 18.8799H82.9891L84.2578 15.9906H87.0705L88.3111 18.8799H99.7343V16.1354L101.464 18.8798H110.618V0.737915H101.559V2.88051L100.29 0.737915H90.9945V2.88051L89.8295 0.737915H77.2727C75.1706 0.737915 73.3235 1.01763 71.831 1.7973V0.737915H63.1655V1.7973C62.2156 0.993659 60.9215 0.737915 59.4829 0.737915H27.8253L25.7013 5.42389L23.5199 0.737915H13.5488V2.88051L12.4532 0.737915H3.94954L0.000636999 9.36395V16.2639L5.8399 3.25554H10.685L16.2307 15.5717V3.25554H21.5531L25.8206 12.08L29.7411 3.25554H35.1703V16.2639H31.8279L31.8157 6.07598L27.0871 16.2639H24.224L19.4833 6.06695V16.2639H12.8505L11.5975 13.3623H4.80794L3.54206 16.2639H0.000488281V18.8808H5.57236L6.82858 15.9914H9.64143L10.8944 18.8808H21.8568V16.6716L22.8352 18.89H28.5261L29.5046 16.6383L29.5055 16.6379ZM72.4359 4.7718C73.4896 3.73358 75.1408 3.2548 77.388 3.2548H80.5448V6.04209H77.4541C76.2647 6.04209 75.592 6.21081 74.9451 6.81287C74.3889 7.36047 74.0076 8.39588 74.0076 9.75925C74.0076 11.153 74.2983 12.1577 74.9041 12.8141C75.4061 13.3289 76.3188 13.485 77.1769 13.485H78.6419L83.2376 3.25525H88.1235L93.6445 15.5591V3.2554H98.6096L104.342 12.3149V3.2554H107.682V16.2633H103.061L96.8798 6.5V16.2633H90.2387L88.9698 13.3617H82.1957L80.9646 16.2633H77.1485C75.5636 16.2633 73.5568 15.9291 72.4203 14.8244C71.2742 13.72 70.6784 12.2239 70.6784 9.85856C70.6778 7.92909 71.0337 6.16552 72.4359 4.7718V4.7718ZM65.7286 3.25495H69.0557V16.2633H65.7286V3.25495ZM50.7274 3.25495H58.2276C59.8937 3.25495 61.1222 3.29713 62.1765 3.87803C63.208 4.45908 63.8265 5.30741 63.8265 6.75811C63.8265 8.83233 62.3746 9.9037 61.5291 10.2256C62.2424 10.4846 62.8521 10.9421 63.1426 11.321C63.603 11.968 63.6823 12.5459 63.6823 13.7076V16.2631H60.3934L60.381 14.6227C60.381 13.8398 60.4595 12.7141 59.8663 12.0886C59.39 11.6313 58.6635 11.5317 57.4893 11.5317H53.9888V16.2633H50.7279L50.7274 3.25495V3.25495ZM37.5818 3.25495H48.4753V5.9638H40.843V8.30856H48.292V10.9751H40.843V13.5729H48.4753V16.2631H37.5818V3.25495V3.25495Z" fill="#2557D6"/>
</svg>
