<svg width="136" height="88" viewBox="0 0 136 88" fill="none" xmlns="http://www.w3.org/2000/svg">
<path d="M78.289 44C78.289 61.4491 64.2756 75.592 46.9898 75.592C29.704 75.592 15.6924 61.4484 15.6924 44C15.6924 26.5526 29.7042 12.408 46.9898 12.408C64.2752 12.408 78.289 26.5533 78.289 44Z" fill="#D9222A"/>
<path d="M89.0086 12.4073C80.922 12.4073 73.5529 15.5042 67.9984 20.5855C66.8668 21.622 65.8105 22.7393 64.8381 23.9288H71.1616C72.0273 24.9913 72.8243 26.1089 73.5477 27.2749H62.4524C61.7851 28.3524 61.1828 29.4695 60.6491 30.6204H75.3499C75.8545 31.7089 76.2968 32.8256 76.6752 33.9651H59.3242C58.9598 35.0622 58.656 36.1791 58.4146 37.3105H77.5836C78.0524 39.5087 78.2889 41.7511 78.2883 43.9999C78.2883 47.5084 77.721 50.8836 76.6748 54.0356H59.3238C59.7012 55.1755 60.1433 56.2926 60.6483 57.381H75.3495C74.8155 58.5322 74.2129 59.6494 73.5454 60.7273H62.4518C63.1749 61.8924 63.9721 63.0093 64.8379 64.0706H71.16C70.1888 65.2624 69.1322 66.3809 67.9989 67.4168C73.5534 72.4973 80.9219 75.5928 89.0091 75.5928C106.295 75.5928 120.308 61.4492 120.308 44.0008C120.308 26.5541 106.295 12.4088 89.0091 12.4088" fill="#EE9F2D"/>
<path d="M116.135 61.6105C116.135 61.0475 116.587 60.5895 117.146 60.5895C117.704 60.5895 118.156 61.0475 118.156 61.6105C118.156 62.1735 117.704 62.6315 117.146 62.6315C116.587 62.6315 116.135 62.1735 116.135 61.6105ZM117.146 62.3863C117.57 62.3862 117.914 62.0389 117.914 61.6105C117.914 61.1825 117.571 60.8358 117.147 60.8354H117.146C116.722 60.8349 116.378 61.1809 116.378 61.6082V61.6107C116.377 62.0389 116.721 62.3862 117.145 62.3865C117.145 62.3863 117.145 62.3863 117.146 62.3863V62.3863ZM117.009 62.059H116.802V61.1621H117.177C117.255 61.1621 117.335 61.1621 117.404 61.2068C117.476 61.2559 117.517 61.3425 117.517 61.4319C117.517 61.5324 117.458 61.6262 117.363 61.6628L117.526 62.0588H117.297L117.161 61.7038H117.009L117.009 62.059V62.059ZM117.009 61.5503H117.124C117.167 61.5503 117.212 61.554 117.25 61.5327C117.284 61.5107 117.302 61.4695 117.302 61.4299C117.301 61.3932 117.282 61.3592 117.252 61.3388C117.216 61.3161 117.158 61.321 117.12 61.321H117.009V61.5503ZM39.6809 47.4592C39.3242 47.4174 39.1674 47.4063 38.9224 47.4063C36.9965 47.4063 36.0215 48.0728 36.0215 49.3894C36.0215 50.201 36.4973 50.7174 37.2397 50.7174C38.6239 50.7174 39.6213 49.387 39.6809 47.4592V47.4592ZM42.1517 53.2665H39.3365L39.4012 51.9156C38.5423 52.983 37.3968 53.4906 35.8398 53.4906C33.998 53.4906 32.7355 52.0386 32.7355 49.9303C32.7355 46.7581 34.9317 44.9071 38.7015 44.9071C39.0865 44.9071 39.5806 44.9421 40.0861 45.0074C40.1914 44.5778 40.2191 44.3935 40.2191 44.1624C40.2191 43.2986 39.627 42.9767 38.0397 42.9767C36.3775 42.9577 35.0065 43.3764 34.4435 43.5633C34.4791 43.347 34.9143 40.6313 34.9143 40.6313C36.6076 40.1304 37.7242 39.9419 38.9812 39.9419C41.8986 39.9419 43.4441 41.2642 43.4411 43.7632C43.4469 44.4329 43.337 45.2592 43.1658 46.3453C42.871 48.2345 42.2382 52.2802 42.1517 53.2665V53.2665ZM31.3139 53.2665H27.9162L29.8624 40.9471L25.5165 53.2665H23.2012L22.9149 41.0175L20.8691 53.2665H17.6885L20.3452 37.2407H25.2309L25.5273 46.2111L28.5075 37.2407H33.9417L31.3139 53.2665ZM93.2061 47.4592C92.851 47.4174 92.6933 47.4063 92.4491 47.4063C90.524 47.4063 89.5488 48.0728 89.5488 49.3894C89.5488 50.201 90.0241 50.7174 90.7663 50.7174C92.1507 50.7174 93.1488 49.387 93.2061 47.4592V47.4592ZM95.6792 53.2665H92.864L92.9279 51.9156C92.069 52.983 90.9227 53.4906 89.3671 53.4906C87.525 53.4906 86.2635 52.0386 86.2635 49.9303C86.2635 46.7581 88.4583 44.9071 92.2289 44.9071C92.6138 44.9071 93.1071 44.9421 93.6122 45.0074C93.7175 44.5778 93.7453 44.3935 93.7453 44.1624C93.7453 43.2986 93.1538 42.9767 91.5665 42.9767C89.9043 42.9577 88.5349 43.3764 87.9696 43.5633C88.0052 43.347 88.442 40.6313 88.442 40.6313C90.1353 40.1304 91.2512 39.9419 92.5068 39.9419C95.4256 39.9419 96.9711 41.2642 96.9681 43.7632C96.9737 44.4329 96.864 45.2592 96.6928 46.3453C96.3992 48.2345 95.765 52.2802 95.6792 53.2665V53.2665ZM57.2523 53.0685C56.3224 53.364 55.5974 53.4906 54.8112 53.4906C53.0743 53.4906 52.1263 52.483 52.1263 50.6276C52.1015 50.0519 52.3761 48.5367 52.592 47.1539C52.7882 45.9365 54.0652 38.2608 54.0652 38.2608H57.4427L57.0481 40.2334H59.0879L58.6273 43.3655H56.5799C56.1876 45.8441 55.629 48.9315 55.6225 49.3407C55.6225 50.0123 55.9777 50.3057 56.7857 50.3057C57.1729 50.3057 57.4727 50.2657 57.7018 50.1825L57.2523 53.0685V53.0685ZM67.6078 52.9629C66.4476 53.3209 65.3281 53.4939 64.1417 53.4909C60.3609 53.4872 58.3901 51.494 58.3901 47.6773C58.3901 43.2222 60.8974 39.9426 64.3007 39.9426C67.0854 39.9426 68.8639 41.7789 68.8639 44.6587C68.8639 45.6142 68.7418 46.547 68.4475 47.864H61.7218C61.4943 49.7545 62.693 50.5422 64.6575 50.5422C65.8666 50.5422 66.9569 50.2907 68.1694 49.7216L67.6078 52.9629V52.9629ZM65.7094 45.2365C65.728 44.965 66.0677 42.9104 64.1379 42.9104C63.0619 42.9104 62.2926 43.7383 61.9793 45.2365H65.7094V45.2365ZM44.19 44.3536C44.19 46.0021 44.9819 47.1389 46.7778 47.9925C48.1539 48.6453 48.3666 48.8391 48.3666 49.4304C48.3666 50.243 47.76 50.6098 46.4153 50.6098C45.4018 50.6098 44.4589 50.45 43.3714 50.0956C43.3714 50.0956 42.9245 52.968 42.9041 53.1055C43.6765 53.2757 44.3652 53.433 46.4399 53.4909C50.0253 53.4909 51.681 52.113 51.681 49.1349C51.681 47.3441 50.9877 46.2932 49.2858 45.5034C47.8611 44.8434 47.6978 44.696 47.6978 44.0874C47.6978 43.3827 48.2621 43.0233 49.3606 43.0233C50.0275 43.0233 50.9386 43.0952 51.8016 43.2191L52.2855 40.1963C51.4057 40.0555 50.0718 39.9425 49.2952 39.9425C45.494 39.9426 44.1783 41.9468 44.19 44.3536V44.3536ZM84.1339 40.2851C85.0775 40.2851 85.9573 40.5352 87.1698 41.1512L87.7257 37.6729C87.2281 37.4757 85.4758 36.3177 83.9914 36.3177C81.7176 36.3177 79.7955 37.4566 78.4433 39.3361C76.4715 38.6769 75.6609 40.0093 74.6672 41.3367L73.7845 41.5442C73.8512 41.1072 73.9116 40.673 73.8912 40.2337H70.7708C70.3445 44.2671 69.589 48.3523 68.9974 52.3909L68.8433 53.2667H72.2426C72.81 49.5456 73.1209 47.163 73.3099 45.5505L74.5898 44.8317C74.7811 44.114 75.3795 43.8711 76.5805 43.9005C76.419 44.7819 76.3383 45.6765 76.3394 46.5729C76.3394 50.8365 78.6182 53.4911 82.2763 53.4911C83.2185 53.4911 84.027 53.3658 85.2789 53.0233L85.877 49.3697C84.7509 49.9296 83.8267 50.1929 82.9897 50.1929C81.0144 50.1929 79.8192 48.721 79.8192 46.2883C79.8192 42.7593 81.597 40.2851 84.1339 40.2851" fill="black"/>
<path d="M32.2932 52.3143H28.8948L30.8426 39.9964L26.4965 52.3143H24.1805L23.8942 40.0668L21.8484 52.3143H18.668L21.3247 36.2909H26.2104L26.3478 46.2106L29.6439 36.2909H34.9212L32.2932 52.3143Z" fill="white"/>
<path d="M112.901 37.2416L112.148 41.872C111.218 40.6377 110.22 39.7445 108.902 39.7445C107.188 39.7445 105.627 41.0566 104.606 42.9873C103.183 42.6895 101.712 42.1842 101.712 42.1842L101.711 42.196C101.826 41.1164 101.872 40.458 101.862 40.2343H98.7406C98.3156 44.2677 97.56 48.3528 96.9697 52.3915L96.814 53.2672H100.213C100.672 50.2584 101.023 47.76 101.282 45.7783C102.443 44.7195 103.024 43.7955 104.197 43.8571C103.678 45.1251 103.374 46.5856 103.374 48.084C103.374 51.3423 105.007 53.4916 107.477 53.4916C108.722 53.4916 109.677 53.0583 110.609 52.0536L110.45 53.2651H113.665L116.252 37.2418L112.901 37.2416V37.2416ZM108.652 50.2552C107.495 50.2552 106.911 49.3914 106.911 47.6863C106.911 45.1246 108.004 43.3083 109.546 43.3083C110.713 43.3083 111.345 44.2066 111.345 45.8619C111.346 48.4454 110.235 50.2552 108.652 50.2552V50.2552Z" fill="black"/>
<path d="M40.659 46.5097C40.303 46.4682 40.1454 46.4571 39.9013 46.4571C37.9753 46.4571 37.001 47.1236 37.001 48.4399C37.001 49.2502 37.4768 49.7682 38.2178 49.7682C39.6035 49.768 40.601 48.4378 40.659 46.5097V46.5097ZM43.1311 52.3149H40.3159L40.3799 50.9662C39.5219 52.0317 38.3748 52.5414 36.8193 52.5414C34.9769 52.5414 33.7148 51.0894 33.7148 48.9811C33.7148 45.8075 35.9104 43.9577 39.6809 43.9577C40.0659 43.9577 40.56 43.9929 41.0649 44.0582C41.1703 43.6286 41.198 43.4445 41.198 43.212C41.198 42.348 40.6066 42.0277 39.0192 42.0277C37.3563 42.0087 35.986 42.4274 35.4223 42.6122C35.4579 42.3966 35.8931 39.6841 35.8931 39.6841C37.5858 39.1811 38.7038 38.9926 39.9592 38.9926C42.8774 38.9926 44.4234 40.3156 44.4207 42.8125C44.4257 43.485 44.3153 44.3108 44.1445 45.3953C43.8503 47.2827 43.2171 51.3307 43.1311 52.3149V52.3149ZM88.705 36.7227L88.1487 40.2017C86.9369 39.5864 86.0563 39.3358 85.1136 39.3358C82.5765 39.3358 80.7982 41.81 80.7982 45.3385C80.7982 47.771 81.9938 49.2423 83.9688 49.2423C84.8057 49.2423 85.7291 48.9797 86.8551 48.4195L86.2586 52.0715C85.006 52.4159 84.1984 52.5414 83.2553 52.5414C79.5977 52.5414 77.3182 49.8866 77.3182 45.6231C77.3182 39.8943 80.4669 35.8903 84.9704 35.8903C86.4537 35.8904 88.2067 36.5254 88.705 36.7227V36.7227ZM94.1874 46.5097C93.8315 46.4682 93.6746 46.4571 93.4295 46.4571C91.5044 46.4571 90.5294 47.1236 90.5294 48.4399C90.5294 49.2502 91.0052 49.7682 91.7469 49.7682C93.131 49.768 94.1292 48.4378 94.1874 46.5097V46.5097ZM96.6595 52.3149H93.8436L93.9083 50.9662C93.0495 52.0317 91.9031 52.5414 90.3477 52.5414C88.5059 52.5414 87.2434 51.0894 87.2434 48.9811C87.2434 45.8075 89.4396 43.9577 93.2086 43.9577C93.5944 43.9577 94.0877 43.9929 94.5931 44.0582C94.6979 43.6286 94.7262 43.4445 94.7262 43.212C94.7262 42.348 94.1346 42.0277 92.5476 42.0277C90.8854 42.0087 89.5144 42.4274 88.9505 42.6122C88.9861 42.3966 89.422 39.6841 89.422 39.6841C91.1148 39.1811 92.232 38.9926 93.4874 38.9926C96.4063 38.9926 97.9516 40.3156 97.948 42.8125C97.9537 43.485 97.8441 44.3108 97.6727 45.3953C97.3794 47.2827 96.7446 51.3307 96.6595 52.3149ZM58.2325 52.1176C57.3018 52.4131 56.5768 52.5414 55.7915 52.5414C54.0545 52.5414 53.1065 51.5337 53.1065 49.6783C53.0825 49.1012 53.3572 47.5874 53.5729 46.2047C53.7682 44.9858 55.0454 37.3108 55.0454 37.3108H58.4224L58.0283 39.2841H59.7616L59.3003 42.4148H57.561C57.1687 44.8949 56.6085 47.9799 56.6028 48.3899C56.6028 49.064 56.9586 49.3548 57.7659 49.3548C58.1532 49.3548 58.4525 49.3168 58.682 49.2332L58.2325 52.1176V52.1176ZM68.5878 52.0134C67.4284 52.3712 66.3074 52.5435 65.1218 52.5414C61.3408 52.5377 59.3702 50.5445 59.3702 46.7276C59.3702 42.2711 61.8773 38.9924 65.2808 38.9924C68.0655 38.9924 69.8439 40.8279 69.8439 43.7092C69.8439 44.6656 69.7219 45.5982 69.4283 46.9145H62.7025C62.4748 48.805 63.6735 49.5936 65.6382 49.5936C66.8465 49.5936 67.9377 49.3411 69.1495 48.7705L68.5878 52.0134V52.0134ZM66.6889 44.2849C66.7091 44.0142 67.0481 41.9587 65.1174 41.9587C64.0421 41.9587 63.2729 42.7889 62.9597 44.2849H66.6889ZM45.1695 43.404C45.1695 45.0526 45.9615 46.188 47.7574 47.0428C49.1334 47.6956 49.3461 47.8898 49.3461 48.4811C49.3461 49.2935 48.7388 49.6601 47.3954 49.6601C46.3813 49.6601 45.4382 49.5003 44.3499 49.146C44.3499 49.146 43.9046 52.0185 43.8842 52.1558C44.655 52.326 45.3444 52.4814 47.4193 52.5414C51.0051 52.5414 52.6603 51.1635 52.6603 48.1861C52.6603 46.3945 51.968 45.3437 50.2652 44.554C48.8412 43.8924 48.6762 43.7472 48.6762 43.1379C48.6762 42.4339 49.2422 42.0716 50.34 42.0716C51.0062 42.0716 51.9172 42.1456 52.7817 42.2696L53.2648 39.246C52.3857 39.1052 51.0519 38.9924 50.2753 38.9924C46.4736 38.9924 45.1585 40.9951 45.1695 43.404V43.404ZM114.643 52.3149H111.428L111.588 51.1018C110.656 52.1079 109.7 52.5414 108.455 52.5414C105.985 52.5414 104.353 50.3919 104.353 47.1337C104.353 42.7988 106.885 39.1447 109.881 39.1447C111.199 39.1447 112.197 39.688 113.125 40.9216L113.879 36.2914H117.231L114.643 52.3149V52.3149ZM109.631 49.3037C111.213 49.3037 112.325 47.4939 112.325 44.912C112.325 43.2567 111.692 42.3584 110.524 42.3584C108.984 42.3584 107.889 44.1739 107.889 46.7364C107.889 48.4412 108.474 49.3037 109.631 49.3037ZM99.7198 39.2842C99.2942 43.3176 98.5389 47.4031 97.948 51.4393L97.7924 52.3151H101.191C102.407 44.3467 102.7 42.7905 104.606 42.9855C104.91 41.3545 105.475 39.9261 105.896 39.2052C104.473 38.906 103.678 39.7179 102.638 41.26C102.72 40.5933 102.87 39.9458 102.84 39.2844L99.7198 39.2842V39.2842ZM71.7492 39.2842C71.3227 43.3176 70.5672 47.4031 69.9764 51.4393L69.8216 52.3151H73.2216C74.4357 44.3467 74.7291 42.7905 76.6338 42.9855C76.9389 41.3545 77.504 39.9261 77.9239 39.2052C76.5022 38.906 75.7066 39.7179 74.667 41.26C74.7492 40.5933 74.8979 39.9458 74.8697 39.2844L71.7492 39.2842V39.2842ZM116.136 51.2946C116.135 50.7316 116.587 50.2747 117.144 50.274H117.146C117.704 50.2733 118.156 50.7292 118.157 51.2918V51.2946C118.157 51.858 117.704 52.3146 117.146 52.3149C116.588 52.3146 116.136 51.858 116.136 51.2946V51.2946ZM117.146 52.0699C117.57 52.0703 117.914 51.7234 117.914 51.2957V51.295C117.915 50.8668 117.571 50.5195 117.147 50.5192H117.146C116.722 50.5194 116.378 50.8666 116.378 51.295C116.378 51.723 116.722 52.0699 117.146 52.0699ZM117.01 51.7406H116.802V50.8462H117.178C117.256 50.8462 117.336 50.8478 117.404 50.8909C117.477 50.9407 117.518 51.0259 117.518 51.1151C117.518 51.2163 117.459 51.3108 117.363 51.3469L117.527 51.7405H117.297L117.161 51.3869H117.009L117.01 51.7406ZM117.01 51.2339H117.123C117.166 51.2339 117.213 51.2373 117.251 51.2163C117.285 51.1943 117.302 51.1528 117.302 51.1128C117.301 51.0759 117.282 51.0417 117.252 51.0208C117.217 51.0002 117.158 51.006 117.119 51.006H117.009L117.01 51.2339V51.2339Z" fill="white"/>
</svg>
