<svg width="152" height="41" viewBox="0 0 152 41" fill="none" xmlns="http://www.w3.org/2000/svg">
<path d="M25.5937 1.95933C23.6986 0.65441 21.2256 0.000366211 18.1747 0.000366211H6.36325C5.42797 0.000366211 4.91125 0.468863 4.81309 1.40496L0.0150609 31.5714C-0.0348058 31.8677 0.0392043 32.1387 0.236415 32.385C0.432497 32.6318 0.679122 32.7545 0.974487 32.7545H6.58483C7.56885 32.7545 8.10971 32.2872 8.20899 31.35L9.53757 23.2171C9.58608 22.823 9.75915 22.5025 10.0545 22.2557C10.3496 22.0094 10.7188 21.8482 11.1617 21.7746C11.6047 21.7013 12.0223 21.6643 12.4167 21.6643C12.81 21.6643 13.2773 21.6894 13.8196 21.7384C14.3604 21.7874 14.7052 21.8116 14.853 21.8116C19.0851 21.8116 22.407 20.6172 24.8189 18.2257C27.2296 15.8355 28.4364 12.521 28.4364 8.28078C28.4364 5.37261 27.488 3.26561 25.5937 1.95865V1.95933ZM19.5039 11.0174C19.2571 12.7429 18.618 13.8761 17.5846 14.4185C16.5509 14.9616 15.0746 15.2319 13.1555 15.2319L10.7192 15.3055L11.9745 7.39396C12.0724 6.85223 12.3922 6.58103 12.9339 6.58103H14.337C16.3045 6.58103 17.7326 6.86512 18.6185 7.43102C19.5039 7.99828 19.7993 9.19404 19.5039 11.0174Z" fill="#003087"/>
<path d="M150.24 0H144.778C144.235 0 143.915 0.271203 143.818 0.813829L139.019 31.5724L138.945 31.7202C138.945 31.9679 139.044 32.2009 139.241 32.4229C139.437 32.6443 139.684 32.7553 139.979 32.7553H144.852C145.785 32.7553 146.302 32.2879 146.402 31.3507L151.2 1.10966V1.03621C151.2 0.345781 150.879 0.000906952 150.24 0.000906952V0Z" fill="#009CDE"/>
<path d="M84.2447 11.9056C84.2447 11.6597 84.1459 11.4251 83.9503 11.2038C83.7528 10.9821 83.5312 10.8705 83.2858 10.8705H77.6016C77.0592 10.8705 76.6162 11.1182 76.2724 11.6097L68.4476 23.1445L65.1995 12.0538C64.9522 11.2658 64.4115 10.8705 63.5755 10.8705H58.0381C57.7915 10.8705 57.5701 10.9817 57.3745 11.2038C57.177 11.4251 57.0791 11.6601 57.0791 11.9056C57.0791 12.0048 57.559 13.4584 58.5185 16.268C59.4779 19.0786 60.5113 22.1101 61.6188 25.3636C62.7262 28.6165 63.3041 30.3426 63.3535 30.5381C59.3177 36.0598 57.3007 39.0172 57.3007 39.4109C57.3007 40.0523 57.62 40.3723 58.2603 40.3723H63.9445C64.4855 40.3723 64.9283 40.1264 65.2735 39.6333L84.0981 12.4229C84.1958 12.3252 84.2447 12.1535 84.2447 11.9053V11.9056Z" fill="#003087"/>
<path d="M137.176 10.8706H131.565C130.875 10.8706 130.459 11.6842 130.311 13.3111C129.03 11.34 126.694 10.353 123.297 10.353C119.754 10.353 116.739 11.6842 114.254 14.346C111.769 17.0078 110.526 20.1388 110.526 23.7368C110.526 26.6456 111.375 28.9621 113.073 30.6867C114.771 32.4131 117.047 33.2746 119.902 33.2746C121.329 33.2746 122.781 32.9784 124.257 32.3874C125.733 31.7959 126.889 31.0076 127.727 30.0214C127.727 30.0709 127.677 30.2919 127.58 30.686C127.48 31.0811 127.432 31.3778 127.432 31.5733C127.432 32.363 127.751 32.7562 128.392 32.7562H133.486C134.42 32.7562 134.962 32.2888 135.109 31.3516L138.136 12.0535C138.184 11.7574 138.111 11.4869 137.914 11.2401C137.716 10.9942 137.471 10.8706 137.176 10.8706ZM127.542 25.4372C126.287 26.6696 124.774 27.2854 123.002 27.2854C121.574 27.2854 120.419 26.8917 119.532 26.1025C118.646 25.3156 118.203 24.231 118.203 22.8492C118.203 21.0268 118.818 19.485 120.049 18.2282C121.278 16.9712 122.805 16.3429 124.626 16.3429C126.003 16.3429 127.147 16.7495 128.059 17.5624C128.968 18.376 129.425 19.4974 129.425 20.9273C129.424 22.7017 128.797 24.2055 127.542 25.4372Z" fill="#009CDE"/>
<path d="M53.3141 10.8706H47.7035C47.0135 10.8706 46.5961 11.6842 46.4483 13.3111C45.1195 11.34 42.7816 10.353 39.4351 10.353C35.8917 10.353 32.8769 11.6842 30.3919 14.346C27.9062 17.0078 26.6641 20.1388 26.6641 23.7368C26.6641 26.6456 27.5132 28.9621 29.2111 30.6867C30.9091 32.4131 33.1846 33.2746 36.0395 33.2746C37.4168 33.2746 38.8448 32.9784 40.321 32.3874C41.7974 31.7959 42.9786 31.0076 43.8645 30.0214C43.667 30.6124 43.5691 31.1301 43.5691 31.5733C43.5691 32.363 43.8888 32.7562 44.5287 32.7562H49.6224C50.5567 32.7562 51.0987 32.2888 51.2465 31.3516L54.2731 12.0535C54.3216 11.7574 54.248 11.4869 54.0517 11.2401C53.8547 10.9942 53.609 10.8706 53.3141 10.8706ZM43.6803 25.4738C42.4251 26.6829 40.8864 27.2854 39.0667 27.2854C37.6386 27.2854 36.4943 26.8917 35.6337 26.1025C34.772 25.3156 34.3417 24.231 34.3417 22.8492C34.3417 21.0268 34.9566 19.485 36.1875 18.2282C37.417 16.9712 38.9428 16.3427 40.7644 16.3427C42.1417 16.3427 43.2859 16.7495 44.1973 17.5624C45.1071 18.376 45.5629 19.4974 45.5629 20.9273C45.5626 22.7512 44.9354 24.2674 43.6803 25.4738Z" fill="#003087"/>
<path d="M109.456 1.95933C107.561 0.65441 105.088 0.000366211 102.037 0.000366211H90.2988C89.3143 0.000366211 88.7726 0.468863 88.6749 1.40496L83.8764 31.5714C83.8265 31.8677 83.9005 32.1387 84.098 32.385C84.2931 32.6318 84.5404 32.7545 84.8358 32.7545H90.8889C91.4794 32.7545 91.8729 32.4345 92.0703 31.7936L93.3991 23.2171C93.4481 22.823 93.6202 22.5025 93.9161 22.2557C94.2114 22.0094 94.5801 21.8482 95.0235 21.7746C95.466 21.7013 95.8836 21.6643 96.2783 21.6643C96.6718 21.6643 97.1389 21.6894 97.6807 21.7384C98.2217 21.7874 98.5674 21.8116 98.7141 21.8116C102.947 21.8116 106.268 20.6172 108.68 18.2257C111.092 15.8355 112.297 12.521 112.297 8.28078C112.298 5.37261 111.35 3.26539 109.456 1.95865V1.95933ZM101.889 14.1224C100.806 14.8617 99.1818 15.2312 97.017 15.2312L94.6544 15.3053L95.9094 7.3935C96.0069 6.85201 96.3268 6.58035 96.8688 6.58035H98.1971C99.28 6.58035 100.141 6.62985 100.782 6.72816C101.42 6.82715 102.037 7.13473 102.627 7.65205C103.218 8.16981 103.513 8.92194 103.513 9.9073C103.513 11.9784 102.971 13.3825 101.889 14.1224Z" fill="#009CDE"/>
</svg>
