<svg width="120" height="77" viewBox="0 0 120 77" fill="none" xmlns="http://www.w3.org/2000/svg">
<path d="M45.1076 53.7044L50.2397 23.5573H58.4486L53.3126 53.7044H45.1076V53.7044ZM82.9706 24.2072C81.3446 23.5965 78.796 22.941 75.6136 22.941C67.5019 22.941 61.7885 27.0299 61.7396 32.8901C61.6939 37.2219 65.8188 39.6386 68.9325 41.0806C72.128 42.5586 73.202 43.5008 73.1866 44.8201C73.1662 46.8411 70.635 47.7638 68.2753 47.7638C64.9899 47.7638 63.2443 47.3069 60.5483 46.1818L59.4902 45.7027L58.3383 52.4513C60.2557 53.2932 63.8011 54.0219 67.4826 54.0598C76.1119 54.0598 81.7137 50.0176 81.7774 43.7595C81.808 40.33 79.6211 37.7204 74.885 35.5686C72.0157 34.174 70.2585 33.2433 70.2771 31.8312C70.2771 30.5781 71.7645 29.2381 74.9786 29.2381C77.6626 29.1964 79.6076 29.7823 81.1226 30.3931L81.8582 30.741L82.9706 24.2072V24.2072ZM104.095 23.5569H97.7522C95.7873 23.5569 94.3165 24.0937 93.4537 26.0569L81.2622 53.6845H89.8823C89.8823 53.6845 91.2914 49.9699 91.6102 49.1542C92.5522 49.1542 100.926 49.1671 102.123 49.1671C102.369 50.2226 103.122 53.6845 103.122 53.6845H110.739L104.095 23.556V23.5569ZM94.0311 43.024C94.7102 41.2871 97.3019 34.5965 97.3019 34.5965C97.2536 34.6768 97.9759 32.8511 98.3902 31.7192L98.945 34.3184C98.945 34.3184 100.517 41.5147 100.845 43.0236H94.0311V43.024V43.024ZM38.1388 23.5569L30.102 44.1159L29.2459 39.938C27.7496 35.1218 23.0882 29.9038 17.877 27.2915L25.2257 53.6564L33.9111 53.6467L46.8348 23.5566L38.1388 23.5564" fill="#0E4595"/>
<path d="M22.6032 23.5559H9.36615L9.26123 24.1831C19.5595 26.6786 26.3735 32.709 29.2028 39.9558L26.3245 26.102C25.8277 24.193 24.3865 23.6232 22.6035 23.5567" fill="#F2AE14"/>
</svg>
